<svg width="52" height="52" viewBox="0 0 52 52" fill="none" xmlns="http://www.w3.org/2000/svg">
<g id="Chat" clip-path="url(#clip0_412_641)">
<path id="Vector" d="M11.7252 21.9308C11.6014 22.2374 11.6756 22.5884 11.9131 22.8185C12.1504 23.0486 12.5037 23.112 12.8062 22.9786L16.7483 21.2414C18.2066 22.184 19.8783 22.7905 21.612 23.0028C22.073 23.0593 22.5307 23.0871 22.9841 23.0886C24.6547 23.9733 26.5109 24.4301 28.3837 24.4301C29.1473 24.4301 29.9136 24.3543 30.671 24.2011C32.3828 23.8548 34.0024 23.1201 35.3831 22.067L39.4482 23.4926C39.7602 23.6019 40.1073 23.5115 40.3262 23.2636C40.545 23.0157 40.5918 22.66 40.4445 22.364L38.4967 18.4491C39.8139 16.0571 40.2401 13.287 39.6959 10.5978C38.6073 5.21729 33.8875 1.36116 28.4277 1.34268C27.1963 0.689936 25.843 0.261749 24.4182 0.0873658C21.3577 -0.287501 18.3345 0.552014 15.9053 2.45113C13.4762 4.35025 11.932 7.08157 11.5573 10.1422C11.2238 12.8656 11.864 15.5942 13.3631 17.8765L11.7252 21.9308ZM38.1031 10.9198C38.5963 13.3575 38.1617 15.8726 36.8792 18.0017C36.7359 18.2395 36.724 18.5342 36.8477 18.7829L38.0987 21.2973L35.4974 20.385C35.2282 20.2906 34.9292 20.3443 34.7096 20.5266C33.4593 21.5643 31.9513 22.2842 30.3487 22.6084C29.0209 22.8771 27.6615 22.867 26.3544 22.5941C30.5941 21.306 33.9005 17.6217 34.4729 12.948C34.8476 9.88754 34.0081 6.86433 32.1091 4.43526C31.8119 4.05521 31.4944 3.6968 31.1585 3.36113C34.6179 4.36904 37.356 7.22823 38.1031 10.9198ZM13.17 10.3394C13.492 7.70973 14.8188 5.36283 16.906 3.73112C18.9931 2.09932 21.5908 1.37812 24.2205 1.70008C26.8502 2.02203 29.1971 3.34884 30.8288 5.43605C32.4605 7.52316 33.1819 10.1208 32.8599 12.7506C32.245 17.7718 27.9582 21.4645 23.0223 21.4641C20.9864 21.464 18.9636 20.8284 17.3 19.6534C17.0812 19.4989 16.7571 19.4618 16.5035 19.5736L13.9809 20.6853L15.0328 18.0812C15.1368 17.8236 15.1021 17.5309 14.9408 17.3048C13.4965 15.2818 12.8678 12.8082 13.17 10.3394ZM21.9879 11.5449C21.9879 10.984 22.4426 10.5293 23.0035 10.5293C23.5644 10.5293 24.0191 10.984 24.0191 11.5449C24.0191 12.1059 23.5644 12.5606 23.0035 12.5606C22.4426 12.5606 21.9879 12.1059 21.9879 11.5449ZM26.6361 11.5449C26.6361 10.984 27.0908 10.5293 27.6517 10.5293C28.2126 10.5293 28.6673 10.984 28.6673 11.5449C28.6673 12.1059 28.2126 12.5606 27.6517 12.5606C27.0909 12.5606 26.6361 12.1059 26.6361 11.5449ZM17.3625 11.5449C17.3625 10.984 17.8172 10.5293 18.3781 10.5293C18.9391 10.5293 19.3938 10.984 19.3938 11.5449C19.3938 12.1059 18.9391 12.5606 18.3781 12.5606C17.8172 12.5606 17.3625 12.1059 17.3625 11.5449ZM15.8489 39.4934C17.6413 38.3145 18.8278 36.2864 18.8278 33.9853C18.8278 30.352 15.8718 27.396 12.2384 27.396C8.60498 27.396 5.64901 30.352 5.64901 33.9853C5.64901 36.2863 6.83546 38.3145 8.62784 39.4934C3.63645 41.0376 0 45.6959 0 51.1879C0 51.6366 0.363797 52.0004 0.8125 52.0004H23.6641C24.1128 52.0004 24.4766 51.6366 24.4766 51.1879C24.4766 45.696 20.8402 41.0377 15.8489 39.4934ZM7.27401 33.9853C7.27401 31.248 9.50097 29.021 12.2384 29.021C14.9758 29.021 17.2028 31.248 17.2028 33.9853C17.2028 36.7222 14.9764 38.9489 12.2397 38.9496C12.2392 38.9496 12.2388 38.9496 12.2384 38.9496C12.238 38.9496 12.2376 38.9496 12.2372 38.9496C9.50026 38.9489 7.27401 36.7222 7.27401 33.9853ZM1.65577 50.3754C2.07198 44.9017 6.65864 40.5754 12.237 40.5746C12.2374 40.5746 12.2379 40.5746 12.2383 40.5746C12.2387 40.5746 12.2391 40.5746 12.2396 40.5746C17.8179 40.5754 22.4045 44.9017 22.8207 50.3754H1.65577ZM43.3723 39.4934C45.1646 38.3145 46.3512 36.2864 46.3512 33.9853C46.3512 30.352 43.3952 27.396 39.7618 27.396C36.1285 27.396 33.1725 30.352 33.1725 33.9853C33.1725 36.2863 34.359 38.3145 36.1514 39.4934C31.1599 41.0376 27.5234 45.6959 27.5234 51.1879C27.5234 51.6366 27.8872 52.0004 28.3359 52.0004H51.1875C51.6362 52.0004 52 51.6366 52 51.1879C52 45.696 48.3637 41.0377 43.3723 39.4934ZM34.7974 33.9853C34.7974 31.248 37.0244 29.021 39.7617 29.021C42.4991 29.021 44.7261 31.248 44.7261 33.9853C44.7261 36.7222 42.4997 38.9489 39.7629 38.9496C39.7625 38.9496 39.762 38.9496 39.7616 38.9496C39.7612 38.9496 39.7608 38.9496 39.7603 38.9496C37.0237 38.9489 34.7974 36.7222 34.7974 33.9853ZM29.1792 50.3754C29.5954 44.9017 34.1821 40.5754 39.7604 40.5746C39.7608 40.5746 39.7613 40.5746 39.7617 40.5746C39.7621 40.5746 39.7626 40.5746 39.763 40.5746C45.3414 40.5754 49.928 44.9017 50.3441 50.3754H29.1792Z" fill="url(#paint0_linear_412_641)"/>
</g>
<defs>
<linearGradient id="paint0_linear_412_641" x1="-4.89855" y1="-2.49757e-06" x2="66.4651" y2="15.957" gradientUnits="userSpaceOnUse">
<stop stop-color="#FF0065"/>
<stop offset="1" stop-color="#179AD7"/>
</linearGradient>
<clipPath id="clip0_412_641">
<rect width="52" height="52" fill="white"/>
</clipPath>
</defs>
</svg>
