<svg width="32" height="32" viewBox="0 0 32 32" fill="none" xmlns="http://www.w3.org/2000/svg">
<g id="person" clip-path="url(#clip0_412_344)">
<path id="Vector" d="M20.8333 10.6666C20.8333 13.3371 18.6705 15.4999 16 15.4999C13.3295 15.4999 11.1667 13.3371 11.1667 10.6666C11.1667 7.99606 13.3295 5.83325 16 5.83325C18.6705 5.83325 20.8333 7.99606 20.8333 10.6666ZM5.83334 23.9999C5.83334 23.2969 6.18155 22.6441 6.8385 22.0378C7.49885 21.4283 8.43729 20.9002 9.51761 20.4674C11.6791 19.6015 14.2825 19.1666 16 19.1666C17.7175 19.1666 20.321 19.6015 22.4824 20.4674C23.5627 20.9002 24.5012 21.4283 25.1615 22.0378C25.8185 22.6441 26.1667 23.2969 26.1667 23.9999V25.3333C26.1667 25.7904 25.7905 26.1666 25.3333 26.1666H6.66668C6.20949 26.1666 5.83334 25.7904 5.83334 25.3333V23.9999Z" stroke="#152031"/>
</g>
<defs>
<clipPath id="clip0_412_344">
<rect width="32" height="32" fill="white"/>
</clipPath>
</defs>
</svg>
