<svg width="36" height="36" viewBox="0 0 36 36" fill="none" xmlns="http://www.w3.org/2000/svg">
<g id="customer support">
<path id="Vector" d="M35.28 19.4399C35.28 17.4549 33.665 15.8399 31.68 15.8399H30.24V13.6799C30.24 6.93066 24.7493 1.43994 18 1.43994C11.2507 1.43994 5.75997 6.93066 5.75997 13.6799V15.8399H4.31997C2.33493 15.8399 0.719971 17.4549 0.719971 19.4399V23.7599C0.719971 25.745 2.33493 27.3599 4.31997 27.3599H8.63997V15.8399H7.19997V13.6799C7.19997 7.72482 12.0449 2.87994 18 2.87994C23.9551 2.87994 28.8 7.72482 28.8 13.6799V15.8399H27.36V27.3599H28.8V30.9599C28.8 32.1508 27.8309 33.1199 26.64 33.1199H19.44V34.5599H26.64C28.625 34.5599 30.24 32.945 30.24 30.9599V27.3599H31.68C33.665 27.3599 35.28 25.745 35.28 23.7599V19.4399ZM7.19997 25.9199H4.31997C3.12909 25.9199 2.15997 24.9508 2.15997 23.7599V19.4399C2.15997 18.2491 3.12909 17.2799 4.31997 17.2799H7.19997V25.9199ZM33.84 23.7599C33.84 24.9508 32.8709 25.9199 31.68 25.9199H28.8V17.2799H31.68C32.8709 17.2799 33.84 18.2491 33.84 19.4399V23.7599Z" fill="white"/>
</g>
</svg>
