<svg width="35" height="35" viewBox="0 0 35 35" fill="none" xmlns="http://www.w3.org/2000/svg">
<g id="2023_02_14.14_16_59_3625 1">
<path id="Vector" d="M28.81 30.7601C28.71 30.5201 28.54 30.3001 28.35 30.1501C26.91 29.0001 25.69 27.4501 24.61 25.4201C23.58 23.4701 22.77 21.3001 22.06 18.5801C22.02 18.4201 22.04 18.3101 22.14 18.1701C22.88 17.1101 23.6 16.0501 24.29 15.0201C24.42 14.8201 24.51 14.5801 24.52 14.3701C24.56 13.7901 24.21 13.2501 23.67 13.0601C23.52 13.0101 23.36 12.9801 23.21 12.9801C22.8 12.9801 22.42 13.1701 22.16 13.5201C21.93 13.8301 21.71 14.1401 21.49 14.4501C21.41 14.5601 21.33 14.6801 21.25 14.7901L20.87 12.1001C20.87 12.1001 20.78 11.4601 20.75 11.2401C20.91 11.2401 21.66 11.2401 21.88 11.2401C22.16 11.2401 22.44 11.2401 22.72 11.2401H22.75C22.88 11.2401 23 11.2401 23.13 11.2401H23.15C23.61 11.2401 23.95 11.0901 24.17 10.7801C24.31 10.6001 24.39 10.3901 24.41 10.1601C24.44 9.81007 24.3 9.47007 23.99 9.16007C23.43 8.60007 22.88 8.05007 22.32 7.49007C21.47 6.64007 20.61 5.78007 19.76 4.93007C19.39 4.55007 19.04 4.20007 18.7 3.87007C18.7 3.87007 18.4 3.57007 18.33 3.50007C18.21 3.38007 18.07 3.30007 17.94 3.21007C17.88 3.17007 17.82 3.14007 17.77 3.10007L17.72 3.07007H17.13L17.08 3.10007C17.03 3.14007 16.97 3.17007 16.91 3.21007C16.77 3.29007 16.63 3.38007 16.52 3.50007C16.45 3.57007 16.13 3.89007 16.13 3.89007C15.79 4.22007 15.45 4.56007 15.09 4.93007C14.28 5.74007 13.46 6.55007 12.65 7.37007C12.05 7.97007 11.45 8.57007 10.85 9.17007C10.54 9.48007 10.4 9.82007 10.43 10.1801C10.44 10.4001 10.52 10.6201 10.66 10.7901C10.88 11.1001 11.23 11.2501 11.69 11.2501H11.71C11.83 11.2501 11.95 11.2501 12.07 11.2501H12.11C12.37 11.2501 12.64 11.2501 12.91 11.2501C13.13 11.2501 14.08 11.2501 14.08 11.2501L13.58 14.8101C13.51 14.7101 13.44 14.6001 13.37 14.5001C13.15 14.1801 12.93 13.8601 12.7 13.5401C12.44 13.1901 12.05 12.9801 11.62 12.9801C11.35 12.9801 11.09 13.0601 10.87 13.2201C10.24 13.6501 10.12 14.4601 10.59 15.1401C10.91 15.6001 11.23 16.0701 11.55 16.5301C11.94 17.0901 12.34 17.6801 12.74 18.2501C12.79 18.3201 12.81 18.4101 12.8 18.4401C12.67 18.8501 12.55 19.2701 12.42 19.6801C12.09 20.7901 11.74 21.9301 11.33 23.0301C10.19 26.0401 8.66 28.3201 6.66 30.0201C6.5 30.1601 6.36 30.3601 6.24 30.6201C6.12 30.8701 6.11 31.1301 6.21 31.3501C6.31 31.5701 6.51 31.7301 6.77 31.8101C6.99 31.8801 7.23 31.9101 7.5 31.9201C7.87 31.9201 8.69 31.9201 9.99 31.9201C10.79 31.9201 11.61 31.9201 12.22 31.9201H12.96C13.01 31.9201 13.06 31.9201 13.12 31.9201C13.17 31.9201 13.23 31.9201 13.28 31.9201C13.35 31.9201 13.42 31.9201 13.47 31.9201H18.24C21.4 31.9201 24.56 31.9201 27.72 31.9201C27.92 31.9201 28.11 31.9001 28.29 31.8501C28.54 31.7901 28.74 31.6301 28.84 31.4301C28.94 31.2301 28.94 31.0001 28.84 30.7701L28.81 30.7601ZM20.12 22.3301C20.12 21.4101 20.43 20.5801 21.12 19.6701C21.15 19.7901 21.19 19.9001 21.22 20.0101C22.03 22.8001 22.93 24.9901 24.07 26.9101C24.99 28.4601 26 29.7001 27.15 30.6901H20.12C20.12 30.6901 20.12 28.3401 20.12 27.6201C20.12 25.8801 20.12 24.0901 20.12 22.3201V22.3301ZM7.63 30.7201C7.63 30.7201 7.63 30.7201 7.64 30.7101C9.1 29.4401 10.33 27.7901 11.41 25.6801C12.29 23.9501 13.03 22.0001 13.66 19.7401C13.66 19.7201 13.67 19.7001 13.68 19.6701C14.37 20.5701 14.7 21.5401 14.69 22.6301C14.67 24.5001 14.68 26.4001 14.69 28.2301C14.69 29.0301 14.69 29.8301 14.69 30.6301C14.69 30.6501 14.69 30.6801 14.69 30.7001C14.69 30.7001 13.75 30.7001 13.62 30.7001C13.31 30.7001 13.07 30.7001 12.85 30.7001C12 30.7001 10.63 30.7001 9.53 30.7001C9.53 30.7001 7.81 30.7001 7.64 30.7001L7.63 30.7201ZM11.76 14.3101C12.05 14.7301 12.34 15.1601 12.64 15.5801L13.42 16.7001C13.82 17.2701 14.22 17.8501 14.61 18.4201C15.06 19.0701 15.67 19.4001 16.44 19.4101C16.77 19.4101 17.1 19.4101 17.42 19.4101C17.74 19.4101 18.05 19.4101 18.36 19.4101C19.13 19.4101 19.74 19.0701 20.19 18.4201L20.62 17.8001C21.36 16.7301 22.11 15.6501 22.85 14.5801C22.87 14.5501 22.89 14.5201 22.91 14.4901C22.97 14.4001 23.03 14.3101 23.1 14.2601C23.13 14.2401 23.2 14.2201 23.25 14.2201C23.27 14.2601 23.29 14.3501 23.28 14.3901C23.25 14.4901 23.17 14.6001 23.09 14.7101C23.06 14.7401 23.04 14.7801 23.02 14.8101L22.97 14.8801C21.95 16.3501 20.9 17.8801 19.86 19.3701C19.24 20.2601 18.92 21.2601 18.93 22.3401C18.93 24.3101 18.93 26.3201 18.93 28.2601V30.4301C18.93 30.5001 18.93 30.6601 18.91 30.7001C18.86 30.7201 18.71 30.7201 18.64 30.7201H18.01V28.0801V27.4701C18.01 26.8401 18.01 26.1901 18.01 25.5501V25.5101C18.01 25.3801 18.01 25.2101 17.91 25.0901C17.87 25.0401 17.64 24.7901 17.41 24.7901C17.4 24.7901 17.38 24.7901 17.37 24.7901C17.17 24.8201 17.01 25.0001 16.88 25.1701C16.8 25.2701 16.81 25.4001 16.82 25.5001C16.82 25.5301 16.82 25.5501 16.82 25.5701C16.82 26.9301 16.82 28.2901 16.82 29.6501V30.7101C16.82 30.7101 16.75 30.7101 16.71 30.7101C16.62 30.7101 16.52 30.7101 16.43 30.7101C16.24 30.7101 16.09 30.7101 15.95 30.7001C15.93 30.6801 15.91 30.6401 15.89 30.6101C15.89 30.5901 15.89 30.5301 15.89 30.4901C15.89 30.4601 15.89 30.4301 15.89 30.4001V28.3601C15.89 26.4001 15.89 24.4401 15.89 22.4801C15.89 21.2801 15.56 20.2401 14.89 19.2801C14 18.0201 13.12 16.7201 12.26 15.4701C12.02 15.1201 11.79 14.7801 11.55 14.4301C11.46 14.3001 11.47 14.2501 11.47 14.2501C11.47 14.2401 11.49 14.2201 11.54 14.2001C11.57 14.1901 11.59 14.1801 11.61 14.1801C11.62 14.1801 11.67 14.1801 11.76 14.3101ZM11.71 10.0001L11.84 9.87007C13.17 8.53007 14.51 7.19007 15.84 5.85007C16.08 5.62007 16.31 5.38007 16.54 5.15007C16.67 5.02007 16.8 4.89007 16.93 4.76007C17.15 4.54007 17.32 4.37007 17.39 4.37007C17.46 4.37007 17.64 4.54007 17.86 4.76007C17.99 4.89007 18.11 5.01007 18.24 5.14007C18.47 5.38007 18.72 5.62007 18.96 5.86007C20.3 7.20007 21.63 8.54007 22.97 9.88007L23.09 10.0001C23.09 10.0001 23.11 10.0201 23.12 10.0401C22.68 10.0401 22.24 10.0501 21.87 10.0501H21.21C20.9 10.0501 20.6 10.0501 20.29 10.0501C20.12 10.0501 19.61 10.0501 19.54 10.5401C19.52 10.6401 19.52 10.7601 19.54 10.9001C19.59 11.2501 19.64 11.6001 19.68 11.9501L19.7 12.1101C19.74 12.3901 19.78 12.6701 19.82 12.9501C19.96 13.9501 20.11 14.9801 20.25 15.9901C20.26 16.1001 20.23 16.2401 20.18 16.3301C19.99 16.6201 19.79 16.9101 19.6 17.1901C19.47 17.3701 19.34 17.5601 19.22 17.7501C19.01 18.0601 18.73 18.2101 18.36 18.2101C18.19 18.2101 18.01 18.2101 17.84 18.2101C17.63 18.2101 17.43 18.2101 17.22 18.2101C17.01 18.2101 16.81 18.2101 16.6 18.2101H16.47C16.09 18.2101 15.81 18.0501 15.58 17.7101C15.54 17.6401 15.49 17.5801 15.45 17.5101C15.23 17.1801 15 16.8301 14.75 16.5101C14.58 16.3001 14.54 16.1001 14.6 15.7601C14.84 14.2201 15.05 12.7001 15.3 10.8901C15.32 10.7501 15.32 10.6301 15.3 10.5301C15.22 10.0401 14.73 10.0401 14.55 10.0401H14.5C14.15 10.0401 13.8 10.0401 13.45 10.0401H12.96C12.57 10.0401 12.14 10.0401 11.72 10.0301C11.72 10.0101 11.74 10.0001 11.75 9.99007L11.71 10.0001Z" fill="#152031"/>
<path id="Vector_2" d="M17.4 17.83C18.51 17.83 19.43 16.92 19.44 15.81C19.44 15.27 19.24 14.76 18.85 14.38C18.46 13.99 17.95 13.78 17.41 13.77H17.39C16.28 13.77 15.37 14.68 15.36 15.8C15.36 16.34 15.57 16.85 15.95 17.24C16.33 17.63 16.84 17.84 17.39 17.84L17.4 17.83ZM17.4 14.8C17.67 14.8 17.92 14.91 18.11 15.1C18.3 15.29 18.41 15.54 18.4 15.8C18.4 16.35 17.95 16.8 17.39 16.8C17.12 16.8 16.87 16.7 16.68 16.51C16.49 16.32 16.39 16.07 16.39 15.8C16.39 15.25 16.84 14.8 17.39 14.8H17.4Z" fill="#152031"/>
</g>
</svg>
