<svg width="35" height="35" viewBox="0 0 35 35" fill="none" xmlns="http://www.w3.org/2000/svg">
<g id="2023_02_14.14_17_10_2884 1">
<path id="Vector" d="M32.5 31.1699C32.32 31.4999 32.03 31.5899 31.67 31.5899C22.23 31.5899 12.79 31.5899 3.35 31.5899C2.68 31.5899 2.51 31.4199 2.51 30.7299C2.51 29.8099 2.49 28.8899 2.86 28.0199C3.68 26.0899 5.13 24.9699 7.18 24.6099C7.26 24.5999 7.33 24.5899 7.41 24.5699C7.43 24.5699 7.44 24.5499 7.47 24.5199C6.52 24.3599 5.74 23.9199 5.16 23.1599C4.59 22.3999 4.33 21.5399 4.47 20.5999C4.75 18.7199 6.26 17.4499 8.1 17.5199C9.85 17.5799 11.32 18.9999 11.45 20.7599C11.58 22.4599 10.46 24.1799 8.43 24.5499C9.74 24.7299 10.9 25.2199 11.89 26.1599C12.52 25.3799 13.25 24.7299 14.12 24.2499C14.99 23.7699 15.93 23.5099 16.91 23.3899C13.75 22.8699 12.47 19.9599 12.87 17.8499C13.3 15.6099 15.3 13.9499 17.58 13.9999C19.94 14.0499 21.85 15.7999 22.14 18.2199C22.4 20.3999 20.93 22.9299 18.05 23.3899C20.1 23.6099 21.77 24.5299 23.07 26.1699C24.05 25.2399 25.21 24.7299 26.53 24.5599C24.26 24.1099 23.34 22.1899 23.53 20.6599C23.77 18.8099 25.26 17.4999 27.06 17.5199C28.85 17.5399 30.34 18.8999 30.52 20.7099C30.68 22.3399 29.65 24.1499 27.44 24.5499C27.76 24.6099 28.01 24.6399 28.25 24.7099C30.56 25.3499 32 26.8099 32.43 29.2099C32.43 29.2499 32.46 29.2799 32.48 29.3099V31.1899L32.5 31.1699ZM23.38 30.3899C23.25 28.0699 22.27 26.2799 20.22 25.2199C18.04 24.0899 15.89 24.2999 13.92 25.7799C12.41 26.9199 11.7 28.4899 11.64 30.3899H23.37H23.38ZM17.52 15.1499C15.58 15.1499 14 16.7299 14 18.6699C14 20.5999 15.57 22.1799 17.49 22.1899C19.43 22.1999 21.02 20.6199 21.03 18.6899C21.03 16.7499 19.46 15.1599 17.52 15.1499ZM3.7 30.3899H10.44C10.51 29.8499 10.55 29.3199 10.67 28.8099C10.79 28.2999 11.02 27.8199 11.18 27.3199C11.21 27.2299 11.15 27.0799 11.09 27.0099C9.89 25.7499 7.82 25.3599 6.22 26.0799C4.49 26.8599 3.54 28.4699 3.69 30.3899H3.7ZM31.37 30.3899C31.32 29.8899 31.33 29.4099 31.21 28.9599C30.81 27.3599 29.77 26.3199 28.19 25.8799C26.57 25.4299 25.13 25.8599 23.9 26.9999C23.77 27.1199 23.77 27.2199 23.83 27.3799C24.05 28.0299 24.26 28.6899 24.43 29.3599C24.52 29.6899 24.51 30.0499 24.55 30.3899H31.37ZM10.3 21.0199C10.3 19.7499 9.26 18.6899 7.98 18.6699C6.71 18.6499 5.62 19.7299 5.62 21.0099C5.62 22.2799 6.66 23.3399 7.94 23.3599C9.21 23.3799 10.3 22.2999 10.3 21.0199ZM27.05 23.3599C28.32 23.3599 29.38 22.3099 29.4 21.0299C29.42 19.7499 28.35 18.6699 27.06 18.6599C25.79 18.6599 24.73 19.7099 24.71 20.9899C24.69 22.2699 25.76 23.3499 27.05 23.3599Z" fill="#152031"/>
<path id="Vector_2" d="M20.6 11.7799C20.61 12.2899 20.15 12.5599 19.69 12.3199C19.03 11.9799 18.37 11.6399 17.72 11.2799C17.55 11.1899 17.41 11.1899 17.24 11.2799C16.62 11.6199 15.98 11.9399 15.35 12.2799C15.1 12.4099 14.86 12.4799 14.61 12.2999C14.36 12.1199 14.34 11.8699 14.39 11.5899C14.52 10.8699 14.63 10.1399 14.76 9.4199C14.79 9.2499 14.75 9.1499 14.63 9.0399C14.1 8.5299 13.58 8.0099 13.05 7.5099C12.84 7.3099 12.72 7.0899 12.82 6.7999C12.92 6.5099 13.16 6.4299 13.44 6.3899C14.15 6.2999 14.85 6.1899 15.55 6.0899C15.73 6.0699 15.84 5.9999 15.92 5.8199C16.23 5.1599 16.56 4.4999 16.88 3.8399C17 3.5799 17.17 3.3999 17.48 3.3999C17.77 3.3999 17.93 3.5899 18.05 3.8399C18.37 4.4999 18.7 5.1499 19.01 5.8199C19.09 5.9899 19.2 6.0699 19.38 6.0899C20.09 6.1899 20.79 6.2899 21.49 6.3899C21.77 6.4299 22.01 6.5099 22.11 6.7999C22.22 7.0999 22.07 7.3199 21.86 7.5299C21.36 8.0099 20.88 8.5099 20.37 8.9799C20.19 9.1499 20.15 9.3199 20.2 9.5499C20.33 10.2599 20.45 10.9699 20.57 11.6899C20.57 11.7299 20.58 11.7699 20.58 11.7799H20.6ZM17.48 5.3399C17.23 5.8499 17.01 6.3099 16.78 6.7699C16.67 7.0099 16.49 7.1499 16.22 7.1799C15.71 7.2499 15.21 7.3299 14.71 7.4099C15.01 7.7299 15.28 8.0699 15.6 8.3399C15.96 8.6499 16.06 8.9999 15.95 9.4599C15.85 9.8699 15.8 10.2899 15.73 10.7499C16.04 10.5899 16.3 10.4499 16.56 10.3199C17.59 9.7799 17.37 9.7799 18.39 10.3199C18.65 10.4599 18.91 10.5899 19.23 10.7599C19.15 10.2599 19.1 9.8199 19 9.3999C18.9 8.9799 19 8.6699 19.33 8.3899C19.66 8.0899 19.94 7.7499 20.25 7.4199C19.78 7.3499 19.29 7.2699 18.8 7.2099C18.48 7.1699 18.29 7.0099 18.16 6.7299C17.95 6.2799 17.73 5.8399 17.49 5.3499L17.48 5.3399Z" fill="#152031"/>
<path id="Vector_3" d="M5.12999 14.7199C5.18999 14.3299 5.24999 13.8799 5.35999 13.4299C5.42999 13.1299 5.35999 12.9399 5.13999 12.7399C4.83999 12.4799 4.56999 12.1799 4.27999 11.9099C4.06999 11.7099 3.95999 11.4899 4.04999 11.1999C4.13999 10.9199 4.36999 10.8299 4.63999 10.7999C5.07999 10.7399 5.52999 10.6699 5.96999 10.6099C6.14999 10.5899 6.25999 10.5099 6.33999 10.3399C6.52999 9.91994 6.73999 9.51994 6.93999 9.09994C7.04999 8.85994 7.21999 8.69994 7.49999 8.68994C7.78999 8.68994 7.95999 8.84994 8.07999 9.09994C8.27999 9.50994 8.48999 9.91994 8.67999 10.3399C8.75999 10.5199 8.86999 10.5899 9.04999 10.6099C9.48999 10.6699 9.93999 10.7399 10.38 10.7999C10.65 10.8399 10.87 10.9399 10.97 11.2099C11.07 11.4899 10.96 11.6999 10.76 11.8899C10.42 12.2199 10.07 12.5499 9.73999 12.8999C9.66999 12.9799 9.61999 13.1199 9.63999 13.2299C9.70999 13.6999 9.78999 14.1699 9.87999 14.6499C9.92999 14.9099 9.87999 15.1399 9.66999 15.3099C9.44999 15.4799 9.21999 15.4599 8.97999 15.3299C8.54999 15.0999 8.11999 14.8699 7.67999 14.6499C7.58999 14.5999 7.42999 14.5999 7.33999 14.6499C6.87999 14.8699 6.44999 15.1299 5.98999 15.3499C5.53999 15.5699 5.11999 15.2799 5.12999 14.7299V14.7199ZM8.45999 13.7699C8.47999 13.7199 9.08999 11.8099 9.10999 11.7699C8.24999 11.8699 7.73999 11.4599 7.54999 10.6199C7.32999 10.9799 7.19999 11.3599 6.92999 11.5599C6.65999 11.7499 6.25999 11.7599 5.83999 11.8599C6.60999 12.2999 6.78999 12.9399 6.49999 13.7699C7.18999 13.2099 7.83999 13.2099 8.46999 13.7699H8.45999Z" fill="#152031"/>
<path id="Vector_4" d="M25.04 14.7099C25.11 14.3099 25.19 13.8299 25.28 13.3499C25.32 13.1299 25.29 12.9699 25.11 12.8099C24.78 12.5199 24.48 12.1999 24.16 11.8899C23.96 11.6999 23.86 11.4799 23.95 11.1999C24.04 10.9199 24.27 10.8299 24.54 10.7899C24.98 10.7299 25.43 10.6599 25.87 10.5999C26.05 10.5799 26.16 10.5099 26.24 10.3299C26.43 9.89993 26.65 9.48993 26.86 9.06993C26.98 8.82993 27.16 8.67993 27.43 8.67993C27.69 8.67993 27.86 8.83993 27.97 9.05993C28.18 9.47993 28.39 9.89993 28.58 10.3199C28.66 10.4899 28.76 10.5699 28.95 10.5899C29.4 10.6399 29.84 10.7199 30.28 10.7799C30.56 10.8199 30.79 10.9299 30.88 11.2099C30.97 11.4899 30.84 11.6999 30.65 11.8899C30.32 12.2099 29.98 12.5199 29.67 12.8599C29.59 12.9499 29.53 13.1099 29.55 13.2299C29.61 13.6899 29.7 14.1599 29.78 14.6199C29.83 14.8799 29.78 15.1099 29.57 15.2799C29.34 15.4599 29.1 15.4299 28.86 15.2999C28.47 15.0899 28.08 14.8999 27.7 14.6799C27.49 14.5499 27.32 14.5699 27.12 14.6799C26.72 14.9099 26.32 15.1199 25.9 15.3199C25.45 15.5399 25.02 15.2599 25.04 14.6899V14.7099ZM26.39 13.7599C27.08 13.1999 27.74 13.1899 28.43 13.7599C28.11 12.9199 28.32 12.2999 29.06 11.8099C28.18 11.8399 27.63 11.4799 27.42 10.5999C27.18 11.4399 26.66 11.8699 25.75 11.8199C26.54 12.2999 26.69 12.9399 26.39 13.7699V13.7599Z" fill="#152031"/>
<path id="Vector_5" d="M19.82 26.3999C19.88 26.4299 20.02 26.4599 20.13 26.5399C20.8 26.9999 21.32 27.5899 21.69 28.3199C21.86 28.6599 21.78 28.9999 21.48 29.1599C21.19 29.3199 20.86 29.2399 20.68 28.9099C20.36 28.3199 19.94 27.8399 19.41 27.4499C19.18 27.2799 19.11 27.0399 19.21 26.7699C19.3 26.5299 19.49 26.3999 19.82 26.3999Z" fill="#152031"/>
<path id="Vector_6" d="M18.08 26.29C18.08 26.6 17.82 26.88 17.51 26.88C17.2 26.88 16.93 26.62 16.92 26.31C16.92 26 17.18 25.72 17.49 25.72C17.8 25.72 18.07 25.98 18.08 26.29Z" fill="#152031"/>
</g>
</svg>
