<svg width="24" height="24" viewBox="0 0 24 24" fill="none" xmlns="http://www.w3.org/2000/svg">
<g id="Email" clip-path="url(#clip0_193_309)">
<path id="Vector" d="M21.12 5.52002H2.88002C2.61602 5.52002 2.40002 5.73602 2.40002 6.00002V18C2.40002 18.264 2.61602 18.48 2.88002 18.48H21.12C21.384 18.48 21.6 18.264 21.6 18V6.00002C21.6 5.73602 21.384 5.52002 21.12 5.52002ZM19.968 6.48002L12 14.448L4.03202 6.48002H19.968ZM3.36002 7.15202L8.20802 12L3.36002 16.848V7.15202ZM4.05602 17.52L8.88002 12.696L11.664 15.48C11.856 15.672 12.144 15.672 12.336 15.48L15.12 12.696L19.944 17.52H4.05602ZM20.64 16.848L15.792 12L20.64 7.15202V16.848Z" fill="white"/>
<path id="Vector_2" d="M192.96 -122.4V281.76H-235.2V-122.4H192.96ZM194.88 -124.32H-237.12V283.68H194.88V-124.32Z" fill="white"/>
</g>
<defs>
<clipPath id="clip0_193_309">
<rect width="24" height="24" fill="white"/>
</clipPath>
</defs>
</svg>
