<svg width="32" height="32" viewBox="0 0 32 32" fill="none" xmlns="http://www.w3.org/2000/svg">
<g id="Email" clip-path="url(#clip0_159_181)">
<path id="Vector" d="M28.16 7.35999H3.84001C3.48801 7.35999 3.20001 7.64799 3.20001 7.99999V24C3.20001 24.352 3.48801 24.64 3.84001 24.64H28.16C28.512 24.64 28.8 24.352 28.8 24V7.99999C28.8 7.64799 28.512 7.35999 28.16 7.35999ZM26.624 8.63999L16 19.264L5.37601 8.63999H26.624ZM4.48001 9.53599L10.944 16L4.48001 22.464V9.53599ZM5.40801 23.36L11.84 16.928L15.552 20.64C15.808 20.896 16.192 20.896 16.448 20.64L20.16 16.928L26.592 23.36H5.40801ZM27.52 22.464L21.056 16L27.52 9.53599V22.464Z" fill="#152031"/>
<path id="Vector_2" d="M257.28 -163.2V375.68H-313.6V-163.2H257.28ZM259.84 -165.76H-316.16V378.24H259.84V-165.76Z" fill="#152031"/>
</g>
<defs>
<clipPath id="clip0_159_181">
<rect width="32" height="32" fill="white"/>
</clipPath>
</defs>
</svg>
