<svg width="32" height="32" viewBox="0 0 32 32" fill="none" xmlns="http://www.w3.org/2000/svg">
<g id="Email" clip-path="url(#clip0_52_387)">
<path id="Vector" d="M28.16 7.36011H3.83995C3.48795 7.36011 3.19995 7.64811 3.19995 8.00011V24.0001C3.19995 24.3521 3.48795 24.6401 3.83995 24.6401H28.16C28.512 24.6401 28.7999 24.3521 28.7999 24.0001V8.00011C28.7999 7.64811 28.512 7.36011 28.16 7.36011ZM26.6239 8.64011L16 19.2641L5.37595 8.64011H26.6239ZM4.47995 9.53611L10.944 16.0001L4.47995 22.4641V9.53611ZM5.40795 23.3601L11.84 16.9281L15.552 20.6401C15.808 20.8961 16.192 20.8961 16.448 20.6401L20.16 16.9281L26.5919 23.3601H5.40795ZM27.52 22.4641L21.056 16.0001L27.52 9.53611V22.4641Z" fill="#152031"/>
<path id="Vector_2" d="M257.28 -163.2V375.68H-313.6V-163.2H257.28ZM259.84 -165.76H-316.16V378.24H259.84V-165.76Z" fill="#152031"/>
</g>
<defs>
<clipPath id="clip0_52_387">
<rect width="32" height="32" fill="white"/>
</clipPath>
</defs>
</svg>
