<svg width="52" height="52" viewBox="0 0 52 52" fill="none" xmlns="http://www.w3.org/2000/svg">
<g id="Feedback" clip-path="url(#clip0_412_651)">
<path id="Vector" fill-rule="evenodd" clip-rule="evenodd" d="M26 0C11.6469 0 0 11.6469 0 26C0 40.3531 11.6469 52 26 52C40.3531 52 52 40.3531 52 26C52 11.6469 40.3531 0 26 0ZM26 1.08333C39.767 1.08333 50.9167 12.2319 50.9167 26C50.9167 39.7681 39.767 50.9167 26 50.9167C12.233 50.9167 1.08333 39.7681 1.08333 26C1.08333 12.2319 12.233 1.08333 26 1.08333ZM30.862 11.921C28.4173 11.9938 26.0732 12.911 24.2282 14.5166C22.3832 16.1223 21.1512 18.3172 20.7415 20.7285C20.5638 20.6982 20.3862 20.6635 20.2063 20.6418C18.0852 20.391 15.944 20.9029 14.1657 22.0859C12.4151 23.2502 11.1264 24.9897 10.5225 27.0034C9.91857 29.0172 10.0373 31.1788 10.8583 33.1143L9.763 38.3468C9.74374 38.4383 9.74853 38.5333 9.77689 38.6225C9.80526 38.7116 9.85623 38.7919 9.92485 38.8555C9.99347 38.9191 10.0774 38.9639 10.1685 38.9854C10.2595 39.0069 10.3546 39.0045 10.4444 38.9783L15.0919 37.6372C16.9638 38.5821 19.1064 38.8455 21.1514 38.3821C23.1965 37.9187 25.0162 36.7574 26.2979 35.0978C26.8979 34.3159 27.365 33.4404 27.6803 32.5065C29.0317 32.983 30.4658 33.18 31.8957 33.0854C33.3255 32.9908 34.7212 32.6066 35.9981 31.9562L41.5599 33.5595C41.6497 33.5858 41.7448 33.5884 41.8359 33.567C41.927 33.5457 42.011 33.501 42.0797 33.4375C42.1485 33.3741 42.1996 33.2938 42.2281 33.2047C42.2566 33.1156 42.2615 33.0206 42.2424 32.929L40.9294 26.689C41.9053 24.4105 42.0521 21.8622 41.3444 19.4867C40.6367 17.1112 39.1191 15.0587 37.0554 13.6858C35.2247 12.4677 33.0598 11.8515 30.862 11.921ZM30.8967 12.9957V12.9978C32.87 12.9369 34.8133 13.4924 36.4563 14.5871C38.3364 15.8339 39.7122 17.7082 40.3382 19.8755C40.9643 22.0428 40.7998 24.362 39.8743 26.4193C39.8241 26.53 39.8126 26.6544 39.8418 26.7724C39.843 26.7808 39.8444 26.7891 39.8461 26.7973L40.9944 32.2714L36.1758 30.8793C36.1548 30.873 36.1334 30.8679 36.1118 30.8642C36.0537 30.8458 35.9929 30.8374 35.932 30.8393C35.8468 30.8414 35.7633 30.8637 35.6883 30.9043C34.5136 31.533 33.2197 31.9076 31.8908 32.0035C30.5619 32.0994 29.2277 31.9146 27.9749 31.4611C28.4468 29.2149 28.0455 26.8732 26.8526 24.9123H37.3685C37.5122 24.9123 37.6499 24.8553 37.7515 24.7537C37.8531 24.6521 37.9102 24.5143 37.9102 24.3707C37.9102 24.227 37.8531 24.0892 37.7515 23.9877C37.6499 23.8861 37.5122 23.829 37.3685 23.829H26.0758C25.9686 23.7001 25.8657 23.569 25.7508 23.4466C24.673 22.2908 23.3095 21.4396 21.7978 20.9788C22.151 18.7985 23.2522 16.8091 24.9123 15.3522C26.5724 13.8953 28.6879 13.0618 30.8956 12.9946L30.8967 12.9957ZM25.4139 17.3312C25.2703 17.3384 25.1353 17.4023 25.0388 17.509C24.9423 17.6156 24.8922 17.7563 24.8993 17.8999C24.9065 18.0436 24.9705 18.1785 25.0771 18.275C25.1838 18.3715 25.3244 18.4217 25.4681 18.4145H37.3642C37.5078 18.4145 37.6456 18.3574 37.7472 18.2558C37.8488 18.1543 37.9058 18.0165 37.9058 17.8728C37.9058 17.7292 37.8488 17.5914 37.7472 17.4898C37.6456 17.3882 37.5078 17.3312 37.3642 17.3312H25.4692C25.4508 17.3302 25.4323 17.3302 25.4139 17.3312ZM25.4139 20.5812C25.2703 20.5884 25.1353 20.6523 25.0388 20.759C24.9423 20.8656 24.8922 21.0063 24.8993 21.1499C24.9065 21.2936 24.9705 21.4285 25.0771 21.525C25.1838 21.6215 25.3244 21.6717 25.4681 21.6645H37.3642C37.5078 21.6645 37.6456 21.6074 37.7472 21.5058C37.8488 21.4043 37.9058 21.2665 37.9058 21.1228C37.9058 20.9792 37.8488 20.8414 37.7472 20.7398C37.6456 20.6382 37.5078 20.5812 37.3642 20.5812H25.4692C25.4508 20.5802 25.4323 20.5802 25.4139 20.5812ZM19.3982 21.6645C20.4454 21.6965 21.4759 21.9359 22.4301 22.3688C23.3842 22.8017 24.243 23.4195 24.9568 24.1865C26.2393 25.5603 26.9919 27.3453 27.0802 29.2227C27.1685 31.1001 26.5868 32.9478 25.4388 34.4359C24.2921 35.9252 22.6537 36.9587 20.8157 37.3521C18.9778 37.7456 17.0598 37.4734 15.4039 36.5842C15.3387 36.5485 15.2669 36.5267 15.1929 36.52C15.1189 36.5132 15.0444 36.5218 14.9738 36.5452C14.9592 36.5482 14.9448 36.5518 14.9305 36.556L11.0088 37.6881L11.9438 33.2172C11.9438 33.2136 11.9438 33.2099 11.9438 33.2063C11.9773 33.0864 11.9685 32.9587 11.9188 32.8445C11.147 31.1307 11.0095 29.1984 11.5308 27.3925C12.0521 25.5867 13.1983 24.025 14.7648 22.9862C16.1343 22.0748 17.7539 21.6128 19.3982 21.6645ZM14.5806 25.9978C14.4369 26.005 14.302 26.069 14.2055 26.1756C14.109 26.2823 14.0588 26.4229 14.066 26.5666C14.0732 26.7102 14.1371 26.8452 14.2438 26.9417C14.3505 27.0382 14.4911 27.0884 14.6348 27.0812H24.3685C24.5122 27.0812 24.6499 27.0241 24.7515 26.9225C24.8531 26.8209 24.9102 26.6832 24.9102 26.5395C24.9102 26.3958 24.8531 26.2581 24.7515 26.1565C24.6499 26.0549 24.5122 25.9978 24.3685 25.9978H14.6358C14.6174 25.9969 14.599 25.9969 14.5806 25.9978ZM29.5122 27.0812C29.3685 27.0885 29.2336 27.1526 29.1372 27.2594C29.0408 27.3661 28.9908 27.5068 28.9981 27.6505C29.0055 27.7941 29.0695 27.929 29.1763 28.0254C29.2831 28.1218 29.4238 28.1718 29.5674 28.1645H32.1718C32.3154 28.1645 32.4532 28.1074 32.5548 28.0058C32.6563 27.9043 32.7134 27.7665 32.7134 27.6228C32.7134 27.4792 32.6563 27.3414 32.5548 27.2398C32.4532 27.1382 32.3154 27.0812 32.1718 27.0812H29.5674C29.5494 27.0803 29.5302 27.0803 29.5122 27.0812ZM14.5806 29.2478C14.4369 29.255 14.302 29.319 14.2055 29.4256C14.109 29.5323 14.0588 29.6729 14.066 29.8166C14.0732 29.9602 14.1371 30.0952 14.2438 30.1917C14.3505 30.2882 14.4911 30.3384 14.6348 30.3312H24.3685C24.5122 30.3312 24.6499 30.2741 24.7515 30.1725C24.8531 30.0709 24.9102 29.9332 24.9102 29.7895C24.9102 29.6458 24.8531 29.5081 24.7515 29.4065C24.6499 29.3049 24.5122 29.2478 24.3685 29.2478H14.6358C14.6174 29.2469 14.599 29.2469 14.5806 29.2478ZM14.5719 32.4978C14.4283 32.5052 14.2934 32.5693 14.197 32.676C14.1006 32.7828 14.0505 32.9235 14.0579 33.0671C14.0652 33.2108 14.1293 33.3456 14.2361 33.4421C14.3428 33.5385 14.4835 33.5885 14.6272 33.5812H18.9605C19.1042 33.5812 19.2419 33.5241 19.3435 33.4225C19.4451 33.3209 19.5022 33.1832 19.5022 33.0395C19.5022 32.8958 19.4451 32.7581 19.3435 32.6565C19.2419 32.5549 19.1042 32.4978 18.9605 32.4978H14.6272C14.6091 32.4969 14.59 32.4969 14.5719 32.4978Z" fill="url(#paint0_linear_412_651)"/>
</g>
<defs>
<linearGradient id="paint0_linear_412_651" x1="-4.89855" y1="-2.49755e-06" x2="66.4651" y2="15.9571" gradientUnits="userSpaceOnUse">
<stop stop-color="#FF0065"/>
<stop offset="1" stop-color="#179AD7"/>
</linearGradient>
<clipPath id="clip0_412_651">
<rect width="52" height="52" fill="white"/>
</clipPath>
</defs>
</svg>
