<svg width="197" height="186" viewBox="0 0 197 186" fill="none" xmlns="http://www.w3.org/2000/svg">
<path d="M139.045 73.6716L139.047 73.6731L190.166 108.357C190.167 108.357 190.167 108.357 190.167 108.357C192.765 110.126 193.295 113.748 191.298 116.174L188.69 119.34C186.681 121.78 183.001 121.954 180.778 119.709L180.777 119.709L137.207 75.8888C137.207 75.8885 137.207 75.8882 137.206 75.888C136.685 75.3574 136.651 74.5225 137.121 73.952C137.601 73.369 138.437 73.2543 139.045 73.6716Z" stroke="url(#paint0_linear_242_315)"/>
<path d="M126.196 81.5047L126.197 81.508L137.821 142.185L137.821 142.185C138.415 145.279 136.215 148.202 133.092 148.504L129.013 148.899C125.867 149.203 123.147 146.733 123.17 143.57L123.17 143.568L123.342 81.775L123.342 81.775L123.342 81.7628C123.326 81.051 123.888 80.4249 124.641 80.3411C125.392 80.27 126.062 80.7771 126.196 81.5047Z" stroke="url(#paint1_linear_242_315)"/>
<path d="M111.56 77.9659L111.558 77.9681L76.8744 129.088C76.8744 129.088 76.8743 129.088 76.8743 129.088C75.1062 131.687 71.4833 132.217 69.0577 130.219L65.8915 127.612C63.4516 125.602 63.2779 121.923 65.5223 119.699L65.523 119.699L109.342 76.1292C109.342 76.1288 109.343 76.1284 109.343 76.128C109.866 75.6175 110.712 75.5748 111.279 76.0423C111.862 76.5224 111.977 77.3579 111.56 77.9659Z" stroke="url(#paint2_linear_242_315)"/>
<path d="M103.715 65.1305L103.712 65.1311L43.0357 76.7551L43.0355 76.7551C39.9414 77.3492 37.0185 75.1493 36.7163 72.0263L36.3217 67.9477C36.0173 64.8009 38.4868 62.0813 41.65 62.1038L41.6522 62.1038L103.445 62.2758L103.445 62.2759L103.452 62.2758C104.192 62.2682 104.806 62.8191 104.879 63.5717C104.952 64.3238 104.444 64.9959 103.715 65.1305Z" stroke="url(#paint3_linear_242_315)"/>
<path d="M107.256 50.4964L107.256 50.4964L107.254 50.4949L56.134 15.8109C53.535 14.0429 53.0048 10.4198 55.0025 7.99425L57.6101 4.82798C59.6196 2.38806 63.2991 2.21442 65.5224 4.45883L65.523 4.45949L109.093 48.2792C109.094 48.2796 109.094 48.2799 109.094 48.2802C109.615 48.8108 109.649 49.6456 109.179 50.216C108.699 50.799 107.864 50.9137 107.256 50.4964Z" stroke="url(#paint4_linear_242_315)"/>
<defs>
<linearGradient id="paint0_linear_242_315" x1="190.427" y1="128.34" x2="183.082" y2="57.2743" gradientUnits="userSpaceOnUse">
<stop stop-color="#FF0065"/>
<stop offset="1" stop-color="#179AD7"/>
</linearGradient>
<linearGradient id="paint1_linear_242_315" x1="135.372" y1="156.813" x2="89.6205" y2="98.229" gradientUnits="userSpaceOnUse">
<stop stop-color="#FF0065"/>
<stop offset="1" stop-color="#179AD7"/>
</linearGradient>
<linearGradient id="paint2_linear_242_315" x1="74.3935" y1="135.261" x2="57.6142" y2="119.954" gradientUnits="userSpaceOnUse">
<stop stop-color="#FF0065"/>
<stop offset="1" stop-color="#179AD7"/>
</linearGradient>
<linearGradient id="paint3_linear_242_315" x1="76.4495" y1="107.423" x2="30.6074" y2="48.4442" gradientUnits="userSpaceOnUse">
<stop stop-color="#FF0065"/>
<stop offset="1" stop-color="#179AD7"/>
</linearGradient>
<linearGradient id="paint4_linear_242_315" x1="109.744" y1="60.6399" x2="102.398" y2="-10.4258" gradientUnits="userSpaceOnUse">
<stop stop-color="#FF0065"/>
<stop offset="1" stop-color="#179AD7"/>
</linearGradient>
</defs>
</svg>
