<svg width="40" height="40" viewBox="0 0 40 40" fill="none" xmlns="http://www.w3.org/2000/svg">
<g id="Group 47">
<g id="Ellipse 13" filter="url(#filter0_d_193_325)">
<circle cx="20" cy="20" r="16" fill="white"/>
</g>
<path id="Path 18" d="M16.9445 19.9155C16.9445 19.3277 17.1189 18.7531 17.4455 18.2644C17.7721 17.7757 18.2363 17.3948 18.7794 17.1699C19.3225 16.945 19.9201 16.8862 20.4966 17.0009C21.0731 17.1157 21.6026 17.3988 22.0182 17.8145C22.4338 18.2302 22.7168 18.7598 22.8314 19.3363C22.946 19.9129 22.8871 20.5104 22.6621 21.0535C22.4371 21.5965 22.0561 22.0606 21.5673 22.3871C21.0785 22.7136 20.5038 22.8879 19.916 22.8878C19.1278 22.8876 18.372 22.5744 17.8147 22.017C17.2574 21.4596 16.9444 20.7037 16.9445 19.9155ZM15.3376 19.9155C15.3376 20.821 15.6062 21.7062 16.1092 22.4591C16.6123 23.212 17.3274 23.7989 18.1639 24.1454C19.0005 24.4919 19.9211 24.5826 20.8092 24.4059C21.6973 24.2293 22.5131 23.7932 23.1534 23.1529C23.7937 22.5126 24.2297 21.6968 24.4064 20.8087C24.583 19.9206 24.4924 19.0001 24.1458 18.1635C23.7993 17.3269 23.2125 16.6118 22.4596 16.1088C21.7067 15.6057 20.8215 15.3372 19.916 15.3372C19.3148 15.3371 18.7194 15.4555 18.1639 15.6856C17.6084 15.9157 17.1037 16.2529 16.6785 16.6781C16.2534 17.1032 15.9162 17.6079 15.6861 18.1634C15.456 18.7189 15.3376 19.3143 15.3376 19.9155ZM23.6056 15.1558C23.6056 15.3674 23.6682 15.5742 23.7857 15.7502C23.9032 15.9262 24.0702 16.0634 24.2657 16.1445C24.4611 16.2256 24.6762 16.2468 24.8838 16.2057C25.0913 16.1645 25.282 16.0626 25.4317 15.9131C25.5814 15.7635 25.6834 15.5729 25.7248 15.3654C25.7661 15.1579 25.745 14.9428 25.6641 14.7472C25.5833 14.5517 25.4462 14.3846 25.2703 14.2669C25.0944 14.1493 24.8876 14.0864 24.676 14.0864C24.3924 14.0865 24.1204 14.1992 23.9198 14.3997C23.7192 14.6002 23.6064 14.8721 23.6061 15.1558M16.3144 27.1732C15.749 27.167 15.1889 27.0635 14.6586 26.8673C14.274 26.7191 13.9247 26.492 13.6333 26.2006C13.3418 25.9092 13.1145 25.56 12.9661 25.1755C12.7698 24.6453 12.6664 24.0852 12.6602 23.5198C12.6169 22.58 12.6085 22.2976 12.6085 19.9167C12.6085 17.5358 12.6179 17.2541 12.6602 16.3134C12.6671 15.7481 12.7705 15.1881 12.9661 14.6576C13.1143 14.273 13.3415 13.9236 13.633 13.6321C13.9245 13.3406 14.2739 13.1134 14.6586 12.9652C15.1888 12.7689 15.749 12.6654 16.3144 12.6593C17.2541 12.616 17.5365 12.6075 19.9165 12.6075C22.2965 12.6075 22.5791 12.6167 23.5198 12.6595C24.0851 12.6664 24.6451 12.7698 25.1755 12.9654C25.5602 13.1136 25.9096 13.3408 26.2011 13.6323C26.4926 13.9238 26.7198 14.2732 26.868 14.6579C27.0643 15.1881 27.1677 15.7483 27.1739 16.3136C27.2172 17.2548 27.2256 17.5358 27.2256 19.9169C27.2256 22.2981 27.2169 22.5795 27.1739 23.5202C27.1673 24.0856 27.0638 24.6456 26.868 25.176C26.7196 25.5605 26.4924 25.9097 26.2009 26.2011C25.9094 26.4924 25.5601 26.7195 25.1755 26.8678C24.6453 27.064 24.0852 27.1675 23.5198 27.1736C22.58 27.2169 22.2976 27.2254 19.9165 27.2254C17.5353 27.2254 17.2539 27.2167 16.3144 27.1736M16.2405 11.0539C15.5007 11.0684 14.7687 11.2085 14.0758 11.468C13.4834 11.697 12.9455 12.0473 12.4964 12.4964C12.0473 12.9455 11.697 13.4834 11.468 14.0758C11.2085 14.7687 11.0685 15.5007 11.0539 16.2405C11.0099 17.1911 11 17.4951 11 19.9165C11 22.3379 11.0101 22.6416 11.0539 23.5925C11.0685 24.3323 11.2085 25.0642 11.468 25.7572C11.697 26.3495 12.0473 26.8875 12.4964 27.3365C12.9455 27.7856 13.4834 28.1359 14.0758 28.3649C14.7687 28.6244 15.5007 28.7644 16.2405 28.7791C17.1915 28.8224 17.4951 28.8329 19.9165 28.8329C22.3379 28.8329 22.6416 28.8228 23.5925 28.7791C24.3323 28.7645 25.0642 28.6244 25.7572 28.3649C26.3495 28.1359 26.8875 27.7856 27.3365 27.3365C27.7856 26.8875 28.1359 26.3495 28.3649 25.7572C28.6248 25.0643 28.7648 24.3323 28.7791 23.5925C28.8224 22.6412 28.8322 22.3379 28.8322 19.9165C28.8322 17.4951 28.8221 17.1913 28.7791 16.2405C28.7645 15.5007 28.6245 14.7687 28.3649 14.0758C28.1359 13.4835 27.7857 12.9456 27.3368 12.4966C26.8878 12.0475 26.3501 11.6972 25.7579 11.468C25.065 11.2083 24.333 11.0683 23.5932 11.0539C22.6424 11.0104 22.3386 11 19.9176 11C17.4967 11 17.1922 11.0101 16.2409 11.0539" fill="#152031"/>
</g>
<defs>
<filter id="filter0_d_193_325" x="0" y="0" width="40" height="40" filterUnits="userSpaceOnUse" color-interpolation-filters="sRGB">
<feFlood flood-opacity="0" result="BackgroundImageFix"/>
<feColorMatrix in="SourceAlpha" type="matrix" values="0 0 0 0 0 0 0 0 0 0 0 0 0 0 0 0 0 0 127 0" result="hardAlpha"/>
<feOffset/>
<feGaussianBlur stdDeviation="2"/>
<feComposite in2="hardAlpha" operator="out"/>
<feColorMatrix type="matrix" values="0 0 0 0 0 0 0 0 0 0 0 0 0 0 0 0 0 0 0.25 0"/>
<feBlend mode="normal" in2="BackgroundImageFix" result="effect1_dropShadow_193_325"/>
<feBlend mode="normal" in="SourceGraphic" in2="effect1_dropShadow_193_325" result="shape"/>
</filter>
</defs>
</svg>
