<svg width="58" height="89" viewBox="0 0 58 89" fill="none" xmlns="http://www.w3.org/2000/svg">
<g id="Group">
<g id="Group_2">
<g id="Group_3">
<path id="Vector" d="M13.5183 71.4571C13.4034 69.2884 13.2643 66.6823 13.2885 64.7434H13.22C12.6899 66.5654 12.0429 68.5044 11.2588 70.6489L8.51366 78.1931H6.99193L4.47652 70.788C3.73883 68.5971 3.11603 66.5896 2.67664 64.7434H2.63028C2.58393 66.6803 2.46904 69.2884 2.32997 71.6184L1.91477 78.2858H0L1.08436 62.7379H3.64612L6.29858 70.2579C6.94557 72.1727 7.47566 73.8798 7.86667 75.4943H7.9352C8.32823 73.9262 8.88049 72.219 9.57384 70.2579L12.3412 62.7379H14.9029L15.8724 78.2858H13.9113L13.5183 71.4571Z" fill="#152031"/>
<path id="Vector_2" d="M27.0123 70.9956H20.9677V76.6008H27.7037V78.2858H18.9602V62.7379H27.357V64.4229H20.9677V69.3368H27.0123V70.9956Z" fill="#152031"/>
<path id="Vector_3" d="M42.1451 77.5924C41.2461 77.9149 39.4684 78.445 37.3702 78.445C35.0161 78.445 33.0791 77.8444 31.5574 76.3912C30.2191 75.0992 29.3887 73.0232 29.3887 70.6005C29.4129 65.9648 32.5954 62.5726 37.8096 62.5726C39.6095 62.5726 41.0163 62.9656 41.6855 63.2881L41.2018 64.9268C40.3714 64.5579 39.3334 64.2576 37.7653 64.2576C33.9821 64.2576 31.5131 66.6097 31.5131 70.5098C31.5131 74.4542 33.8894 76.7842 37.5113 76.7842C38.8255 76.7842 39.7264 76.5988 40.188 76.369V71.7312H37.0276V70.1168H42.1491V77.5924H42.1451Z" fill="#152031"/>
<path id="Vector_4" d="M47.7281 73.3941L46.1137 78.2838H44.0377L49.3204 62.7359H51.7431L57.05 78.2838H54.9055L53.2447 73.3941H47.7281ZM52.8254 71.826L51.3037 67.3515C50.957 66.3356 50.7272 65.4145 50.4955 64.5136H50.4491C50.2193 65.4367 49.9654 66.382 49.6651 67.3273L48.1433 71.826H52.8254Z" fill="#152031"/>
</g>
</g>
<g id="Group_4">
<g id="Group_5">
<path id="Vector_5" d="M7.32248 83.0304C7.66512 82.9739 8.11459 82.9235 8.687 82.9235C9.38841 82.9235 9.90439 83.0868 10.2309 83.3811C10.5332 83.6431 10.7126 84.0422 10.7126 84.5319C10.7126 85.0298 10.5655 85.4228 10.2873 85.709C9.91044 86.1101 9.29973 86.3137 8.60437 86.3137C8.39273 86.3137 8.19521 86.3056 8.03195 86.2653V88.4703H7.32047V83.0304H7.32248ZM8.03195 85.6848C8.18715 85.7251 8.38265 85.7413 8.62049 85.7413C9.47709 85.7413 10.0011 85.324 10.0011 84.5642C10.0011 83.8366 9.48717 83.4859 8.70313 83.4859C8.39273 83.4859 8.15692 83.51 8.03397 83.5423V85.6848H8.03195Z" fill="#152031"/>
<path id="Vector_6" d="M20.4578 85.6606C20.4578 87.5553 19.3069 88.561 17.9001 88.561C16.4469 88.561 15.425 87.4343 15.425 85.7675C15.425 84.02 16.5114 82.8752 17.9827 82.8752C19.4843 82.8752 20.4578 84.026 20.4578 85.6606ZM16.1848 85.7493C16.1848 86.9264 16.8218 87.9785 17.9404 87.9785C19.0671 87.9785 19.704 86.9405 19.704 85.6909C19.704 84.5964 19.1316 83.4536 17.9484 83.4536C16.7734 83.4536 16.1848 84.54 16.1848 85.7493Z" fill="#152031"/>
<path id="Vector_7" d="M26.3633 88.4703L24.9666 82.9638H25.7184L26.3714 85.7493C26.5346 86.4346 26.6818 87.1219 26.7805 87.652H26.7967C26.8874 87.1038 27.0587 86.4507 27.2461 85.7413L27.9818 82.9638H28.7255L29.3947 85.7574C29.5499 86.4104 29.697 87.0635 29.7777 87.6439H29.7938C29.9087 87.0393 30.0639 86.4265 30.2352 85.7413L30.9628 82.9638H31.6904L30.1304 88.4703H29.3866L28.6913 85.6022C28.52 84.9008 28.4051 84.3606 28.3325 83.8043H28.3164C28.2176 84.3526 28.0947 84.8907 27.8911 85.6022L27.1071 88.4703H26.3633Z" fill="#152031"/>
<path id="Vector_8" d="M39.3112 85.8884H37.1707V87.8737H39.5551V88.4703H36.4592V82.9638H39.4321V83.5604H37.1687V85.2999H39.3092V85.8884H39.3112Z" fill="#152031"/>
<path id="Vector_9" d="M44.5637 83.0384C44.9225 82.9638 45.4385 82.9235 45.9282 82.9235C46.6881 82.9235 47.1779 83.0626 47.5205 83.373C47.7987 83.6189 47.9539 83.9938 47.9539 84.4191C47.9539 85.1467 47.4963 85.6284 46.9159 85.8239V85.8481C47.3411 85.9952 47.5931 86.3862 47.7241 86.9586C47.9035 87.7266 48.0345 88.2567 48.1494 88.4703H47.4137C47.323 88.3151 47.2021 87.8415 47.0469 87.1562C46.8836 86.3963 46.5893 86.1101 45.9444 86.0859H45.2752V88.4703H44.5637V83.0384ZM45.2752 85.5457H46.0028C46.7627 85.5457 47.2444 85.1285 47.2444 84.4997C47.2444 83.7882 46.7304 83.4778 45.9786 83.4697C45.636 83.4697 45.3901 83.502 45.2752 83.5342V85.5457Z" fill="#152031"/>
</g>
</g>
<g id="Group_6">
<g id="Group_7">
<g id="Group_8">
<g id="Group_9">
<path id="Vector_10" d="M31.4385 58.2996L27.5042 58.1384C25.4322 58.0538 23.5416 56.9452 22.4593 55.1796C21.2741 53.2527 19.8028 50.8683 19.1276 49.8364C17.5937 47.4963 16.1385 45.114 14.8002 42.6651C14.2419 41.6371 13.6997 40.6011 13.1878 39.549C13.1817 39.541 13.1797 39.5309 13.1757 39.5228C12.5811 38.3135 12.0208 37.086 11.5007 35.8384C11.4927 35.8162 11.4826 35.7941 11.4725 35.7719C11.4221 35.655 11.3798 35.5562 11.3476 35.4796C10.9142 34.4275 10.5555 33.3351 10.2934 32.2286C10.0677 31.2772 10.5494 30.6323 11.535 30.6061C12.7685 30.5758 14.0101 30.6806 15.2396 30.8096C15.552 30.8419 15.8644 30.8862 16.1768 30.9346C16.3219 30.9568 16.4671 30.9809 16.6122 31.0051C16.8258 31.0414 17.0415 31.0797 17.2592 31.118C17.6401 31.1845 18.0231 31.2551 18.4141 31.3196C18.4221 31.3216 18.4322 31.3236 18.4443 31.3256C18.4624 31.3296 18.4846 31.3317 18.5027 31.3357C18.5048 31.3377 18.5088 31.3377 18.5088 31.3377C18.4342 31.1563 18.3778 31.0092 18.3133 30.864C18.2427 30.6988 18.1722 30.5355 18.1017 30.3682C18.0553 30.2594 18.0089 30.1505 17.9626 30.0417C17.9565 30.0296 17.9565 30.0236 17.9565 30.0236C17.8417 29.7555 17.7268 29.4834 17.6159 29.2153C17.6139 29.2113 17.6139 29.2093 17.6119 29.2053C17.3297 28.53 17.0576 27.8508 16.7976 27.1675C16.2655 25.7687 15.7999 24.3478 15.4593 22.8845C15.3222 22.2919 15.2456 21.6732 15.2275 21.0645C15.2033 20.2663 15.5984 19.8531 16.4046 19.8834C17.9827 19.9378 21.9977 20.6896 22.5903 20.7319H22.5923C22.5862 20.7097 22.5782 20.6855 22.5701 20.6634C22.5681 20.6573 22.5661 20.6472 22.5641 20.6412C22.5621 20.6392 22.5621 20.6372 22.5621 20.6372C22.56 20.6311 22.558 20.6251 22.556 20.619C22.4452 20.2683 22.3383 19.9176 22.2376 19.5649C21.3427 16.4912 20.7843 13.3832 20.5183 10.2349C20.4397 9.29569 21.7357 8.9591 22.1287 9.81772C24.2974 14.5543 28.0282 22.1085 31.0395 25.7385C31.6784 26.5105 32.3697 27.2441 33.0046 28.0221C33.2928 28.3748 33.5468 28.7679 33.7403 29.1791C33.9358 29.5862 33.7665 29.947 33.3231 29.9893C32.664 30.0538 31.9807 30.082 31.3337 29.9712C30.1949 29.7757 29.0602 29.5217 27.9617 29.173C27.7078 29.0944 27.4639 28.9614 27.2321 28.8021C26.9882 28.6349 26.7604 28.4393 26.5448 28.2479C26.1014 27.8508 25.7305 27.3671 25.3737 26.8874C25.0573 26.4661 24.7872 26.0106 24.503 25.5672L24.499 25.5611L24.497 25.5591C24.4083 25.4201 24.3156 25.279 24.2229 25.1439C24.2209 25.1399 24.2168 25.1379 24.2168 25.1339C24.1987 25.1076 24.1805 25.0835 24.1624 25.0573C24.6663 26.2142 25.1198 27.3953 25.6499 28.5401C26.1699 29.6608 26.7302 30.7552 27.3329 31.8234C28.8828 34.5948 30.6827 37.211 32.6136 39.7466C32.8897 40.1094 33.1497 40.4984 33.3372 40.9115C33.6899 41.6835 33.4017 42.2116 32.5652 42.397C31.63 42.6046 30.7008 42.4716 29.7838 42.2841C29.1025 42.1451 28.4313 41.9455 27.7622 41.754C25.799 41.1937 24.1523 40.1739 22.9007 38.5695C22.8946 38.5614 22.8886 38.5534 22.8825 38.5453C22.814 38.4586 22.7475 38.3699 22.683 38.2792C22.1509 37.5436 21.6087 36.816 21.0544 36.0762C20.8005 35.7376 20.5465 35.399 20.2885 35.0544C20.2865 35.0524 20.2845 35.0483 20.2845 35.0483C20.2744 35.0362 20.2664 35.0241 20.2563 35.012C20.224 34.9697 20.1898 34.9234 20.1575 34.881C20.4135 35.4655 20.6372 36.0158 20.8912 36.5499C20.8932 36.5539 20.8972 36.558 20.8992 36.566C21.1371 37.0739 21.389 37.5738 21.647 38.0656C23.203 41.0426 25.0855 43.818 27.0849 46.5168C28.6289 48.5968 31.2229 51.6443 33.4158 54.1496C34.875 55.8024 33.6375 58.3883 31.4385 58.2996Z" fill="url(#paint0_linear_12_159)"/>
</g>
</g>
<g id="Group_10">
<path id="Vector_11" d="M19.2304 10.0697C19.2304 10.1866 19.1417 10.2833 19.0268 10.2934L11.924 10.9545C11.529 10.9908 11.1863 10.6804 11.1863 10.2833V9.80966C11.1863 9.41058 11.531 9.09817 11.928 9.13849L19.0288 9.84594C19.1437 9.85803 19.2304 9.95478 19.2304 10.0697Z" fill="url(#paint1_linear_12_159)"/>
<path id="Vector_12" d="M19.8572 8.62453C19.7746 8.70716 19.6435 8.71321 19.5549 8.63864L14.0645 4.0835C13.7581 3.82954 13.738 3.36798 14.0182 3.08782L14.3527 2.75324C14.6349 2.47107 15.0985 2.49324 15.3504 2.80363L19.8713 8.32421C19.9459 8.41088 19.9378 8.54189 19.8572 8.62453Z" fill="url(#paint2_linear_12_159)"/>
<path id="Vector_13" d="M21.3225 8.04404C21.2056 8.04404 21.1088 7.95536 21.0988 7.84048L20.4377 0.73769C20.4014 0.342643 20.7118 0 21.1088 0H21.5825C21.9816 0 22.294 0.344663 22.2537 0.741725L21.5462 7.84249C21.5341 7.95536 21.4374 8.04404 21.3225 8.04404Z" fill="url(#paint3_linear_12_159)"/>
<path id="Vector_14" d="M22.7676 8.66886C22.685 8.58623 22.679 8.45522 22.7535 8.36653L27.3087 2.87619C27.5626 2.56982 28.0242 2.54967 28.3043 2.82983L28.6389 3.16441C28.9211 3.44659 28.8989 3.91016 28.5885 4.16211L23.068 8.68297C22.9793 8.75755 22.8503 8.7515 22.7676 8.66886Z" fill="url(#paint4_linear_12_159)"/>
<path id="Vector_15" d="M23.3481 10.1342C23.3481 10.0173 23.4368 9.92052 23.5517 9.91044L30.6545 9.24935C31.0495 9.21307 31.3922 9.52346 31.3922 9.92052V10.3942C31.3922 10.7933 31.0475 11.1057 30.6504 11.0654L23.5497 10.3579C23.4348 10.3458 23.3481 10.2491 23.3481 10.1342Z" fill="url(#paint5_linear_12_159)"/>
</g>
</g>
<path id="Vector_16" d="M31.4385 58.2996L27.5042 58.1384C25.4322 58.0537 23.5416 56.9452 22.4593 55.1796C21.2741 53.2527 19.8028 50.8683 19.1276 49.8364C17.5937 47.4963 16.1385 45.1139 14.8002 42.6651C14.2419 41.6371 13.6997 40.6011 13.1878 39.549C13.1817 39.541 13.1797 39.5309 13.1757 39.5228C12.3755 37.7854 11.7688 36.4511 11.4745 35.7719C11.4242 35.655 11.3818 35.5562 11.3496 35.4796C10.9162 34.4275 10.5575 33.3351 10.2955 32.2286C10.0697 31.2772 10.5514 30.6322 11.537 30.606C12.7705 30.5758 14.0121 30.6806 15.2416 30.8096C16.3179 30.9225 17.3801 31.1502 18.5048 31.3337C18.9321 32.3273 19.571 33.7342 20.2643 35.008C20.2321 34.9657 20.1978 34.9193 20.1656 34.877C20.4216 35.4615 20.6453 36.0117 20.8992 36.5459C20.9013 36.5499 20.9053 36.5539 20.9073 36.562C21.1451 37.0699 21.3971 37.5698 21.6551 38.0616C23.2111 41.0385 25.0936 43.8139 27.093 46.5127C28.6369 48.5928 31.2309 51.6403 33.4238 54.1456C34.875 55.8024 33.6375 58.3883 31.4385 58.2996Z" fill="url(#paint6_linear_12_159)"/>
<path id="Vector_17" d="M32.5713 42.395C31.636 42.6026 30.7069 42.4696 29.7898 42.2821C29.1086 42.143 28.4374 41.9435 27.7682 41.752C25.8051 41.1917 24.1584 40.1718 22.9067 38.5675C22.9007 38.5594 22.8946 38.5513 22.8886 38.5433C22.82 38.4566 22.7535 38.3679 22.689 38.2772C22.1569 37.5415 21.6147 36.8139 21.0605 36.0742C20.8065 35.7356 20.5526 35.397 20.2946 35.0523C20.2926 35.0503 20.2905 35.0463 20.2905 35.0463C20.2563 34.9899 20.224 34.9334 20.1918 34.875C20.1877 34.8709 20.1857 34.8689 20.1857 34.8649C20.1857 34.8629 20.1837 34.8589 20.1817 34.8589C19.4178 33.5165 18.8051 32.2084 18.4443 31.3256C18.2629 30.8842 18.146 30.5476 18.1037 30.3682C18.0573 30.2594 18.011 30.1505 17.9646 30.0417C17.9586 30.0296 17.9586 30.0236 17.9586 30.0236C17.8437 29.7555 17.7288 29.4834 17.6179 29.2153C17.6159 29.2113 17.6159 29.2093 17.6139 29.2053C17.3317 28.53 17.0596 27.8508 16.7996 27.1675C16.2675 25.7687 15.8019 24.3478 15.4613 22.8845C15.3242 22.2919 15.2476 21.6732 15.2295 21.0645C15.2053 20.2663 15.6004 19.8531 16.4066 19.8834C17.9848 19.9378 21.9997 20.6896 22.5923 20.7319C22.7555 21.27 23.59 23.9608 24.2209 25.1318C24.2027 25.1056 24.1846 25.0814 24.1664 25.0552C24.6703 26.2122 25.1238 27.3933 25.6539 28.5381C26.1739 29.6587 26.7342 30.7532 27.3369 31.8214C28.8868 34.5928 30.6867 37.209 32.6176 39.7445C32.8937 40.1073 33.1537 40.4963 33.3412 40.9095C33.6959 41.6835 33.4077 42.2096 32.5713 42.395Z" fill="url(#paint7_linear_12_159)"/>
</g>
</g>
<defs>
<linearGradient id="paint0_linear_12_159" x1="31.3136" y1="60.6968" x2="9.83029" y2="-8.49621" gradientUnits="userSpaceOnUse">
<stop stop-color="#FF001C"/>
<stop offset="0.2194" stop-color="#FF009D"/>
<stop offset="0.2587" stop-color="#F9049F"/>
<stop offset="0.3112" stop-color="#E80FA3"/>
<stop offset="0.3713" stop-color="#CC22AA"/>
<stop offset="0.437" stop-color="#A53CB4"/>
<stop offset="0.5073" stop-color="#735DC0"/>
<stop offset="0.5802" stop-color="#3785CF"/>
<stop offset="0.6399" stop-color="#00AADD"/>
<stop offset="0.898" stop-color="#E9D013"/>
<stop offset="1" stop-color="#FFD400"/>
</linearGradient>
<linearGradient id="paint1_linear_12_159" x1="30.9217" y1="60.8184" x2="9.43848" y2="-8.37462" gradientUnits="userSpaceOnUse">
<stop stop-color="#FF001C"/>
<stop offset="0.2194" stop-color="#FF009D"/>
<stop offset="0.2587" stop-color="#F9049F"/>
<stop offset="0.3112" stop-color="#E80FA3"/>
<stop offset="0.3713" stop-color="#CC22AA"/>
<stop offset="0.437" stop-color="#A53CB4"/>
<stop offset="0.5073" stop-color="#735DC0"/>
<stop offset="0.5802" stop-color="#3785CF"/>
<stop offset="0.6399" stop-color="#00AADD"/>
<stop offset="0.898" stop-color="#E9D013"/>
<stop offset="1" stop-color="#FFD400"/>
</linearGradient>
<linearGradient id="paint2_linear_12_159" x1="33.6168" y1="59.9818" x2="12.1334" y2="-9.21138" gradientUnits="userSpaceOnUse">
<stop stop-color="#FF001C"/>
<stop offset="0.2194" stop-color="#FF009D"/>
<stop offset="0.2587" stop-color="#F9049F"/>
<stop offset="0.3112" stop-color="#E80FA3"/>
<stop offset="0.3713" stop-color="#CC22AA"/>
<stop offset="0.437" stop-color="#A53CB4"/>
<stop offset="0.5073" stop-color="#735DC0"/>
<stop offset="0.5802" stop-color="#3785CF"/>
<stop offset="0.6399" stop-color="#00AADD"/>
<stop offset="0.898" stop-color="#E9D013"/>
<stop offset="1" stop-color="#FFD400"/>
</linearGradient>
<linearGradient id="paint3_linear_12_159" x1="38.5196" y1="58.4595" x2="17.0363" y2="-10.7337" gradientUnits="userSpaceOnUse">
<stop stop-color="#FF001C"/>
<stop offset="0.2194" stop-color="#FF009D"/>
<stop offset="0.2587" stop-color="#F9049F"/>
<stop offset="0.3112" stop-color="#E80FA3"/>
<stop offset="0.3713" stop-color="#CC22AA"/>
<stop offset="0.437" stop-color="#A53CB4"/>
<stop offset="0.5073" stop-color="#735DC0"/>
<stop offset="0.5802" stop-color="#3785CF"/>
<stop offset="0.6399" stop-color="#00AADD"/>
<stop offset="0.898" stop-color="#E9D013"/>
<stop offset="1" stop-color="#FFD400"/>
</linearGradient>
<linearGradient id="paint4_linear_12_159" x1="41.7348" y1="57.4613" x2="20.2515" y2="-11.7319" gradientUnits="userSpaceOnUse">
<stop stop-color="#FF001C"/>
<stop offset="0.2194" stop-color="#FF009D"/>
<stop offset="0.2587" stop-color="#F9049F"/>
<stop offset="0.3112" stop-color="#E80FA3"/>
<stop offset="0.3713" stop-color="#CC22AA"/>
<stop offset="0.437" stop-color="#A53CB4"/>
<stop offset="0.5073" stop-color="#735DC0"/>
<stop offset="0.5802" stop-color="#3785CF"/>
<stop offset="0.6399" stop-color="#00AADD"/>
<stop offset="0.898" stop-color="#E9D013"/>
<stop offset="1" stop-color="#FFD400"/>
</linearGradient>
<linearGradient id="paint5_linear_12_159" x1="42.0757" y1="57.3555" x2="20.5923" y2="-11.8378" gradientUnits="userSpaceOnUse">
<stop stop-color="#FF001C"/>
<stop offset="0.2194" stop-color="#FF009D"/>
<stop offset="0.2587" stop-color="#F9049F"/>
<stop offset="0.3112" stop-color="#E80FA3"/>
<stop offset="0.3713" stop-color="#CC22AA"/>
<stop offset="0.437" stop-color="#A53CB4"/>
<stop offset="0.5073" stop-color="#735DC0"/>
<stop offset="0.5802" stop-color="#3785CF"/>
<stop offset="0.6399" stop-color="#00AADD"/>
<stop offset="0.898" stop-color="#E9D013"/>
<stop offset="1" stop-color="#FFD400"/>
</linearGradient>
<linearGradient id="paint6_linear_12_159" x1="28.2357" y1="21.0631" x2="9.96089" y2="89.4658" gradientUnits="userSpaceOnUse">
<stop offset="0.0536" stop-color="#00539D"/>
<stop offset="0.1523" stop-color="#6B309D"/>
<stop offset="0.2326" stop-color="#BA169D"/>
<stop offset="0.2891" stop-color="#EC069D"/>
<stop offset="0.3169" stop-color="#FF009D"/>
<stop offset="0.3881" stop-color="#FF0083"/>
<stop offset="0.4849" stop-color="#FF0066"/>
<stop offset="0.5885" stop-color="#FF004F"/>
<stop offset="0.7006" stop-color="#FF003F"/>
<stop offset="0.8274" stop-color="#FF0036"/>
<stop offset="1" stop-color="#FF0033"/>
</linearGradient>
<linearGradient id="paint7_linear_12_159" x1="29.0296" y1="20.029" x2="2.98916" y2="82.1541" gradientUnits="userSpaceOnUse">
<stop offset="0.0338" stop-color="#2E8CFF"/>
<stop offset="0.0993" stop-color="#6567E5"/>
<stop offset="0.1648" stop-color="#9448CF"/>
<stop offset="0.23" stop-color="#BA2EBD"/>
<stop offset="0.2941" stop-color="#D81AAF"/>
<stop offset="0.357" stop-color="#EE0CA5"/>
<stop offset="0.4179" stop-color="#FB039F"/>
<stop offset="0.4749" stop-color="#FF009D"/>
</linearGradient>
</defs>
</svg>
