<svg width="17" height="41" viewBox="0 0 17 41" fill="none" xmlns="http://www.w3.org/2000/svg">
<g id="Layer_1" clip-path="url(#clip0_12_475)">
<path id="Vector" d="M15.1335 41L12.3258 40.8866C11.5989 40.857 10.8905 40.6518 10.2631 40.2889C9.63564 39.926 9.1085 39.4167 8.7281 38.8059C7.88191 37.4508 6.82993 35.774 6.34927 35.0483C5.25412 33.4041 4.2151 31.7273 3.25955 30.0052C2.86092 29.2823 2.4738 28.5537 2.10827 27.8138L2.09965 27.7954C1.67559 26.945 1.27696 26.0813 0.903751 25.2044C0.903751 25.1888 0.890799 25.1732 0.885043 25.159C0.849065 25.0754 0.817406 25.0074 0.79582 24.9521C0.484282 24.2107 0.232623 23.4462 0.043177 22.6658C-0.118001 21.9968 0.227386 21.5432 0.929663 21.5248C1.81352 21.5161 2.69703 21.5634 3.57472 21.6665C3.79777 21.6906 4.02082 21.7204 4.24388 21.7544L4.55473 21.804L5.01667 21.8834C5.28866 21.9302 5.5621 21.9798 5.84129 22.0251H5.86286L5.9046 22.0322C5.85135 21.9047 5.81106 21.8012 5.76069 21.6991C5.71032 21.5971 5.6585 21.4681 5.60814 21.3505L5.50885 21.1223C5.50799 21.118 5.50799 21.1137 5.50885 21.1095C5.42538 20.921 5.3448 20.7296 5.26421 20.5425C5.06274 20.0663 4.86846 19.59 4.68857 19.1095C4.30138 18.1275 3.98213 17.1207 3.73301 16.0961C3.63497 15.6774 3.57953 15.25 3.56751 14.8205C3.55024 14.2535 3.8323 13.97 4.40794 13.9898C5.53475 14.0281 8.40287 14.5568 8.82452 14.5866C8.82452 14.571 8.81445 14.554 8.80869 14.5384V14.5214V14.5072C8.72954 14.262 8.65326 14.0139 8.58131 13.7673C7.95127 11.6255 7.54004 9.42705 7.35376 7.20471C7.34148 7.06483 7.37993 6.92519 7.46225 6.81057C7.54457 6.69595 7.66545 6.61377 7.80345 6.5786C7.94146 6.54343 8.08765 6.55755 8.21609 6.61845C8.34452 6.67936 8.44688 6.78312 8.50503 6.91131C10.0535 10.2422 12.7173 15.5575 14.8673 18.1088C15.3249 18.6531 15.8171 19.1676 16.2718 19.7148C16.479 19.9645 16.6553 20.2376 16.7971 20.5284C16.941 20.8118 16.8158 21.0684 16.4992 21.0953C16.0273 21.1536 15.5496 21.1493 15.0788 21.0826C14.2636 20.948 13.4587 20.7586 12.6698 20.5156C12.4842 20.454 12.3087 20.3661 12.1488 20.2548C11.9777 20.135 11.8143 20.0048 11.6595 19.865C11.3492 19.5743 11.0691 19.2538 10.8234 18.9083C10.5975 18.612 10.4046 18.2931 10.2017 17.9799C10.1384 17.8821 10.0736 17.7843 10.006 17.6879V17.6808L9.96715 17.6269C10.3269 18.4419 10.6507 19.2725 11.0306 20.0776C11.4106 20.8827 11.802 21.6368 12.2323 22.3866C13.3549 24.3283 14.6143 26.1902 16.0013 27.9584C16.2043 28.2117 16.3781 28.4865 16.5193 28.7777C16.7697 29.322 16.564 29.6919 15.9682 29.8223C15.3004 29.9641 14.637 29.8748 13.9822 29.7429C13.4958 29.6451 13.0166 29.5062 12.5431 29.3716C11.1415 28.9775 9.96572 28.2603 9.07204 27.1307L9.05909 27.1136C9.00873 27.0541 8.96268 26.9903 8.91519 26.928C8.5367 26.4092 8.14814 25.8975 7.75383 25.3773C7.5725 25.1411 7.39023 24.9015 7.20698 24.6587L7.18683 24.6332L7.11776 24.541C7.29909 24.9521 7.46027 25.339 7.64015 25.7147L7.64734 25.7246C7.81715 26.0818 7.99703 26.4333 8.18123 26.7806C9.29221 28.8727 10.6363 30.8258 12.0668 32.7238C13.1691 34.1865 15.0227 36.3282 16.587 38.0915C16.8165 38.3531 16.9627 38.6755 17.0073 39.0184C17.052 39.3613 16.9932 39.7096 16.8381 40.0198C16.6831 40.33 16.4388 40.5884 16.1356 40.7627C15.8325 40.937 15.484 41.0196 15.1335 41Z" fill="url(#paint0_linear_12_475)"/>
<path id="Vector_2" d="M6.41836 7.08278C6.41855 7.12194 6.40392 7.15977 6.3773 7.18887C6.35069 7.21797 6.31401 7.23624 6.27445 7.24012L1.20309 7.70503C1.13633 7.71135 1.06898 7.70385 1.00534 7.683C0.941695 7.66215 0.883173 7.62842 0.833565 7.58396C0.783956 7.53951 0.744342 7.48531 0.717271 7.42487C0.6902 7.36444 0.676284 7.29908 0.676392 7.23303V6.89994C0.676467 6.83368 0.690619 6.76818 0.717938 6.70763C0.745257 6.64708 0.785125 6.59284 0.835005 6.54838C0.884885 6.50392 0.943661 6.47024 1.00755 6.4495C1.07144 6.42875 1.13903 6.42141 1.20597 6.42794L6.27589 6.92545C6.31507 6.92996 6.35122 6.94847 6.37748 6.97746C6.40374 7.00646 6.41827 7.04393 6.41836 7.08278Z" fill="url(#paint1_linear_12_475)"/>
<path id="Vector_3" d="M6.86592 6.0665C6.83718 6.09401 6.79919 6.11022 6.75916 6.11204C6.71913 6.11387 6.67981 6.1012 6.64861 6.07643L2.72853 2.87308C2.67702 2.83078 2.63501 2.77837 2.60517 2.71921C2.57533 2.66006 2.55832 2.59543 2.55521 2.52944C2.5521 2.46346 2.56295 2.39756 2.58709 2.33593C2.61123 2.2743 2.64811 2.21829 2.69541 2.17146L2.93575 1.93617C2.98334 1.88816 3.04075 1.85068 3.10418 1.82619C3.1676 1.8017 3.2356 1.79076 3.30364 1.79411C3.37167 1.79746 3.43821 1.81502 3.49884 1.84562C3.55947 1.87622 3.61279 1.91916 3.65529 1.9716L6.88318 5.85389C6.90732 5.88524 6.91889 5.92423 6.9157 5.96344C6.91252 6.00265 6.8948 6.03934 6.86592 6.0665Z" fill="url(#paint2_linear_12_475)"/>
<path id="Vector_4" d="M7.91211 5.65845C7.87228 5.65836 7.83389 5.64389 7.80418 5.61776C7.77447 5.59164 7.75552 5.55568 7.75093 5.51671L7.27893 0.521759C7.27272 0.456049 7.28049 0.389788 7.30174 0.327202C7.323 0.264617 7.35726 0.207084 7.40235 0.158271C7.44744 0.109458 7.50238 0.0704394 7.56363 0.0437032C7.62489 0.016967 7.69113 0.00310154 7.75814 0.00299072H8.09632C8.16359 0.00306403 8.23011 0.0170034 8.29158 0.0439108C8.35305 0.0708183 8.40813 0.110094 8.45326 0.159222C8.4984 0.208351 8.53258 0.266241 8.55364 0.329166C8.5747 0.392092 8.58218 0.458663 8.57555 0.524597L8.07187 5.51813C8.06729 5.55672 8.0485 5.59232 8.01906 5.61818C7.98962 5.64404 7.95156 5.65837 7.91211 5.65845Z" fill="url(#paint3_linear_12_475)"/>
<path id="Vector_5" d="M8.94395 6.09771C8.91554 6.06996 8.89874 6.03271 8.89687 5.99334C8.89501 5.95397 8.90822 5.91534 8.93389 5.8851L12.1862 2.02407C12.2289 1.97319 12.282 1.93167 12.3419 1.90217C12.4019 1.87268 12.4674 1.85585 12.5344 1.85278C12.6013 1.84971 12.6682 1.86046 12.7306 1.88434C12.7931 1.90823 12.8498 1.94472 12.8971 1.99147L13.136 2.22677C13.1836 2.27348 13.2208 2.3295 13.2451 2.39123C13.2693 2.45295 13.2802 2.51901 13.2769 2.58513C13.2737 2.65124 13.2564 2.71595 13.2262 2.77508C13.1959 2.8342 13.1535 2.88642 13.1015 2.92838L9.15982 6.10905C9.1288 6.13383 9.08955 6.1464 9.04967 6.14431C9.00979 6.14221 8.97211 6.12561 8.94395 6.09771Z" fill="url(#paint4_linear_12_475)"/>
<path id="Vector_6" d="M9.35843 7.12814C9.35824 7.08898 9.37287 7.05115 9.39949 7.02206C9.4261 6.99296 9.46278 6.97469 9.50234 6.97081L14.5737 6.5059C14.6405 6.49957 14.7078 6.50707 14.7715 6.52792C14.8351 6.54877 14.8936 6.58251 14.9432 6.62697C14.9928 6.67142 15.0324 6.72561 15.0595 6.78605C15.0866 6.84649 15.1005 6.91183 15.1004 6.97789V7.31099C15.1003 7.37725 15.0862 7.44275 15.0589 7.5033C15.0315 7.56384 14.9917 7.61809 14.9418 7.66255C14.8919 7.707 14.8331 7.74068 14.7692 7.76142C14.7054 7.78216 14.6378 7.78951 14.5708 7.78298L9.5009 7.28548C9.46172 7.28097 9.42558 7.26246 9.39933 7.23347C9.37307 7.20447 9.35852 7.16699 9.35843 7.12814Z" fill="url(#paint5_linear_12_475)"/>
<path id="Vector_7" d="M15.1335 41L12.3258 40.8866C11.5989 40.857 10.8905 40.6518 10.2631 40.2889C9.63564 39.926 9.1085 39.4167 8.7281 38.8058C7.88191 37.4508 6.82993 35.774 6.34927 35.0483C5.25412 33.4041 4.2151 31.7273 3.25955 30.0052C2.86092 29.2823 2.4738 28.5537 2.10827 27.8138L2.09965 27.7954C1.52401 26.575 1.09227 25.6367 0.885043 25.159C0.849065 25.0754 0.817406 25.0074 0.79582 24.9521C0.484282 24.2107 0.232623 23.4462 0.043177 22.6658C-0.118001 21.9968 0.227386 21.5432 0.929663 21.5248C1.81352 21.5161 2.69703 21.5634 3.57472 21.6665C4.34319 21.7473 5.10158 21.9061 5.9046 22.0351C6.20969 22.7338 6.66444 23.7232 7.15948 24.6204L7.09041 24.5283C7.27174 24.9393 7.43291 25.3263 7.6128 25.7019L7.62 25.7118C7.78982 26.069 7.9697 26.4205 8.1539 26.7678C9.26488 28.8599 10.609 30.8131 12.0395 32.711C13.1418 34.1738 14.9954 36.3155 16.5596 38.0787C16.7915 38.3382 16.9406 38.6593 16.9884 39.0017C17.0362 39.3441 16.9806 39.6929 16.8285 40.0044C16.6764 40.3159 16.4346 40.5765 16.1332 40.7535C15.8317 40.9306 15.4841 41.0163 15.1335 41Z" fill="url(#paint6_linear_12_475)"/>
<path id="Vector_8" d="M15.9437 29.8152C15.276 29.957 14.6125 29.8677 13.9578 29.7358C13.4713 29.638 12.9921 29.4991 12.5187 29.3645C11.117 28.9704 9.94125 28.2532 9.04757 27.1236L9.03462 27.1066C8.98425 27.047 8.9382 26.9832 8.89071 26.9209C8.51223 26.4021 8.12369 25.8904 7.72937 25.3702C7.54805 25.134 7.36576 24.8944 7.18251 24.6516L7.112 24.5311V24.524C6.64683 23.722 6.23301 22.8922 5.87294 22.0393C5.77709 21.8202 5.69537 21.5953 5.62828 21.366L5.529 21.1378C5.52814 21.1336 5.52814 21.1293 5.529 21.1251C5.44553 20.9366 5.36493 20.7452 5.28434 20.5581C5.08287 20.0819 4.88859 19.6056 4.7087 19.1251C4.32151 18.143 4.00227 17.1363 3.75316 16.1117C3.65512 15.6929 3.59968 15.2656 3.58766 14.836C3.57039 14.2691 3.85245 13.9856 4.42809 14.0054C5.5549 14.0437 8.42302 14.5724 8.84467 14.6022C8.96268 14.9806 9.56421 16.87 10.0075 17.6964L9.96859 17.6425C10.3284 18.4575 10.6522 19.2881 11.0321 20.0932C11.412 20.8983 11.8034 21.6524 12.2337 22.4022C13.3563 24.3439 14.6157 26.2058 16.0027 27.974C16.2058 28.2273 16.3795 28.5021 16.5208 28.7933C16.7453 29.322 16.5395 29.6848 15.9437 29.8152Z" fill="url(#paint7_linear_12_475)"/>
</g>
<defs>
<linearGradient id="paint0_linear_12_475" x1="15.0457" y1="42.6853" x2="0.125949" y2="-6.10125" gradientUnits="userSpaceOnUse">
<stop stop-color="#FF001C"/>
<stop offset="0.22" stop-color="#FF009D"/>
<stop offset="0.26" stop-color="#F9049F"/>
<stop offset="0.31" stop-color="#E80FA3"/>
<stop offset="0.37" stop-color="#CC22AA"/>
<stop offset="0.44" stop-color="#A53CB4"/>
<stop offset="0.51" stop-color="#735DC0"/>
<stop offset="0.58" stop-color="#3785CF"/>
<stop offset="0.64" stop-color="#00AADD"/>
<stop offset="0.9" stop-color="#E9D013"/>
<stop offset="1" stop-color="#FFD400"/>
</linearGradient>
<linearGradient id="paint1_linear_12_475" x1="14.7651" y1="42.7718" x2="-0.153343" y2="-6.01619" gradientUnits="userSpaceOnUse">
<stop stop-color="#FF001C"/>
<stop offset="0.22" stop-color="#FF009D"/>
<stop offset="0.26" stop-color="#F9049F"/>
<stop offset="0.31" stop-color="#E80FA3"/>
<stop offset="0.37" stop-color="#CC22AA"/>
<stop offset="0.44" stop-color="#A53CB4"/>
<stop offset="0.51" stop-color="#735DC0"/>
<stop offset="0.58" stop-color="#3785CF"/>
<stop offset="0.64" stop-color="#00AADD"/>
<stop offset="0.9" stop-color="#E9D013"/>
<stop offset="1" stop-color="#FFD400"/>
</linearGradient>
<linearGradient id="paint2_linear_12_475" x1="16.6906" y1="42.1836" x2="1.77079" y2="-6.60445" gradientUnits="userSpaceOnUse">
<stop stop-color="#FF001C"/>
<stop offset="0.22" stop-color="#FF009D"/>
<stop offset="0.26" stop-color="#F9049F"/>
<stop offset="0.31" stop-color="#E80FA3"/>
<stop offset="0.37" stop-color="#CC22AA"/>
<stop offset="0.44" stop-color="#A53CB4"/>
<stop offset="0.51" stop-color="#735DC0"/>
<stop offset="0.58" stop-color="#3785CF"/>
<stop offset="0.64" stop-color="#00AADD"/>
<stop offset="0.9" stop-color="#E9D013"/>
<stop offset="1" stop-color="#FFD400"/>
</linearGradient>
<linearGradient id="paint3_linear_12_475" x1="20.1905" y1="41.1121" x2="5.27072" y2="-7.67443" gradientUnits="userSpaceOnUse">
<stop stop-color="#FF001C"/>
<stop offset="0.22" stop-color="#FF009D"/>
<stop offset="0.26" stop-color="#F9049F"/>
<stop offset="0.31" stop-color="#E80FA3"/>
<stop offset="0.37" stop-color="#CC22AA"/>
<stop offset="0.44" stop-color="#A53CB4"/>
<stop offset="0.51" stop-color="#735DC0"/>
<stop offset="0.58" stop-color="#3785CF"/>
<stop offset="0.64" stop-color="#00AADD"/>
<stop offset="0.9" stop-color="#E9D013"/>
<stop offset="1" stop-color="#FFD400"/>
</linearGradient>
<linearGradient id="paint4_linear_12_475" x1="22.4858" y1="40.4104" x2="7.56598" y2="-8.37761" gradientUnits="userSpaceOnUse">
<stop stop-color="#FF001C"/>
<stop offset="0.22" stop-color="#FF009D"/>
<stop offset="0.26" stop-color="#F9049F"/>
<stop offset="0.31" stop-color="#E80FA3"/>
<stop offset="0.37" stop-color="#CC22AA"/>
<stop offset="0.44" stop-color="#A53CB4"/>
<stop offset="0.51" stop-color="#735DC0"/>
<stop offset="0.58" stop-color="#3785CF"/>
<stop offset="0.64" stop-color="#00AADD"/>
<stop offset="0.9" stop-color="#E9D013"/>
<stop offset="1" stop-color="#FFD400"/>
</linearGradient>
<linearGradient id="paint5_linear_12_475" x1="22.729" y1="40.3365" x2="7.81082" y2="-8.45128" gradientUnits="userSpaceOnUse">
<stop stop-color="#FF001C"/>
<stop offset="0.22" stop-color="#FF009D"/>
<stop offset="0.26" stop-color="#F9049F"/>
<stop offset="0.31" stop-color="#E80FA3"/>
<stop offset="0.37" stop-color="#CC22AA"/>
<stop offset="0.44" stop-color="#A53CB4"/>
<stop offset="0.51" stop-color="#735DC0"/>
<stop offset="0.58" stop-color="#3785CF"/>
<stop offset="0.64" stop-color="#00AADD"/>
<stop offset="0.9" stop-color="#E9D013"/>
<stop offset="1" stop-color="#FFD400"/>
</linearGradient>
<linearGradient id="paint6_linear_12_475" x1="12.8482" y1="14.8133" x2="0.164925" y2="63.0134" gradientUnits="userSpaceOnUse">
<stop offset="0.05" stop-color="#00539D"/>
<stop offset="0.15" stop-color="#6B309D"/>
<stop offset="0.23" stop-color="#BA169D"/>
<stop offset="0.29" stop-color="#EC069D"/>
<stop offset="0.32" stop-color="#FF009D"/>
<stop offset="0.39" stop-color="#FF0083"/>
<stop offset="0.48" stop-color="#FF0066"/>
<stop offset="0.59" stop-color="#FF004F"/>
<stop offset="0.7" stop-color="#FF003F"/>
<stop offset="0.83" stop-color="#FF0036"/>
<stop offset="1" stop-color="#FF0033"/>
</linearGradient>
<linearGradient id="paint7_linear_12_475" x1="13.4152" y1="14.0862" x2="-4.70278" y2="57.9712" gradientUnits="userSpaceOnUse">
<stop offset="0.03" stop-color="#2E8CFF"/>
<stop offset="0.1" stop-color="#6567E5"/>
<stop offset="0.16" stop-color="#9448CF"/>
<stop offset="0.23" stop-color="#BA2EBD"/>
<stop offset="0.29" stop-color="#D81AAF"/>
<stop offset="0.36" stop-color="#EE0CA5"/>
<stop offset="0.42" stop-color="#FB039F"/>
<stop offset="0.47" stop-color="#FF009D"/>
</linearGradient>
<clipPath id="clip0_12_475">
<rect width="17" height="41" fill="white"/>
</clipPath>
</defs>
</svg>
