<svg width="149" height="232" viewBox="0 0 149 232" fill="none" xmlns="http://www.w3.org/2000/svg">
<path d="M35.3062 186.629C35.0062 180.965 34.643 174.158 34.7061 169.094H34.5271C33.1427 173.853 31.4529 178.917 29.4052 184.518L22.2355 204.221H18.2611L11.6915 184.881C9.76488 179.159 8.13828 173.916 6.99071 169.094H6.86963C6.74855 174.153 6.4485 180.965 6.08528 187.05L5.00088 204.464H0L2.83208 163.856H9.52273L16.4503 183.497C18.14 188.498 19.5245 192.956 20.5457 197.173H20.7247C21.7512 193.077 23.1936 188.619 25.0044 183.497L32.232 163.856H38.9227L41.4547 204.464H36.3327L35.3062 186.629Z" fill="white"/>
<path d="M70.5492 185.423H54.7622V200.063H72.3548V204.464H49.5192V163.856H71.4494V168.257H54.7622V181.091H70.5492V185.423Z" fill="white"/>
<path d="M110.072 202.652C107.724 203.494 103.081 204.879 97.6014 204.879C91.4529 204.879 86.3941 203.31 82.4197 199.514C78.9244 196.14 76.7556 190.718 76.7556 184.391C76.8188 172.283 85.1308 163.424 98.749 163.424C103.45 163.424 107.124 164.45 108.872 165.293L107.608 169.572C105.44 168.609 102.729 167.825 98.6332 167.825C88.7525 167.825 82.304 173.968 82.304 184.154C82.304 194.456 88.5103 200.541 97.9699 200.541C101.402 200.541 103.755 200.057 104.961 199.457V187.344H96.7065V183.127H110.083V202.652H110.072Z" fill="white"/>
<path d="M124.654 191.687L120.437 204.457H115.015L128.812 163.85H135.14L149 204.457H143.399L139.061 191.687H124.654ZM137.966 187.591L133.992 175.905C133.087 173.252 132.487 170.846 131.881 168.493H131.76C131.16 170.904 130.497 173.373 129.712 175.842L125.738 187.591H137.966Z" fill="white"/>
<path d="M19.1245 216.853C20.0194 216.706 21.1933 216.574 22.6883 216.574C24.5202 216.574 25.8678 217.001 26.7206 217.769C27.5102 218.454 27.9787 219.496 27.9787 220.775C27.9787 222.075 27.5944 223.102 26.868 223.849C25.8836 224.897 24.2886 225.428 22.4725 225.428C21.9198 225.428 21.4039 225.407 20.9775 225.302V231.061H19.1193V216.853H19.1245ZM20.9775 223.786C21.3828 223.891 21.8934 223.933 22.5146 223.933C24.7518 223.933 26.1205 222.844 26.1205 220.859C26.1205 218.959 24.7781 218.043 22.7304 218.043C21.9197 218.043 21.3039 218.106 20.9828 218.19V223.786H20.9775Z" fill="white"/>
<path d="M53.4305 223.723C53.4305 228.671 50.4247 231.298 46.7504 231.298C42.955 231.298 40.2861 228.356 40.2861 224.002C40.2861 219.438 43.1234 216.448 46.9662 216.448C50.8879 216.448 53.4305 219.454 53.4305 223.723ZM42.2706 223.955C42.2706 227.029 43.9341 229.777 46.8557 229.777C49.7983 229.777 51.4617 227.066 51.4617 223.802C51.4617 220.944 49.9667 217.959 46.8767 217.959C43.8077 217.959 42.2706 220.796 42.2706 223.955Z" fill="white"/>
<path d="M68.8542 231.062L65.2062 216.681H67.1697L68.8752 223.956C69.3016 225.745 69.6859 227.54 69.9439 228.925H69.986C70.2229 227.493 70.6703 225.788 71.1599 223.935L73.0812 216.681H75.0237L76.7714 223.977C77.1767 225.682 77.561 227.388 77.7716 228.904H77.8137C78.1137 227.325 78.519 225.724 78.9665 223.935L80.8669 216.681H82.7672L78.6928 231.062H76.7503L74.9342 223.571C74.4868 221.739 74.1867 220.329 73.9972 218.876H73.9551C73.6972 220.308 73.376 221.713 72.8444 223.571L70.7966 231.062H68.8542Z" fill="white"/>
<path d="M102.671 224.319H97.0803V229.504H103.308V231.062H95.2221V216.681H102.987V218.239H97.0751V222.782H102.666V224.319H102.671Z" fill="white"/>
<path d="M116.389 216.874C117.326 216.68 118.674 216.574 119.953 216.574C121.937 216.574 123.216 216.937 124.111 217.748C124.838 218.39 125.243 219.369 125.243 220.48C125.243 222.381 124.048 223.639 122.532 224.149V224.212C123.643 224.597 124.301 225.618 124.643 227.113C125.112 229.119 125.454 230.503 125.754 231.061H123.832C123.596 230.656 123.28 229.419 122.874 227.629C122.448 225.644 121.679 224.897 119.995 224.834H118.247V231.061H116.389V216.874ZM118.247 223.423H120.148C122.132 223.423 123.39 222.333 123.39 220.691C123.39 218.833 122.048 218.022 120.084 218.001C119.189 218.001 118.547 218.085 118.247 218.169V223.423Z" fill="white"/>
<path d="M82.1093 152.264L71.8338 151.843C66.4223 151.621 61.4846 148.726 58.6578 144.115C55.5625 139.082 51.7197 132.855 49.9562 130.16C45.9503 124.048 42.1496 117.826 38.6542 111.43C37.1961 108.745 35.78 106.04 34.443 103.292C34.4272 103.271 34.4219 103.244 34.4114 103.223C32.8585 100.065 31.3951 96.8591 30.0369 93.6007C30.0159 93.5428 29.9896 93.4849 29.9632 93.427C29.8316 93.1216 29.7211 92.8637 29.6369 92.6637C28.5051 89.9158 27.5681 87.0627 26.8837 84.1727C26.2942 81.688 27.5523 80.0035 30.1264 79.9351C33.3481 79.8561 36.5907 80.1299 39.8018 80.4668C40.6178 80.551 41.4337 80.6668 42.2496 80.7931C42.6286 80.8511 43.0077 80.9142 43.3867 80.9774C43.9447 81.0721 44.5079 81.1722 45.0764 81.2722C46.0713 81.4459 47.0715 81.6301 48.0928 81.7986C48.1138 81.8039 48.1401 81.8091 48.1717 81.8144C48.2191 81.8249 48.277 81.8302 48.3244 81.8407C48.3296 81.846 48.3402 81.846 48.3402 81.846C48.1454 81.3722 47.998 80.9879 47.8296 80.6089C47.6453 80.1772 47.4611 79.7509 47.2768 79.3139C47.1557 79.0297 47.0347 78.7454 46.9136 78.4612C46.8978 78.4296 46.8978 78.4138 46.8978 78.4138C46.5977 77.7137 46.2977 77.003 46.0082 76.3029C46.0029 76.2924 46.0029 76.2871 45.9976 76.2766C45.2607 74.5131 44.55 72.7391 43.871 70.9546C42.4812 67.3013 41.2652 63.5901 40.3756 59.7684C40.0176 58.2207 39.8176 56.6047 39.7702 55.0149C39.7071 52.9303 40.7388 51.8512 42.8445 51.9302C46.9662 52.0723 57.4523 54.0358 58.9999 54.1463H59.0052C58.9894 54.0884 58.9684 54.0253 58.9473 53.9674C58.942 53.9516 58.9368 53.9252 58.9315 53.9094C58.9263 53.9042 58.9262 53.8989 58.9262 53.8989C58.921 53.8831 58.9157 53.8673 58.9105 53.8516C58.6209 52.9356 58.3419 52.0196 58.0787 51.0984C55.7415 43.0707 54.2833 34.9535 53.5885 26.731C53.3832 24.2779 56.768 23.3988 57.7945 25.6413C63.4586 38.0119 73.2025 57.7417 81.067 67.2223C82.7357 69.2385 84.5413 71.1546 86.1995 73.1865C86.9523 74.1077 87.6155 75.1343 88.1209 76.2081C88.6315 77.2715 88.1893 78.2137 87.0312 78.3243C85.3098 78.4927 83.5253 78.5664 81.8355 78.2769C78.8613 77.7663 75.8977 77.103 73.0287 76.1923C72.3655 75.987 71.7285 75.6396 71.1231 75.2237C70.4862 74.7868 69.8913 74.2762 69.3281 73.7761C68.17 72.7391 67.2014 71.4757 66.2697 70.2229C65.4432 69.1227 64.7378 67.933 63.9956 66.7749L63.985 66.7591L63.9798 66.7538C63.7481 66.3906 63.506 66.0221 63.2638 65.6694C63.2586 65.6589 63.2481 65.6536 63.2481 65.6431C63.2007 65.5747 63.1533 65.5115 63.1059 65.4431C64.422 68.4647 65.6064 71.5494 66.9908 74.5394C68.349 77.4662 69.8124 80.3246 71.3863 83.1146C75.4344 90.3527 80.1353 97.1855 85.1783 103.808C85.8994 104.755 86.5785 105.771 87.068 106.85C87.9893 108.867 87.2365 110.246 85.0519 110.73C82.6094 111.272 80.1826 110.925 77.7875 110.435C76.0082 110.072 74.2553 109.551 72.5076 109.051C67.3804 107.587 63.0796 104.924 59.8106 100.734C59.7948 100.712 59.779 100.691 59.7632 100.67C59.5843 100.444 59.4105 100.212 59.2421 99.9755C57.8524 98.0541 56.4363 96.1538 54.9887 94.2218C54.3254 93.3375 53.6622 92.4531 52.9884 91.5529C52.9831 91.5477 52.9778 91.5371 52.9778 91.5371C52.9515 91.5056 52.9304 91.474 52.9041 91.4424C52.8199 91.3319 52.7304 91.2108 52.6462 91.1002C53.3147 92.6268 53.899 94.0639 54.5623 95.4589C54.5676 95.4694 54.5781 95.4799 54.5834 95.501C55.2045 96.8276 55.8625 98.133 56.5363 99.4175C60.6002 107.193 65.5169 114.441 70.7389 121.49C74.7711 126.922 81.546 134.882 87.2734 141.425C91.0846 145.741 87.8524 152.495 82.1093 152.264Z" fill="url(#paint0_linear_45_308)"/>
<path d="M50.2247 26.2986C50.2247 26.6039 49.993 26.8566 49.693 26.8829L31.1424 28.6095C30.1106 28.7043 29.2157 27.8936 29.2157 26.8566V25.6195C29.2157 24.5772 30.1159 23.7613 31.1529 23.8666L49.6983 25.7143C49.9983 25.7458 50.2247 25.9985 50.2247 26.2986Z" fill="url(#paint1_linear_45_308)"/>
<path d="M51.8617 22.5244C51.6459 22.7402 51.3037 22.756 51.0721 22.5612L36.7327 10.6644C35.9326 10.0011 35.8799 8.79563 36.6116 8.06392L37.4855 7.19008C38.2224 6.45311 39.4332 6.51101 40.0912 7.32168L51.8986 21.74C52.0933 21.9664 52.0723 22.3085 51.8617 22.5244Z" fill="url(#paint2_linear_45_308)"/>
<path d="M55.6888 21.009C55.3835 21.009 55.1308 20.7774 55.1045 20.4773L53.3778 1.92666C53.2831 0.894897 54.0938 0 55.1308 0H56.3678C57.4101 0 58.2261 0.900171 58.1208 1.9372L56.2731 20.4826C56.2415 20.7774 55.9888 21.009 55.6888 21.009Z" fill="url(#paint3_linear_45_308)"/>
<path d="M59.4631 22.6408C59.2473 22.425 59.2315 22.0828 59.4263 21.8512L71.3231 7.51183C71.9864 6.71169 73.1919 6.65904 73.9236 7.39075L74.7974 8.26459C75.5344 9.00156 75.4765 10.2123 74.6658 10.8703L60.2475 22.6777C60.0159 22.8724 59.679 22.8566 59.4631 22.6408Z" fill="url(#paint4_linear_45_308)"/>
<path d="M60.9792 26.4679C60.9792 26.1626 61.2108 25.9099 61.5109 25.8836L80.0615 24.157C81.0933 24.0622 81.9882 24.8729 81.9882 25.9099V27.1469C81.9882 28.1892 81.088 29.0052 80.051 28.8999L61.5056 27.0522C61.2055 27.0206 60.9792 26.7679 60.9792 26.4679Z" fill="url(#paint5_linear_45_308)"/>
<path d="M82.1092 152.263L71.8337 151.842C66.4222 151.621 61.4845 148.726 58.6577 144.114C55.5624 139.082 51.7196 132.854 49.9562 130.159C45.9502 124.048 42.1495 117.826 38.6542 111.43C37.196 108.745 35.78 106.039 34.4429 103.291C34.4271 103.27 34.4219 103.244 34.4113 103.223C32.3215 98.6853 30.737 95.2004 29.9684 93.4265C29.8368 93.1211 29.7263 92.8632 29.6421 92.6632C28.5103 89.9153 27.5733 87.0622 26.8889 84.1722C26.2994 81.6875 27.5575 80.003 30.1316 79.9346C33.3532 79.8556 36.5959 80.1294 39.807 80.4663C42.618 80.7611 45.3922 81.3559 48.3296 81.8349C49.4456 84.4301 51.1143 88.1045 52.9251 91.4314C52.8409 91.3208 52.7514 91.1997 52.6672 91.0892C53.3357 92.6158 53.92 94.0529 54.5833 95.4479C54.5886 95.4584 54.5991 95.4689 54.6044 95.49C55.2255 96.8165 55.8835 98.122 56.5573 99.4065C60.6212 107.182 65.5379 114.43 70.7599 121.479C74.7921 126.911 81.567 134.871 87.2943 141.414C91.0845 145.741 87.8523 152.495 82.1092 152.263Z" fill="url(#paint6_linear_45_308)"/>
<path d="M85.0678 110.725C82.6252 111.267 80.1985 110.92 77.8033 110.43C76.0241 110.067 74.2711 109.546 72.5234 109.046C67.3962 107.582 63.0955 104.919 59.8265 100.728C59.8107 100.707 59.7949 100.686 59.7791 100.665C59.6001 100.439 59.4264 100.207 59.258 99.9704C57.8682 98.049 56.4522 96.1486 55.0046 94.2167C54.3413 93.3324 53.678 92.448 53.0042 91.5478C52.999 91.5426 52.9937 91.532 52.9937 91.532C52.9042 91.3846 52.82 91.2372 52.7357 91.0846C52.7252 91.0741 52.72 91.0688 52.72 91.0583C52.72 91.053 52.7147 91.0425 52.7094 91.0425C50.7143 87.5366 49.1141 84.1202 48.1718 81.8145C47.698 80.6617 47.3927 79.7826 47.2822 79.3141C47.1611 79.0298 47.04 78.7456 46.9189 78.4613C46.9031 78.4297 46.9031 78.4139 46.9031 78.4139C46.6031 77.7138 46.303 77.0032 46.0135 76.303C46.0082 76.2925 46.0083 76.2872 46.003 76.2767C45.266 74.5132 44.5554 72.7392 43.8763 70.9547C42.4866 67.3014 41.2706 63.5903 40.3809 59.7685C40.023 58.2209 39.8229 56.6048 39.7756 55.0151C39.7124 52.9305 40.7442 51.8514 42.8498 51.9303C46.9716 52.0724 57.4576 54.0359 59.0053 54.1465C59.4317 55.552 61.611 62.5796 63.2587 65.638C63.2113 65.5696 63.1639 65.5064 63.1165 65.4379C64.4325 68.4595 65.617 71.5443 67.0014 74.5343C68.3596 77.4611 69.823 80.3195 71.3969 83.1095C75.445 90.3476 80.1458 97.1804 85.1888 103.803C85.91 104.75 86.5891 105.766 87.0787 106.845C88.0051 108.867 87.2524 110.241 85.0678 110.725Z" fill="url(#paint7_linear_45_308)"/>
<defs>
<linearGradient id="paint0_linear_45_308" x1="81.783" y1="158.524" x2="25.6741" y2="-22.19" gradientUnits="userSpaceOnUse">
<stop stop-color="#FF001C"/>
<stop offset="0.2194" stop-color="#FF009D"/>
<stop offset="0.2587" stop-color="#F9049F"/>
<stop offset="0.3112" stop-color="#E80FA3"/>
<stop offset="0.3713" stop-color="#CC22AA"/>
<stop offset="0.437" stop-color="#A53CB4"/>
<stop offset="0.5073" stop-color="#735DC0"/>
<stop offset="0.5802" stop-color="#3785CF"/>
<stop offset="0.6399" stop-color="#00AADD"/>
<stop offset="0.898" stop-color="#E9D013"/>
<stop offset="1" stop-color="#FFD400"/>
</linearGradient>
<linearGradient id="paint1_linear_45_308" x1="80.7596" y1="158.841" x2="24.6508" y2="-21.8732" gradientUnits="userSpaceOnUse">
<stop stop-color="#FF001C"/>
<stop offset="0.2194" stop-color="#FF009D"/>
<stop offset="0.2587" stop-color="#F9049F"/>
<stop offset="0.3112" stop-color="#E80FA3"/>
<stop offset="0.3713" stop-color="#CC22AA"/>
<stop offset="0.437" stop-color="#A53CB4"/>
<stop offset="0.5073" stop-color="#735DC0"/>
<stop offset="0.5802" stop-color="#3785CF"/>
<stop offset="0.6399" stop-color="#00AADD"/>
<stop offset="0.898" stop-color="#E9D013"/>
<stop offset="1" stop-color="#FFD400"/>
</linearGradient>
<linearGradient id="paint2_linear_45_308" x1="87.7982" y1="156.656" x2="31.6891" y2="-24.0584" gradientUnits="userSpaceOnUse">
<stop stop-color="#FF001C"/>
<stop offset="0.2194" stop-color="#FF009D"/>
<stop offset="0.2587" stop-color="#F9049F"/>
<stop offset="0.3112" stop-color="#E80FA3"/>
<stop offset="0.3713" stop-color="#CC22AA"/>
<stop offset="0.437" stop-color="#A53CB4"/>
<stop offset="0.5073" stop-color="#735DC0"/>
<stop offset="0.5802" stop-color="#3785CF"/>
<stop offset="0.6399" stop-color="#00AADD"/>
<stop offset="0.898" stop-color="#E9D013"/>
<stop offset="1" stop-color="#FFD400"/>
</linearGradient>
<linearGradient id="paint3_linear_45_308" x1="100.603" y1="152.681" x2="44.4943" y2="-28.0336" gradientUnits="userSpaceOnUse">
<stop stop-color="#FF001C"/>
<stop offset="0.2194" stop-color="#FF009D"/>
<stop offset="0.2587" stop-color="#F9049F"/>
<stop offset="0.3112" stop-color="#E80FA3"/>
<stop offset="0.3713" stop-color="#CC22AA"/>
<stop offset="0.437" stop-color="#A53CB4"/>
<stop offset="0.5073" stop-color="#735DC0"/>
<stop offset="0.5802" stop-color="#3785CF"/>
<stop offset="0.6399" stop-color="#00AADD"/>
<stop offset="0.898" stop-color="#E9D013"/>
<stop offset="1" stop-color="#FFD400"/>
</linearGradient>
<linearGradient id="paint4_linear_45_308" x1="109.001" y1="150.074" x2="52.8915" y2="-30.6408" gradientUnits="userSpaceOnUse">
<stop stop-color="#FF001C"/>
<stop offset="0.2194" stop-color="#FF009D"/>
<stop offset="0.2587" stop-color="#F9049F"/>
<stop offset="0.3112" stop-color="#E80FA3"/>
<stop offset="0.3713" stop-color="#CC22AA"/>
<stop offset="0.437" stop-color="#A53CB4"/>
<stop offset="0.5073" stop-color="#735DC0"/>
<stop offset="0.5802" stop-color="#3785CF"/>
<stop offset="0.6399" stop-color="#00AADD"/>
<stop offset="0.898" stop-color="#E9D013"/>
<stop offset="1" stop-color="#FFD400"/>
</linearGradient>
<linearGradient id="paint5_linear_45_308" x1="109.891" y1="149.798" x2="53.7817" y2="-30.9172" gradientUnits="userSpaceOnUse">
<stop stop-color="#FF001C"/>
<stop offset="0.2194" stop-color="#FF009D"/>
<stop offset="0.2587" stop-color="#F9049F"/>
<stop offset="0.3112" stop-color="#E80FA3"/>
<stop offset="0.3713" stop-color="#CC22AA"/>
<stop offset="0.437" stop-color="#A53CB4"/>
<stop offset="0.5073" stop-color="#735DC0"/>
<stop offset="0.5802" stop-color="#3785CF"/>
<stop offset="0.6399" stop-color="#00AADD"/>
<stop offset="0.898" stop-color="#E9D013"/>
<stop offset="1" stop-color="#FFD400"/>
</linearGradient>
<linearGradient id="paint6_linear_45_308" x1="73.7443" y1="55.011" x2="26.0151" y2="233.661" gradientUnits="userSpaceOnUse">
<stop offset="0.0536" stop-color="#00539D"/>
<stop offset="0.1523" stop-color="#6B309D"/>
<stop offset="0.2326" stop-color="#BA169D"/>
<stop offset="0.2891" stop-color="#EC069D"/>
<stop offset="0.3169" stop-color="#FF009D"/>
<stop offset="0.3881" stop-color="#FF0083"/>
<stop offset="0.4849" stop-color="#FF0066"/>
<stop offset="0.5885" stop-color="#FF004F"/>
<stop offset="0.7006" stop-color="#FF003F"/>
<stop offset="0.8274" stop-color="#FF0036"/>
<stop offset="1" stop-color="#FF0033"/>
</linearGradient>
<linearGradient id="paint7_linear_45_308" x1="75.8179" y1="52.3108" x2="7.80694" y2="214.566" gradientUnits="userSpaceOnUse">
<stop offset="0.0338" stop-color="#2E8CFF"/>
<stop offset="0.0993" stop-color="#6567E5"/>
<stop offset="0.1648" stop-color="#9448CF"/>
<stop offset="0.23" stop-color="#BA2EBD"/>
<stop offset="0.2941" stop-color="#D81AAF"/>
<stop offset="0.357" stop-color="#EE0CA5"/>
<stop offset="0.4179" stop-color="#FB039F"/>
<stop offset="0.4749" stop-color="#FF009D"/>
</linearGradient>
</defs>
</svg>
