<svg width="256" height="176" viewBox="0 0 256 176" fill="none" xmlns="http://www.w3.org/2000/svg">
<path fill-rule="evenodd" clip-rule="evenodd" d="M28.5459 6.94908L40.3243 18.8133C32.092 26.6198 35.8275 24.5172 28.8109 25.9353C22.6146 27.1533 26.7076 25.5562 24.2215 28.4451C17.2344 36.5183 16.5655 34.0613 3.56298 32.4782L0 47.7613C7.80742 46.8241 6.73053 47.154 10.0958 52.2753L22.6146 68.6254C23.5863 69.8189 23.3718 69.3871 24.2972 70.7034C24.4192 70.8578 24.5706 71.086 24.6926 71.2615L25.7863 73.0622C26.7286 74.4662 27.7003 75.5719 29.1895 77.4218C33.5938 82.8976 30.0686 85.8461 35.7223 89.9459C37.0852 90.9603 39.0623 91.3499 41.2203 92.5293C48.6617 96.5625 48.9352 100.252 51.2446 104.597C58.3958 118.111 51.1226 107.563 54.6098 120.491C59.3759 138.312 67.4904 131.141 76.0256 142.254C82.4069 150.541 78.457 153.153 90.7486 162.963L98.964 173.869C100.394 175.975 98.8757 174.477 100.605 176C108.871 168.724 101.446 172.841 105.955 164.792C112.686 164.09 107.638 166.137 114.276 166.112L126.34 165.224C130.076 165.224 135.788 167.049 141.408 167.176C154.411 167.456 144.08 168.267 153.132 170.335C157.759 169.956 156.535 166.505 163.434 159.738C174.918 148.484 201.255 151.805 216.748 147.101C256.488 135.037 247.158 142.44 254.662 122.285C259.008 110.624 251.381 108.774 251.322 108.872L248.466 108.42C223.799 105.478 220.122 109.585 208.924 93.8421C205.857 89.5071 208.773 90.5953 203.876 90.0372L206.249 86.527C191.786 87.8433 196.708 77.4779 187.958 69.7943C191.542 67.7409 187.929 71.7213 190.874 67.9971C189.052 64.7502 189.809 67.3126 188.77 64.3957C187.618 61.0751 191.93 64.7011 186.886 61.3033C175.557 53.6477 181.266 55.6239 176.437 52.9106C171.847 50.3271 176.466 53.7249 171.759 47.1575C171.637 46.982 171.452 46.7784 171.338 46.5994C170.362 45.0795 169.971 43.507 169.727 41.7589L159.211 41.9625L157.112 36.9747C131.716 31.0425 136.079 43.8966 106.41 22.8815C102.796 20.2946 97.6011 17.0512 94.2569 14.2361C87.7577 8.73573 66.0055 -1.17685 55.7961 0.114878C53.6928 0.395688 50.1761 1.891 46.9875 2.62461C41.3675 3.91985 34.4098 6.13473 28.5459 6.93504V6.94908Z" fill="url(#paint0_radial_310_377)"/>
<path d="M73.2662 117.545C73.3937 117.008 73.3126 116.504 73.0229 116.034C72.7332 115.564 72.3196 115.265 71.7821 115.138C71.2446 115.01 70.7409 115.091 70.2709 115.381C69.801 115.671 69.5022 116.084 69.3747 116.622C69.2471 117.159 69.3282 117.663 69.6179 118.133C69.9076 118.603 70.3212 118.902 70.8587 119.029C71.3962 119.157 71.8999 119.076 72.3699 118.786C72.8399 118.496 73.1386 118.083 73.2662 117.545ZM74.7255 114.985C75.0234 115.468 75.1948 115.91 75.2398 116.31L75.9921 122.95C76.0113 123.14 75.976 123.321 75.886 123.493C75.8005 123.662 75.678 123.795 75.5183 123.894C75.3587 123.992 75.182 124.043 74.9882 124.046C74.7989 124.047 74.6258 123.994 74.4691 123.889L68.8686 120.238C68.531 120.018 68.2133 119.666 67.9154 119.183C67.336 118.243 67.1738 117.235 67.4289 116.16C67.684 115.085 68.2815 114.258 69.2214 113.679C70.1614 113.099 71.1688 112.937 72.2438 113.192C73.3189 113.447 74.1461 114.045 74.7255 114.985Z" fill="black"/>
<path d="M90.9859 112.654L91.655 113.739L87.3263 116.407C86.5432 116.89 85.863 117.168 85.2859 117.242C84.7088 117.316 84.1738 117.182 83.6809 116.839C83.188 116.497 82.687 115.913 82.178 115.088C81.6795 114.279 81.3839 113.58 81.291 112.991C81.193 112.394 81.3023 111.856 81.619 111.379C81.9305 110.894 82.4735 110.412 83.2482 109.934C83.6227 109.704 84.1483 109.403 84.8247 109.033C85.5012 108.663 85.9989 108.403 86.3178 108.254L89.5686 113.527L90.9859 112.654ZM83.3832 114.327C83.7243 114.88 84.0557 115.275 84.3776 115.511C84.7079 115.742 85.0641 115.834 85.446 115.787C85.8279 115.739 86.2785 115.555 86.7977 115.235L88.3683 114.267L85.7472 110.015C85.0347 110.384 84.4784 110.692 84.0783 110.938C83.5761 111.248 83.2206 111.567 83.0119 111.895C82.8064 112.21 82.7369 112.564 82.8034 112.958C82.8646 113.343 83.0579 113.799 83.3832 114.327ZM99.6943 107.285L100.363 108.371L91.655 113.739L90.9859 112.654L96.7064 109.127L95.6123 107.352C95.3185 106.876 94.9661 106.523 94.5551 106.295C94.1442 106.067 93.7361 106.071 93.3307 106.31L89.8831 108.435L88.5571 107.913L88.4172 106.114C88.3847 105.699 88.3889 105.191 88.4298 104.591C88.4738 103.976 88.5347 103.398 88.6122 102.857L89.7875 102.82C89.7419 104.023 89.7498 105.046 89.8114 105.889L89.878 106.94L92.8021 105.138C93.6108 104.639 94.3612 104.57 95.0533 104.931C95.7539 105.286 96.343 105.851 96.8205 106.625L97.9067 108.387L99.6943 107.285ZM100.865 99.0752C101.971 98.393 102.923 98.1646 103.72 98.39C104.525 98.6102 105.29 99.3076 106.014 100.482L107.982 103.675L100.359 108.374L99.6897 107.288L101.758 106.013C101.209 105.389 100.727 104.74 100.312 104.068C99.9817 103.531 99.6868 102.967 99.4276 102.375C99.1631 101.775 98.9649 101.262 98.8329 100.839C99.005 100.603 99.2675 100.324 99.6204 100.001C99.9817 99.6723 100.397 99.3638 100.865 99.0752ZM101.513 103.328C101.749 103.711 102.002 104.083 102.272 104.445C102.545 104.794 102.774 105.07 102.959 105.273L106.1 103.337L104.785 101.205C104.302 100.421 103.79 99.9619 103.248 99.8261C102.71 99.6765 102.083 99.8221 101.368 100.263C101.002 100.488 100.668 100.747 100.366 101.039C100.721 101.901 101.103 102.664 101.513 103.328Z" fill="black" fill-opacity="0.8"/>
<path d="M55.0771 109.686C55.2617 109.166 55.2352 108.656 54.9977 108.158C54.7601 107.659 54.381 107.318 53.8603 107.133C53.3396 106.949 52.8301 106.975 52.3317 107.213C51.8334 107.45 51.4919 107.829 51.3074 108.35C51.1228 108.871 51.1493 109.38 51.3868 109.879C51.6243 110.377 52.0034 110.718 52.5241 110.903C53.0448 111.088 53.5544 111.061 54.0527 110.824C54.5511 110.586 54.8926 110.207 55.0771 109.686ZM56.8031 107.297C57.0473 107.81 57.1703 108.267 57.172 108.67L57.2066 115.353C57.2053 115.544 57.1507 115.72 57.0428 115.881C56.9397 116.039 56.8034 116.159 56.6342 116.24C56.4649 116.32 56.2838 116.352 56.0908 116.334C55.9024 116.315 55.736 116.244 55.5916 116.122L50.4158 111.891C50.1038 111.635 49.8256 111.252 49.5814 110.739C49.1063 109.742 49.0534 108.723 49.4225 107.682C49.7916 106.641 50.4745 105.882 51.4713 105.407C52.468 104.932 53.4871 104.879 54.5284 105.248C55.5698 105.617 56.328 106.3 56.8031 107.297Z" fill="black"/>
<path d="M61.2462 103.596C61.6434 103.407 62.1981 103.165 62.9104 102.87C63.6227 102.574 64.1455 102.37 64.4786 102.255L67.6925 108.998L64.6053 110.47C63.7748 110.866 63.0687 111.069 62.487 111.081C61.9053 111.092 61.3878 110.901 60.9345 110.508C60.4812 110.115 60.0459 109.48 59.6286 108.605C59.2198 107.747 59.001 107.02 58.972 106.425C58.9386 105.821 59.1051 105.298 59.4712 104.858C59.8331 104.408 60.4247 103.988 61.2462 103.596ZM60.9085 107.978C61.1881 108.565 61.4753 108.993 61.7699 109.262C62.0735 109.527 62.4177 109.657 62.8025 109.651C63.1873 109.645 63.655 109.51 64.2056 109.248L65.8712 108.454L63.7221 103.945C62.9741 104.235 62.388 104.481 61.9637 104.683C61.4311 104.937 61.0434 105.216 60.8006 105.52C60.5625 105.811 60.4553 106.156 60.4791 106.554C60.4986 106.944 60.6417 107.418 60.9085 107.978ZM75.4483 103.889L75.9969 105.04L69.0099 108.371L68.4613 107.22L72.8485 105.129L72.2548 103.883C71.6438 102.601 70.9653 101.817 70.2193 101.53C69.469 101.234 68.7598 101.245 68.0918 101.563L66.9138 102.125L66.3608 101.209C66.4747 101.099 66.6743 100.948 66.9597 100.757C67.2451 100.565 67.5232 100.405 67.7941 100.276C68.444 99.9664 69.1061 99.8447 69.7802 99.9111C70.4591 99.9642 71.12 100.258 71.763 100.794C72.4059 101.329 72.9833 102.134 73.4953 103.208L74.1213 104.522L75.4483 103.889ZM77.0205 96.0781C77.7336 95.7382 78.3772 95.6475 78.9512 95.806C79.5209 95.9554 80.0037 96.4453 80.3995 97.2758L82.6002 101.893L75.9923 105.043L75.4438 103.892L80.7788 101.349L79.1912 98.0179C78.7782 97.1513 78.1293 96.9288 77.2447 97.3504C76.8475 97.5398 75.9476 98.0573 74.545 98.903L74.072 98.0151C74.5035 97.6655 75.0023 97.3059 75.5684 96.9364C76.1393 96.5535 76.6233 96.2674 77.0205 96.0781ZM79.7719 104.571L81.0041 103.983L81.6366 105.31L80.4044 105.898L79.7719 104.571Z" fill="black" fill-opacity="0.8"/>
<path d="M135.237 70.0366C135.627 69.646 135.823 69.1746 135.823 68.6226C135.823 68.0705 135.627 67.5991 135.237 67.2085C134.846 66.8179 134.375 66.6226 133.823 66.6226C133.271 66.6226 132.799 66.8179 132.409 67.2085C132.018 67.5991 131.823 68.0705 131.823 68.6226C131.823 69.1746 132.018 69.646 132.409 70.0366C132.799 70.4272 133.271 70.6226 133.823 70.6226C134.375 70.6226 134.846 70.4272 135.237 70.0366ZM137.823 68.6226C137.823 69.1903 137.737 69.6564 137.565 70.021L134.721 76.0679C134.638 76.2397 134.513 76.3752 134.346 76.4741C134.185 76.5731 134.01 76.6226 133.823 76.6226C133.635 76.6226 133.458 76.5731 133.292 76.4741C133.13 76.3752 133.01 76.2397 132.932 76.0679L130.081 70.021C129.909 69.6564 129.823 69.1903 129.823 68.6226C129.823 67.5184 130.213 66.5757 130.995 65.7944C131.776 65.0132 132.719 64.6226 133.823 64.6226C134.927 64.6226 135.87 65.0132 136.651 65.7944C137.432 66.5757 137.823 67.5184 137.823 68.6226Z" fill="black"/>
<path d="M159.641 76.4458H151.976V77.0458C151.976 77.6558 151.806 78.1958 151.466 78.6658C151.136 79.1458 150.671 79.5158 150.071 79.7758C149.471 80.0358 148.791 80.1658 148.031 80.1658C147.191 80.1658 146.466 80.0108 145.856 79.7008C145.246 79.4008 144.781 79.0008 144.461 78.5008C144.141 78.0008 143.981 77.4658 143.981 76.8958C143.981 76.2358 144.186 74.7108 144.596 72.3208L145.961 72.3958C145.821 73.2658 145.686 74.1158 145.556 74.9458C145.436 75.7758 145.376 76.3308 145.376 76.6108C145.376 77.0208 145.486 77.4008 145.706 77.7508C145.926 78.1008 146.231 78.3758 146.621 78.5758C147.021 78.7858 147.471 78.8908 147.971 78.8908C148.451 78.8908 148.886 78.7958 149.276 78.6058C149.676 78.4258 149.986 78.1708 150.206 77.8408C150.436 77.5208 150.551 77.1608 150.551 76.7608V68.9458H151.976V71.3458C152.426 70.7858 152.831 70.3308 153.191 69.9808C153.561 69.6308 153.991 69.3458 154.481 69.1258C154.971 68.9058 155.536 68.7958 156.176 68.7958C157.436 68.7958 158.326 69.1858 158.846 69.9658C159.376 70.7358 159.641 71.6408 159.641 72.6808V76.4458ZM155.951 70.0708C154.581 70.0708 153.256 71.0958 151.976 73.1458V75.1708H158.216V72.9208C158.216 72.1108 158.021 71.4358 157.631 70.8958C157.241 70.3458 156.681 70.0708 155.951 70.0708ZM154.541 66.0808H155.906V67.5508H154.541V66.0808ZM164.689 75.1708V76.4458H161.839V65.7658H163.264V75.1708H164.689ZM168.354 68.9458V76.4458H164.694V75.1708H166.929V68.9458H168.354ZM165.999 77.6458H167.274V79.0858H165.999V77.6458ZM168.009 77.6458H169.269V79.0858H168.009V77.6458ZM176.354 76.4458H174.284V76.5358C174.284 77.7158 174.079 78.6158 173.669 79.2358C173.259 79.8658 172.639 80.1808 171.809 80.1808C171.579 80.1808 171.329 80.1658 171.059 80.1358L170.699 80.1058V78.8458C171.029 78.8758 171.299 78.8908 171.509 78.8908C171.959 78.8908 172.299 78.7108 172.529 78.3508C172.759 77.9908 172.874 77.4858 172.874 76.8358V68.9608H174.284V75.1708H176.354V76.4458ZM179.624 65.7658V76.4458H176.354V75.1708H178.199V65.7658H179.624ZM182.229 65.7658H183.654V76.4458H182.229V65.7658Z" fill="black" fill-opacity="0.8"/>
<defs>
<radialGradient id="paint0_radial_310_377" cx="0" cy="0" r="1" gradientUnits="userSpaceOnUse" gradientTransform="translate(-8.08503 -20.6756) scale(468.298 390.764)">
<stop stop-color="#DEECDF"/>
<stop offset="1" stop-color="#2F8ACB"/>
</radialGradient>
</defs>
</svg>
