<svg width="32" height="32" viewBox="0 0 32 32" fill="none" xmlns="http://www.w3.org/2000/svg">
<g id="Phone">
<path id="Vector" d="M27.308 20.649L25.108 18.449C24.4522 17.7985 23.567 17.4317 22.6433 17.4278C21.7196 17.4238 20.8313 17.7831 20.17 18.428C19.8171 18.7829 19.3516 19.0037 18.8535 19.0524C18.3554 19.1012 17.856 18.9748 17.441 18.695C15.8032 17.602 14.3962 16.1977 13.3 14.562C13.0252 14.1424 12.9033 13.6409 12.9551 13.142C13.0068 12.6431 13.2289 12.1773 13.584 11.823C14.2231 11.1611 14.5777 10.2753 14.5719 9.35519C14.5661 8.4351 14.2004 7.55384 13.553 6.90001L11.353 4.70001C10.6943 4.04362 9.80237 3.67505 8.87249 3.67505C7.94262 3.67505 7.05065 4.04362 6.39199 4.70001L5.75899 5.33401C2.45899 8.63401 2.70599 15.572 9.57199 22.434C13.712 26.575 17.879 28.309 21.258 28.309C22.2527 28.3421 23.244 28.177 24.1742 27.8231C25.1043 27.4693 25.9548 26.9338 26.676 26.248L27.31 25.614C27.9676 24.9551 28.3367 24.062 28.3364 23.1311C28.336 22.2002 27.9661 21.3074 27.308 20.649ZM25.894 24.2L25.26 24.834C22.66 27.434 16.921 26.959 10.984 21.021C5.04699 15.083 4.57099 9.34001 7.17099 6.74001L7.79999 6.10701C8.0832 5.82483 8.4667 5.66638 8.86649 5.66638C9.26629 5.66638 9.64979 5.82483 9.93299 6.10701L12.133 8.30701C12.4111 8.58647 12.5689 8.96353 12.5728 9.35774C12.5767 9.75194 12.4264 10.1321 12.154 10.417C11.4783 11.097 11.0568 11.9886 10.9601 12.9424C10.8634 13.8962 11.0975 14.8542 11.623 15.656C12.8685 17.5199 14.4702 19.1192 16.336 20.362C17.1354 20.8876 18.0909 21.123 19.043 21.0289C19.995 20.9348 20.886 20.5169 21.567 19.845C21.8514 19.5693 22.2326 19.4163 22.6287 19.4187C23.0247 19.4211 23.404 19.5789 23.685 19.858L25.885 22.058C26.0268 22.1978 26.1395 22.3641 26.2168 22.5476C26.294 22.7311 26.3342 22.9281 26.335 23.1271C26.3359 23.3262 26.2973 23.5235 26.2217 23.7076C26.146 23.8917 26.0346 24.0591 25.894 24.2Z" fill="#152031"/>
</g>
</svg>
