<svg width="24" height="24" viewBox="0 0 24 24" fill="none" xmlns="http://www.w3.org/2000/svg">
<g id="Phone">
<path id="Vector" d="M20.481 15.4868L18.831 13.8368C18.3391 13.3489 17.6752 13.0738 16.9824 13.0709C16.2897 13.0679 15.6235 13.3374 15.1275 13.8211C14.8628 14.0872 14.5137 14.2528 14.1401 14.2894C13.7666 14.3259 13.3919 14.2311 13.0807 14.0213C11.8524 13.2015 10.7971 12.1483 9.97497 10.9216C9.76885 10.6069 9.67748 10.2308 9.71628 9.85658C9.75508 9.4824 9.92167 9.13302 10.188 8.86732C10.6673 8.37087 10.9332 7.70652 10.9289 7.01645C10.9246 6.32639 10.6503 5.66544 10.1647 5.17507L8.51472 3.52507C8.02073 3.03277 7.35176 2.75635 6.65435 2.75635C5.95694 2.75635 5.28796 3.03277 4.79397 3.52507L4.31922 4.00057C1.84422 6.47557 2.02947 11.6791 7.17897 16.8256C10.284 19.9313 13.4092 21.2318 15.9435 21.2318C16.6895 21.2567 17.433 21.1328 18.1306 20.8674C18.8282 20.602 19.4661 20.2004 20.007 19.6861L20.4825 19.2106C20.9757 18.7164 21.2525 18.0466 21.2522 17.3484C21.252 16.6502 20.9746 15.9806 20.481 15.4868ZM19.4205 18.1501L18.945 18.6256C16.995 20.5756 12.6907 20.2193 8.23797 15.7658C3.78522 11.3123 3.42822 7.00507 5.37822 5.05507L5.84997 4.58032C6.06238 4.36868 6.35 4.24985 6.64985 4.24985C6.94969 4.24985 7.23732 4.36868 7.44972 4.58032L9.09972 6.23032C9.30827 6.43991 9.42665 6.72271 9.42959 7.01836C9.43253 7.31402 9.31981 7.59912 9.11547 7.81282C8.60868 8.32284 8.29255 8.99153 8.22005 9.70687C8.14754 10.4222 8.32307 11.1407 8.71722 11.7421C9.65138 13.14 10.8527 14.3395 12.252 15.2716C12.8515 15.6658 13.5682 15.8423 14.2822 15.7718C14.9962 15.7012 15.6645 15.3878 16.1752 14.8838C16.3885 14.6771 16.6744 14.5623 16.9715 14.5641C17.2685 14.5659 17.553 14.6842 17.7637 14.8936L19.4137 16.5436C19.5201 16.6484 19.6046 16.7732 19.6626 16.9108C19.7205 17.0484 19.7506 17.1961 19.7513 17.3454C19.7519 17.4947 19.723 17.6427 19.6662 17.7808C19.6094 17.9189 19.5259 18.0444 19.4205 18.1501Z" fill="white"/>
</g>
</svg>
