<svg width="52" height="52" viewBox="0 0 52 52" fill="none" xmlns="http://www.w3.org/2000/svg">
<g id="Service" clip-path="url(#clip0_412_635)">
<path id="Vector" d="M21.9916 36.0749C21.9916 34.6666 21.4499 33.3666 20.4749 32.2833L13.7582 25.5666C13.4332 25.2416 12.8916 25.1333 12.4582 25.2416C12.0249 25.3499 11.5916 25.7833 11.4832 26.3249C11.2666 27.4083 10.7249 29.7916 11.2666 31.7416L11.3749 31.9583L13.7582 34.3416L12.9999 34.4499C11.9166 34.4499 10.9416 34.0166 10.1832 33.2583L7.36657 30.4416V23.8333C7.36657 21.8833 6.1749 20.1499 4.44157 19.3916C3.5749 19.0666 2.5999 18.8499 1.73324 18.8499H0.649902V32.0666C0.649902 33.1499 1.08324 34.1249 1.84157 34.8833L9.64157 42.6833V43.0083H6.71657V51.2416H24.4832V43.0083H21.9916V36.0749ZM3.2499 33.4749C2.9249 33.1499 2.70824 32.7166 2.70824 32.1749V21.2333C2.9249 21.3416 3.2499 21.3416 3.46657 21.4499C4.44157 21.8833 5.09157 22.8583 5.09157 23.8333V31.4166L8.55824 34.8833C9.7499 36.0749 11.3749 36.7249 12.9999 36.7249L15.7082 36.2916C16.1416 36.1833 16.5749 35.8583 16.6832 35.4249C16.7916 34.9916 16.6832 34.4499 16.3582 34.1249L13.1082 30.8749C12.8916 30.0083 12.9999 29.0333 13.1082 28.1666L18.7416 33.7999C19.3916 34.4499 19.7166 35.2083 19.7166 36.0749V43.2249H11.5916V42.8999C11.5916 42.2499 11.3749 41.7083 10.9416 41.2749L3.2499 33.4749ZM22.2082 45.3916V49.2916H8.88323V45.3916H9.53323H21.9916H22.2082ZM47.6666 19.4999C45.9332 20.2583 44.7416 21.9916 44.7416 23.9416V30.5499L41.9249 33.3666C41.1666 34.1249 40.1916 34.5583 39.1082 34.5583L38.3499 34.4499L40.7332 32.0666L40.8416 31.8499C41.3832 29.7916 40.9499 27.5166 40.6249 26.3249C40.5166 25.8916 40.1916 25.4583 39.6499 25.3499C39.2166 25.2416 38.6749 25.3499 38.3499 25.6749L31.6332 32.3916C30.6582 33.3666 30.1166 34.7749 30.1166 36.1833V43.3333H27.6249V51.5666H45.3916V43.3333H42.5749V42.8999L50.3749 35.0999C51.1332 34.3416 51.5666 33.3666 51.5666 32.2833V18.9583H50.4832C49.3999 18.9583 48.5332 19.1749 47.6666 19.4999ZM43.1166 45.3916V49.2916H29.7916V45.3916H30.1166H42.5749H43.1166ZM49.2916 32.1749C49.2916 32.7166 49.0749 33.1499 48.7499 33.4749L40.9499 41.2749C40.5166 41.7083 40.2999 42.2499 40.2999 42.8999V43.2249H32.1749V36.0749C32.1749 35.2083 32.4999 34.4499 33.1499 33.7999L38.7832 28.1666C38.8916 29.0333 38.9999 30.0083 38.7832 30.8749L35.5332 34.1249C35.2082 34.4499 35.0999 34.9916 35.2082 35.4249C35.3166 35.8583 35.7499 36.1833 36.1832 36.2916L38.7832 36.7249H38.9999C40.7332 36.7249 42.2499 36.0749 43.4416 34.8833L46.9082 31.4166V23.9416C46.9082 22.8583 47.5582 21.8833 48.5332 21.5583C48.7499 21.4499 49.0749 21.3416 49.2916 21.3416V32.1749ZM26.3249 7.69159C22.4249 7.47492 19.1749 10.5083 18.9582 14.4083C18.8499 16.2499 19.4999 18.0916 20.7999 19.4999C22.0999 20.9083 23.8332 21.6666 25.6749 21.7749C25.7832 21.7749 25.8916 21.7749 25.9999 21.7749C29.6832 21.7749 32.8249 18.8499 33.0416 15.0583C33.2582 11.1583 30.2249 7.90825 26.3249 7.69159ZM25.7832 19.6083C24.4832 19.4999 23.2916 18.9583 22.4249 17.9833C21.5582 17.0083 21.1249 15.8166 21.1249 14.5166C21.2332 11.9166 23.3999 9.85825 25.9999 9.85825C26.1082 9.85825 26.2166 9.85825 26.2166 9.85825C28.9249 9.96659 30.9832 12.2416 30.8749 14.9499C30.7666 17.6583 28.4916 19.7166 25.7832 19.6083Z" fill="url(#paint0_linear_412_635)"/>
<path id="Vector_2" d="M40.1917 17.0077V12.241L37.375 11.591C37.1584 10.616 36.725 9.74935 36.1834 8.77435L37.7 6.28268L34.2334 2.92435L31.7417 4.44102C30.875 3.89935 29.9 3.57435 28.925 3.35768L28.275 0.541016H23.5084L22.8584 3.35768C21.8834 3.57435 21.0167 4.00768 20.0417 4.54935L17.55 3.03268L14.3 6.49935L15.8167 8.99102C15.275 9.85768 14.95 10.8327 14.625 11.8077L11.8083 12.4577V17.2243L14.625 17.8743C14.8417 18.8493 15.275 19.716 15.8167 20.691L14.3 23.1827L17.7667 26.541L20.2584 25.0244C21.125 25.566 22.1 25.891 23.075 26.1077L23.725 28.9244H28.4917L29.1417 26.1077C30.1167 25.891 30.9834 25.4577 31.9584 24.916L34.45 26.4327L37.8084 22.966L36.2917 20.4743C36.8334 19.6077 37.1584 18.6327 37.375 17.6577L40.1917 17.0077ZM35.5333 15.9243L35.425 16.5744C35.2084 17.766 34.775 18.8493 34.125 19.9327L33.8 20.4743L35.1 22.641L34.125 23.616L31.9584 22.316L31.4167 22.7493C30.4417 23.3993 29.25 23.941 28.1667 24.1577L27.5167 24.266L26.975 26.7577H25.5667L24.9167 24.266L24.2667 24.1577C23.075 23.941 21.9917 23.5077 20.9083 22.8577L20.3667 22.5327L18.2 23.8327L17.1167 22.7493L18.4167 20.5827L17.9834 20.041C17.3334 19.066 16.7917 17.8743 16.575 16.791L16.4667 16.141L13.975 15.5993V14.191L16.4667 13.541L16.575 12.891C16.7917 11.6993 17.225 10.616 17.875 9.53268L18.2 8.99102L16.9 6.82435L17.875 5.84935L20.0417 7.14935L20.5834 6.71602C21.5584 6.06602 22.75 5.52435 23.8334 5.30768L24.4834 5.19935L25.025 2.70768H26.4334L27.0834 5.19935L27.7334 5.30768C28.925 5.52435 30.0084 5.95768 31.0917 6.60768L31.6334 6.93268L33.8 5.63268L34.775 6.60768L33.475 8.77435L33.9083 9.31602C34.5583 10.291 35.1 11.4827 35.3167 12.566L35.425 13.216L37.9167 13.7577V15.166L35.5333 15.9243Z" fill="url(#paint1_linear_412_635)"/>
</g>
<defs>
<linearGradient id="paint0_linear_412_635" x1="-4.14659" y1="7.68066" x2="64.5974" y2="25.5146" gradientUnits="userSpaceOnUse">
<stop stop-color="#FF0065"/>
<stop offset="1" stop-color="#179AD7"/>
</linearGradient>
<linearGradient id="paint1_linear_412_635" x1="9.13456" y1="0.541014" x2="48.0872" y2="9.25092" gradientUnits="userSpaceOnUse">
<stop stop-color="#FF0065"/>
<stop offset="1" stop-color="#179AD7"/>
</linearGradient>
<clipPath id="clip0_412_635">
<rect width="52" height="52" fill="white"/>
</clipPath>
</defs>
</svg>
