<svg width="52" height="52" viewBox="0 0 52 52" fill="none" xmlns="http://www.w3.org/2000/svg">
<g id="share session" clip-path="url(#clip0_412_643)">
<path id="Vector" d="M11.9167 37.9173C5.34625 37.9173 0 32.5711 0 26.0007C0 19.4302 5.34625 14.084 11.9167 14.084C16.4547 14.084 20.5378 16.6092 22.5712 20.6739C23.3967 22.3 23.8333 24.1438 23.8333 26.0007C23.8333 27.8575 23.3967 29.7013 22.568 31.3328C20.5378 35.3921 16.4547 37.9173 11.9167 37.9173ZM11.9167 16.2507C6.54008 16.2507 2.16667 20.6252 2.16667 26.0007C2.16667 31.3762 6.54008 35.7506 11.9167 35.7506C15.6303 35.7506 18.9702 33.6847 20.6332 30.3578C21.32 29.0047 21.6667 27.5401 21.6667 26.0007C21.6667 24.4612 21.32 22.9966 20.6364 21.6478C18.9702 18.3166 15.6303 16.2507 11.9167 16.2507Z" fill="url(#paint0_linear_412_643)"/>
<path id="Vector_2" d="M11.9167 28.1667C11.0024 28.1667 10.0935 27.8687 9.35787 27.3282C8.24962 26.5297 7.58337 25.2211 7.58337 23.8333C7.58337 21.4435 9.52687 19.5 11.9167 19.5C14.3065 19.5 16.25 21.4435 16.25 23.8333C16.25 25.2211 15.5838 26.5298 14.4669 27.3336C13.74 27.8688 12.831 28.1667 11.9167 28.1667ZM11.9167 21.6667C10.7218 21.6667 9.75004 22.6384 9.75004 23.8333C9.75004 24.5364 10.0718 25.1712 10.6319 25.5753C11.3826 26.1278 12.4595 26.1213 13.1907 25.5818C13.7616 25.1712 14.0834 24.5364 14.0834 23.8333C14.0834 22.6384 13.1116 21.6667 11.9167 21.6667Z" fill="url(#paint1_linear_412_643)"/>
<path id="Vector_3" d="M16.25 32.5H7.58333C6.98425 32.5 6.5 32.0147 6.5 31.4167V30.3333C6.5 28.2588 7.657 26.4008 9.52142 25.4833C9.88217 25.3034 10.3155 25.3435 10.6416 25.5818C11.3739 26.1213 12.4594 26.1213 13.1918 25.5818C13.5168 25.3424 13.9458 25.3056 14.3076 25.48C14.8211 25.7292 15.301 26.0683 15.7343 26.4875C16.7722 27.5394 17.3333 28.899 17.3333 30.3333V31.4167C17.3333 32.0147 16.8491 32.5 16.25 32.5ZM8.66667 30.3333H15.1667C15.1667 29.4721 14.8276 28.6531 14.2112 28.028C14.0963 27.9175 13.9696 27.8113 13.8363 27.716C12.6468 28.3032 11.1843 28.3032 9.997 27.716C9.165 28.3194 8.66667 29.2803 8.66667 30.3333ZM40.0833 23.8333C35.5453 23.8333 31.4622 21.3081 29.4288 17.2434C28.6033 15.6173 28.1667 13.7735 28.1667 11.9167C28.1667 5.34625 33.5129 0 40.0833 0C46.6538 0 52 5.34625 52 11.9167C52 18.4871 46.6538 23.8333 40.0833 23.8333ZM40.0833 2.16667C34.7068 2.16667 30.3333 6.54117 30.3333 11.9167C30.3333 13.4561 30.68 14.9208 31.3636 16.2684C33.0298 19.6007 36.3697 21.6667 40.0833 21.6667C45.4599 21.6667 49.8333 17.2922 49.8333 11.9167C49.8333 6.54117 45.4599 2.16667 40.0833 2.16667Z" fill="url(#paint2_linear_412_643)"/>
<path id="Vector_4" d="M40.0833 14.0827C39.169 14.0827 38.2601 13.7848 37.5245 13.2442C36.4163 12.4458 35.75 11.1371 35.75 9.74935C35.75 7.35952 37.6935 5.41602 40.0833 5.41602C42.4732 5.41602 44.4167 7.35952 44.4167 9.74935C44.4167 11.1371 43.7504 12.4458 42.6335 13.2496C41.9066 13.7848 40.9977 14.0827 40.0833 14.0827ZM40.0833 7.58268C38.8884 7.58268 37.9167 8.55443 37.9167 9.74935C37.9167 10.4524 38.2384 11.0873 38.7985 11.4913C39.5492 12.0438 40.6261 12.0373 41.3573 11.4978C41.9282 11.0873 42.25 10.4524 42.25 9.74935C42.25 8.55443 41.2782 7.58268 40.0833 7.58268Z" fill="url(#paint3_linear_412_643)"/>
<path id="Vector_5" d="M44.4166 18.4168H35.75C35.1509 18.4168 34.6666 17.9315 34.6666 17.3335V16.2502C34.6666 14.1756 35.8236 12.3177 37.688 11.4001C38.0499 11.2213 38.4821 11.2593 38.8082 11.4987C39.5405 12.0382 40.626 12.0382 41.3584 11.4987C41.6834 11.2603 42.1135 11.2213 42.4742 11.3968C42.9877 11.646 43.4676 11.9851 43.901 12.4043C44.9388 13.4563 45.5 14.8158 45.5 16.2502V17.3335C45.5 17.9315 45.0157 18.4168 44.4166 18.4168ZM36.8333 16.2502H43.3333C43.3333 15.3889 42.9942 14.5699 42.3778 13.9448C42.263 13.8343 42.1362 13.7282 42.003 13.6328C40.8135 14.22 39.351 14.22 38.1636 13.6328C37.3316 14.2363 36.8333 15.1972 36.8333 16.2502ZM40.0833 52.0002C33.5129 52.0002 28.1666 46.6539 28.1666 40.0835C28.1666 38.2267 28.6032 36.3828 29.432 34.7513C31.4621 30.6921 35.5452 28.1668 40.0833 28.1668C46.6537 28.1668 52 33.5131 52 40.0835C52 46.6539 46.6537 52.0002 40.0833 52.0002ZM40.0833 30.3335C36.3696 30.3335 33.0297 32.3994 31.3668 35.7253C30.68 37.0794 30.3333 38.5441 30.3333 40.0835C30.3333 45.459 34.7067 49.8335 40.0833 49.8335C45.4599 49.8335 49.8333 45.459 49.8333 40.0835C49.8333 34.708 45.4599 30.3335 40.0833 30.3335Z" fill="url(#paint4_linear_412_643)"/>
<path id="Vector_6" d="M40.0833 42.2507C39.169 42.2507 38.2601 41.9527 37.5245 41.4122C36.4163 40.6137 35.75 39.3051 35.75 37.9173C35.75 35.5275 37.6935 33.584 40.0833 33.584C42.4732 33.584 44.4167 35.5275 44.4167 37.9173C44.4167 39.3051 43.7504 40.6137 42.6335 41.4176C41.9066 41.9527 40.9977 42.2507 40.0833 42.2507ZM40.0833 35.7507C38.8884 35.7507 37.9167 36.7224 37.9167 37.9173C37.9167 38.6204 38.2384 39.2552 38.7985 39.6593C39.5492 40.2118 40.6261 40.2053 41.3573 39.6658C41.9282 39.2552 42.25 38.6204 42.25 37.9173C42.25 36.7224 41.2782 35.7507 40.0833 35.7507Z" fill="url(#paint5_linear_412_643)"/>
<path id="Vector_7" d="M44.4167 46.5827H35.75C35.151 46.5827 34.6667 46.0974 34.6667 45.4994V44.416C34.6667 42.3415 35.8237 40.4835 37.6881 39.566C38.05 39.3861 38.4822 39.4262 38.8083 39.6645C39.5406 40.204 40.6261 40.204 41.3584 39.6645C41.6835 39.4251 42.1135 39.3872 42.4743 39.5627C42.9878 39.8119 43.4677 40.151 43.901 40.5702C44.9389 41.6221 45.5 42.9817 45.5 44.416V45.4994C45.5 46.0974 45.0158 46.5827 44.4167 46.5827ZM36.8334 44.416H43.3334C43.3334 43.5548 42.9943 42.7358 42.3779 42.1107C42.263 42.0002 42.1363 41.894 42.003 41.7987C40.8135 42.3859 39.351 42.3859 38.1637 41.7987C37.3317 42.4021 36.8334 43.363 36.8334 44.416ZM21.6028 22.2402C21.2052 22.2402 20.8228 22.0214 20.6321 21.6411C20.3645 21.106 20.5812 20.4549 21.1164 20.1873L29.912 15.789C30.4471 15.5203 31.0971 15.7381 31.3658 16.2732C31.6334 16.8084 31.4167 17.4595 30.8815 17.7271L22.086 22.1254C21.931 22.2034 21.7664 22.2402 21.6028 22.2402ZM30.3973 36.3235C30.2348 36.3235 30.069 36.2867 29.9141 36.2098L21.1185 31.8115C20.5834 31.5439 20.3667 30.8928 20.6343 30.3576C20.903 29.8214 21.554 29.6047 22.0881 29.8734L30.8837 34.2717C31.4189 34.5393 31.6355 35.1904 31.368 35.7255C31.1762 36.1047 30.7949 36.3235 30.3973 36.3235Z" fill="url(#paint6_linear_412_643)"/>
</g>
<defs>
<linearGradient id="paint0_linear_412_643" x1="-2.24517" y1="14.084" x2="30.4632" y2="21.3976" gradientUnits="userSpaceOnUse">
<stop stop-color="#FF0065"/>
<stop offset="1" stop-color="#179AD7"/>
</linearGradient>
<linearGradient id="paint1_linear_412_643" x1="6.76695" y1="19.5" x2="18.6609" y2="22.1595" gradientUnits="userSpaceOnUse">
<stop stop-color="#FF0065"/>
<stop offset="1" stop-color="#179AD7"/>
</linearGradient>
<linearGradient id="paint2_linear_412_643" x1="2.21377" y1="-1.56097e-06" x2="61.9273" y2="18.6929" gradientUnits="userSpaceOnUse">
<stop stop-color="#FF0065"/>
<stop offset="1" stop-color="#179AD7"/>
</linearGradient>
<linearGradient id="paint3_linear_412_643" x1="34.9336" y1="5.41602" x2="46.8275" y2="8.07553" gradientUnits="userSpaceOnUse">
<stop stop-color="#FF0065"/>
<stop offset="1" stop-color="#179AD7"/>
</linearGradient>
<linearGradient id="paint4_linear_412_643" x1="25.9215" y1="11.2881" x2="59.6866" y2="15.7079" gradientUnits="userSpaceOnUse">
<stop stop-color="#FF0065"/>
<stop offset="1" stop-color="#179AD7"/>
</linearGradient>
<linearGradient id="paint5_linear_412_643" x1="34.9336" y1="33.584" x2="46.8275" y2="36.2435" gradientUnits="userSpaceOnUse">
<stop stop-color="#FF0065"/>
<stop offset="1" stop-color="#179AD7"/>
</linearGradient>
<linearGradient id="paint6_linear_412_643" x1="18.164" y1="15.6738" x2="53.0251" y2="21.9743" gradientUnits="userSpaceOnUse">
<stop stop-color="#FF0065"/>
<stop offset="1" stop-color="#179AD7"/>
</linearGradient>
<clipPath id="clip0_412_643">
<rect width="52" height="52" fill="white"/>
</clipPath>
</defs>
</svg>
