<svg width="40" height="40" viewBox="0 0 40 40" fill="none" xmlns="http://www.w3.org/2000/svg">
<g id="Group 49">
<g id="Ellipse 11" filter="url(#filter0_d_193_327)">
<circle cx="20" cy="20" r="16" fill="white"/>
</g>
<path id="Vector" d="M19.9043 28.4979C19.8545 28.4979 19.8069 28.4961 19.7707 28.4944C19.742 28.4968 19.7124 28.4979 19.6827 28.4979C18.6355 28.4979 17.9354 28.0033 17.3175 27.5665C16.8746 27.2539 16.4569 26.9588 15.9676 26.8775C15.7273 26.8376 15.4883 26.8174 15.2573 26.8174C14.8411 26.8174 14.5122 26.8819 14.2721 26.9289C14.1243 26.9576 13.9969 26.9824 13.8985 26.9824C13.7953 26.9824 13.67 26.9595 13.6178 26.7813C13.5764 26.6408 13.5467 26.5046 13.518 26.3735C13.4463 26.0458 13.3944 25.8458 13.2716 25.8268C11.9582 25.6243 11.1822 25.326 11.0276 24.9648C11.0119 24.9287 11.0027 24.8902 11.0003 24.8509C10.9974 24.799 11.0138 24.7478 11.0463 24.7073C11.0789 24.6667 11.1253 24.6396 11.1766 24.6312C12.2196 24.4596 13.147 23.9087 13.9332 22.9934C14.5422 22.2848 14.8413 21.6078 14.8734 21.533C14.8749 21.5296 14.8764 21.5262 14.8781 21.5229C15.0297 21.2157 15.0598 20.9502 14.968 20.734C14.7988 20.3353 14.2383 20.1576 13.8675 20.04C13.7753 20.0109 13.6881 19.9833 13.6186 19.9557C13.2899 19.826 12.7493 19.5519 12.8213 19.1735C12.8737 18.8976 13.2389 18.7055 13.5341 18.7055C13.616 18.7055 13.6887 18.7199 13.7498 18.7485C14.0833 18.9047 14.3834 18.9838 14.6414 18.9838C14.9623 18.9838 15.1173 18.8617 15.1548 18.827C15.1451 18.6519 15.1345 18.4768 15.1231 18.3018C15.0478 17.1045 14.9538 15.6144 15.3353 14.76C16.477 12.2022 18.8982 12.0033 19.6128 12.0033C19.7307 12.0023 19.8487 12.0012 19.9667 12C20.6832 12 23.1095 12.1991 24.2519 14.7584C24.6333 15.6135 24.5393 17.1048 24.4637 18.3034L24.4601 18.3607C24.4498 18.5235 24.4402 18.6775 24.4321 18.8268C24.4674 18.8593 24.6093 18.9712 24.8978 18.9826C25.1438 18.9731 25.4265 18.8944 25.7378 18.7487C25.8341 18.7036 25.9406 18.6942 26.013 18.6942C26.1223 18.6942 26.2336 18.7155 26.3263 18.7541L26.3313 18.756C26.5954 18.8497 26.7684 19.037 26.7722 19.2337C26.7755 19.417 26.6391 19.6911 25.9683 19.9558C25.8996 19.983 25.812 20.0108 25.7194 20.0401C25.3483 20.1578 24.7882 20.3354 24.619 20.734C24.5271 20.9501 24.5573 21.2155 24.7089 21.5226C24.7106 21.526 24.712 21.5294 24.7137 21.5329C24.7603 21.6422 25.89 24.216 28.4105 24.6309C28.4618 24.6394 28.5082 24.6665 28.5407 24.7071C28.5733 24.7476 28.5897 24.7987 28.5868 24.8506C28.5843 24.8903 28.5749 24.9292 28.5589 24.9656C28.4054 25.3248 27.6294 25.6227 26.3157 25.8254C26.1924 25.8445 26.1404 26.0436 26.0694 26.3696C26.04 26.5042 26.0101 26.6362 25.9692 26.7749C25.931 26.9053 25.846 26.969 25.7094 26.969H25.6888C25.5999 26.969 25.474 26.9529 25.3151 26.9219C25.0374 26.8679 24.7259 26.8176 24.3299 26.8176C24.099 26.8176 23.86 26.8378 23.6194 26.8776C23.1306 26.9589 22.7129 27.2536 22.2709 27.5658C21.6518 28.0032 20.9514 28.4979 19.9043 28.4979Z" fill="#152031"/>
</g>
<defs>
<filter id="filter0_d_193_327" x="0" y="0" width="40" height="40" filterUnits="userSpaceOnUse" color-interpolation-filters="sRGB">
<feFlood flood-opacity="0" result="BackgroundImageFix"/>
<feColorMatrix in="SourceAlpha" type="matrix" values="0 0 0 0 0 0 0 0 0 0 0 0 0 0 0 0 0 0 127 0" result="hardAlpha"/>
<feOffset/>
<feGaussianBlur stdDeviation="2"/>
<feComposite in2="hardAlpha" operator="out"/>
<feColorMatrix type="matrix" values="0 0 0 0 0 0 0 0 0 0 0 0 0 0 0 0 0 0 0.25 0"/>
<feBlend mode="normal" in2="BackgroundImageFix" result="effect1_dropShadow_193_327"/>
<feBlend mode="normal" in="SourceGraphic" in2="effect1_dropShadow_193_327" result="shape"/>
</filter>
</defs>
</svg>
