<svg width="36" height="36" viewBox="0 0 36 36" fill="none" xmlns="http://www.w3.org/2000/svg">
<g id="Sunny">
<path id="Vector" d="M18 3.93525C17.8508 3.93525 17.7077 3.87599 17.6023 3.7705C17.4968 3.66501 17.4375 3.52193 17.4375 3.37275V1.6875C17.4375 1.53832 17.4968 1.39524 17.6023 1.28975C17.7077 1.18426 17.8508 1.125 18 1.125C18.1492 1.125 18.2923 1.18426 18.3977 1.28975C18.5032 1.39524 18.5625 1.53832 18.5625 1.6875V3.37275C18.5625 3.52193 18.5032 3.66501 18.3977 3.7705C18.2923 3.87599 18.1492 3.93525 18 3.93525ZM28.3433 8.21925C28.2319 8.2195 28.123 8.18665 28.0303 8.12489C27.9377 8.06312 27.8654 7.97522 27.8228 7.87234C27.7802 7.76946 27.7691 7.65624 27.791 7.54705C27.8128 7.43786 27.8666 7.33762 27.9456 7.25906L29.1369 6.06769C29.1892 6.01546 29.2512 5.97404 29.3194 5.94577C29.3876 5.91751 29.4608 5.90296 29.5346 5.90296C29.6085 5.90296 29.6816 5.91751 29.7499 5.94577C29.8181 5.97404 29.8801 6.01546 29.9323 6.06769C29.9845 6.11991 30.026 6.18191 30.0542 6.25015C30.0825 6.31838 30.097 6.39152 30.097 6.46538C30.097 6.53923 30.0825 6.61237 30.0542 6.6806C30.026 6.74884 29.9845 6.81084 29.9323 6.86306L28.7409 8.05444C28.6888 8.1068 28.6268 8.14832 28.5586 8.17661C28.4903 8.2049 28.4171 8.21939 28.3433 8.21925ZM34.3125 18.5625H32.6273C32.4781 18.5625 32.335 18.5032 32.2295 18.3977C32.124 18.2923 32.0648 18.1492 32.0648 18C32.0648 17.8508 32.124 17.7077 32.2295 17.6023C32.335 17.4968 32.4781 17.4375 32.6273 17.4375H34.3125C34.4617 17.4375 34.6048 17.4968 34.7102 17.6023C34.8157 17.7077 34.875 17.8508 34.875 18C34.875 18.1492 34.8157 18.2923 34.7102 18.3977C34.6048 18.5032 34.4617 18.5625 34.3125 18.5625ZM29.5346 30.0971C29.4607 30.0972 29.3876 30.0827 29.3193 30.0544C29.2511 30.0261 29.1891 29.9846 29.1369 29.9323L27.9456 28.7409C27.8933 28.6887 27.8519 28.6267 27.8236 28.5585C27.7954 28.4902 27.7808 28.4171 27.7808 28.3433C27.7808 28.2694 27.7954 28.1963 27.8236 28.128C27.8519 28.0598 27.8933 27.9978 27.9456 27.9456C27.9978 27.8933 28.0598 27.8519 28.128 27.8236C28.1963 27.7954 28.2694 27.7808 28.3433 27.7808C28.4171 27.7808 28.4902 27.7954 28.5585 27.8236C28.6267 27.8519 28.6887 27.8933 28.7409 27.9456L29.9323 29.1369C30.0112 29.2155 30.065 29.3157 30.0869 29.4249C30.1087 29.5341 30.0976 29.6473 30.055 29.7502C30.0124 29.8531 29.9402 29.941 29.8476 30.0028C29.7549 30.0645 29.646 30.0974 29.5346 30.0971ZM18 34.875C17.8508 34.875 17.7077 34.8157 17.6023 34.7102C17.4968 34.6048 17.4375 34.4617 17.4375 34.3125V32.6273C17.4375 32.4781 17.4968 32.335 17.6023 32.2295C17.7077 32.124 17.8508 32.0648 18 32.0648C18.1492 32.0648 18.2923 32.124 18.3977 32.2295C18.5032 32.335 18.5625 32.4781 18.5625 32.6273V34.3125C18.5625 34.4617 18.5032 34.6048 18.3977 34.7102C18.2923 34.8157 18.1492 34.875 18 34.875ZM6.46538 30.0971C6.35402 30.0974 6.2451 30.0645 6.15245 30.0028C6.05979 29.941 5.98758 29.8531 5.94496 29.7502C5.90235 29.6473 5.89127 29.5341 5.91312 29.4249C5.93497 29.3157 5.98877 29.2155 6.06769 29.1369L7.25906 27.9456C7.31129 27.8933 7.37329 27.8519 7.44152 27.8236C7.50976 27.7954 7.58289 27.7808 7.65675 27.7808C7.73061 27.7808 7.80374 27.7954 7.87198 27.8236C7.94021 27.8519 8.00221 27.8933 8.05444 27.9456C8.10666 27.9978 8.14809 28.0598 8.17635 28.128C8.20462 28.1963 8.21916 28.2694 8.21916 28.3433C8.21916 28.4171 8.20462 28.4902 8.17635 28.5585C8.14809 28.6267 8.10666 28.6887 8.05444 28.7409L6.86306 29.9323C6.8109 29.9846 6.74891 30.0261 6.68066 30.0544C6.61241 30.0827 6.53925 30.0972 6.46538 30.0971ZM3.37275 18.5625H1.6875C1.53832 18.5625 1.39524 18.5032 1.28975 18.3977C1.18426 18.2923 1.125 18.1492 1.125 18C1.125 17.8508 1.18426 17.7077 1.28975 17.6023C1.39524 17.4968 1.53832 17.4375 1.6875 17.4375H3.37275C3.52193 17.4375 3.66501 17.4968 3.7705 17.6023C3.87599 17.7077 3.93525 17.8508 3.93525 18C3.93525 18.1492 3.87599 18.2923 3.7705 18.3977C3.66501 18.5032 3.52193 18.5625 3.37275 18.5625ZM7.65675 8.21925C7.58287 8.21933 7.50971 8.20481 7.44146 8.17652C7.37322 8.14824 7.31123 8.10675 7.25906 8.05444L6.06769 6.86306C6.01546 6.81084 5.97404 6.74884 5.94577 6.6806C5.91751 6.61237 5.90296 6.53923 5.90296 6.46538C5.90296 6.39152 5.91751 6.31838 5.94577 6.25015C5.97404 6.18191 6.01546 6.11991 6.06769 6.06769C6.11991 6.01546 6.18191 5.97404 6.25015 5.94577C6.31838 5.91751 6.39152 5.90296 6.46538 5.90296C6.53923 5.90296 6.61237 5.91751 6.6806 5.94577C6.74884 5.97404 6.81084 6.01546 6.86306 6.06769L8.05444 7.25906C8.13336 7.33762 8.18715 7.43786 8.209 7.54705C8.23085 7.65624 8.21977 7.76946 8.17716 7.87234C8.13455 7.97522 8.06233 8.06312 7.96968 8.12489C7.87702 8.18665 7.76811 8.2195 7.65675 8.21925Z" fill="#FBB03B"/>
<path id="Vector_2" d="M18 3.93525C17.8508 3.93525 17.7077 3.87599 17.6023 3.7705C17.4968 3.66501 17.4375 3.52193 17.4375 3.37275V1.6875C17.4375 1.53832 17.4968 1.39524 17.6023 1.28975C17.7077 1.18426 17.8508 1.125 18 1.125C18.1492 1.125 18.2923 1.18426 18.3977 1.28975C18.5032 1.39524 18.5625 1.53832 18.5625 1.6875V3.37275C18.5625 3.52193 18.5032 3.66501 18.3977 3.7705C18.2923 3.87599 18.1492 3.93525 18 3.93525ZM28.3433 8.21925C28.2319 8.2195 28.123 8.18665 28.0303 8.12489C27.9377 8.06312 27.8654 7.97522 27.8228 7.87234C27.7802 7.76946 27.7691 7.65624 27.791 7.54705C27.8128 7.43786 27.8666 7.33762 27.9456 7.25906L29.1369 6.06769C29.1892 6.01546 29.2512 5.97404 29.3194 5.94577C29.3876 5.91751 29.4608 5.90296 29.5346 5.90296C29.6085 5.90296 29.6816 5.91751 29.7499 5.94577C29.8181 5.97404 29.8801 6.01546 29.9323 6.06769C29.9845 6.11991 30.026 6.18191 30.0542 6.25015C30.0825 6.31838 30.097 6.39152 30.097 6.46538C30.097 6.53923 30.0825 6.61237 30.0542 6.6806C30.026 6.74884 29.9845 6.81084 29.9323 6.86306L28.7409 8.05444C28.6888 8.1068 28.6268 8.14832 28.5586 8.17661C28.4903 8.2049 28.4171 8.21939 28.3433 8.21925ZM34.3125 18.5625H32.6273C32.4781 18.5625 32.335 18.5032 32.2295 18.3977C32.124 18.2923 32.0648 18.1492 32.0648 18C32.0648 17.8508 32.124 17.7077 32.2295 17.6023C32.335 17.4968 32.4781 17.4375 32.6273 17.4375H34.3125C34.4617 17.4375 34.6048 17.4968 34.7102 17.6023C34.8157 17.7077 34.875 17.8508 34.875 18C34.875 18.1492 34.8157 18.2923 34.7102 18.3977C34.6048 18.5032 34.4617 18.5625 34.3125 18.5625ZM29.5346 30.0971C29.4607 30.0972 29.3876 30.0827 29.3193 30.0544C29.2511 30.0261 29.1891 29.9846 29.1369 29.9323L27.9456 28.7409C27.8933 28.6887 27.8519 28.6267 27.8236 28.5585C27.7954 28.4902 27.7808 28.4171 27.7808 28.3433C27.7808 28.2694 27.7954 28.1963 27.8236 28.128C27.8519 28.0598 27.8933 27.9978 27.9456 27.9456C27.9978 27.8933 28.0598 27.8519 28.128 27.8236C28.1963 27.7954 28.2694 27.7808 28.3433 27.7808C28.4171 27.7808 28.4902 27.7954 28.5585 27.8236C28.6267 27.8519 28.6887 27.8933 28.7409 27.9456L29.9323 29.1369C30.0112 29.2155 30.065 29.3157 30.0869 29.4249C30.1087 29.5341 30.0976 29.6473 30.055 29.7502C30.0124 29.8531 29.9402 29.941 29.8476 30.0028C29.7549 30.0645 29.646 30.0974 29.5346 30.0971ZM18 34.875C17.8508 34.875 17.7077 34.8157 17.6023 34.7102C17.4968 34.6048 17.4375 34.4617 17.4375 34.3125V32.6273C17.4375 32.4781 17.4968 32.335 17.6023 32.2295C17.7077 32.124 17.8508 32.0648 18 32.0648C18.1492 32.0648 18.2923 32.124 18.3977 32.2295C18.5032 32.335 18.5625 32.4781 18.5625 32.6273V34.3125C18.5625 34.4617 18.5032 34.6048 18.3977 34.7102C18.2923 34.8157 18.1492 34.875 18 34.875ZM6.46538 30.0971C6.35402 30.0974 6.2451 30.0645 6.15245 30.0028C6.05979 29.941 5.98758 29.8531 5.94496 29.7502C5.90235 29.6473 5.89127 29.5341 5.91312 29.4249C5.93497 29.3157 5.98877 29.2155 6.06769 29.1369L7.25906 27.9456C7.31129 27.8933 7.37329 27.8519 7.44152 27.8236C7.50976 27.7954 7.58289 27.7808 7.65675 27.7808C7.73061 27.7808 7.80374 27.7954 7.87198 27.8236C7.94021 27.8519 8.00221 27.8933 8.05444 27.9456C8.10666 27.9978 8.14809 28.0598 8.17635 28.128C8.20462 28.1963 8.21916 28.2694 8.21916 28.3433C8.21916 28.4171 8.20462 28.4902 8.17635 28.5585C8.14809 28.6267 8.10666 28.6887 8.05444 28.7409L6.86306 29.9323C6.8109 29.9846 6.74891 30.0261 6.68066 30.0544C6.61241 30.0827 6.53925 30.0972 6.46538 30.0971ZM3.37275 18.5625H1.6875C1.53832 18.5625 1.39524 18.5032 1.28975 18.3977C1.18426 18.2923 1.125 18.1492 1.125 18C1.125 17.8508 1.18426 17.7077 1.28975 17.6023C1.39524 17.4968 1.53832 17.4375 1.6875 17.4375H3.37275C3.52193 17.4375 3.66501 17.4968 3.7705 17.6023C3.87599 17.7077 3.93525 17.8508 3.93525 18C3.93525 18.1492 3.87599 18.2923 3.7705 18.3977C3.66501 18.5032 3.52193 18.5625 3.37275 18.5625ZM7.65675 8.21925C7.58287 8.21933 7.50971 8.20481 7.44146 8.17652C7.37322 8.14824 7.31123 8.10675 7.25906 8.05444L6.06769 6.86306C6.01546 6.81084 5.97404 6.74884 5.94577 6.6806C5.91751 6.61237 5.90296 6.53923 5.90296 6.46538C5.90296 6.39152 5.91751 6.31838 5.94577 6.25015C5.97404 6.18191 6.01546 6.11991 6.06769 6.06769C6.11991 6.01546 6.18191 5.97404 6.25015 5.94577C6.31838 5.91751 6.39152 5.90296 6.46538 5.90296C6.53923 5.90296 6.61237 5.91751 6.6806 5.94577C6.74884 5.97404 6.81084 6.01546 6.86306 6.06769L8.05444 7.25906C8.13336 7.33762 8.18715 7.43786 8.209 7.54705C8.23085 7.65624 8.21977 7.76946 8.17716 7.87234C8.13455 7.97522 8.06233 8.06312 7.96968 8.12489C7.87702 8.18665 7.76811 8.2195 7.65675 8.21925ZM23.5924 5.04675C23.4998 5.04677 23.4087 5.02397 23.3271 4.98036C23.2455 4.93675 23.1759 4.87368 23.1245 4.79674C23.0731 4.7198 23.0415 4.63136 23.0324 4.53928C23.0234 4.44719 23.0372 4.35429 23.0726 4.26881L23.7173 2.71181C23.7455 2.64356 23.7869 2.58153 23.839 2.52927C23.8912 2.47701 23.9532 2.43554 24.0214 2.40723C24.0896 2.37892 24.1628 2.36432 24.2366 2.36427C24.3105 2.36422 24.3836 2.37872 24.4519 2.40694C24.5201 2.43516 24.5822 2.47654 24.6344 2.52873C24.6867 2.58092 24.7281 2.64289 24.7565 2.71111C24.7848 2.77932 24.7994 2.85245 24.7994 2.92631C24.7995 3.00016 24.785 3.07331 24.7568 3.14156L24.1121 4.69856C24.0698 4.80162 23.9978 4.88976 23.9052 4.95177C23.8127 5.01377 23.7038 5.04684 23.5924 5.04675ZM31.5124 12.9606C31.3823 12.9603 31.2563 12.915 31.1559 12.8324C31.0554 12.7498 30.9866 12.6349 30.9613 12.5074C30.9359 12.3798 30.9554 12.2474 31.0166 12.1326C31.0778 12.0178 31.1769 11.9278 31.2969 11.8777L32.8534 11.2326C32.9899 11.1821 33.1406 11.1865 33.2739 11.2448C33.4073 11.3031 33.5129 11.4107 33.5686 11.5452C33.6243 11.6796 33.6258 11.8304 33.5728 11.9659C33.5198 12.1014 33.4164 12.2111 33.2843 12.2721L31.7278 12.9173C31.6595 12.9457 31.5863 12.9604 31.5124 12.9606ZM33.0728 24.8001C32.999 24.7999 32.9259 24.7852 32.8579 24.7568L31.3009 24.1121C31.1656 24.0534 31.0587 23.9439 31.0034 23.8072C30.948 23.6705 30.9486 23.5175 31.0049 23.3812C31.0613 23.2449 31.1689 23.1362 31.3047 23.0784C31.4404 23.0207 31.5934 23.0186 31.7306 23.0726L33.2876 23.7173C33.4082 23.7668 33.5079 23.8567 33.5695 23.9716C33.6312 24.0864 33.651 24.2192 33.6256 24.3471C33.6003 24.4749 33.5312 24.59 33.4304 24.6727C33.3295 24.7553 33.2031 24.8003 33.0728 24.8001ZM24.2483 33.6313C24.1369 33.6314 24.028 33.5985 23.9355 33.5366C23.8429 33.4747 23.7709 33.3866 23.7285 33.2837L23.0833 31.7272C23.0329 31.5907 23.0373 31.44 23.0956 31.3067C23.1538 31.1733 23.2615 31.0677 23.3959 31.012C23.5303 30.9563 23.6811 30.9548 23.8166 31.0078C23.9521 31.0608 24.0619 31.1642 24.1228 31.2964L24.768 32.8528C24.8034 32.9383 24.8172 33.0312 24.8081 33.1234C24.7991 33.2155 24.7675 33.3039 24.7161 33.3809C24.6647 33.4579 24.5951 33.521 24.5135 33.5647C24.4319 33.6083 24.3408 33.6312 24.2483 33.6313ZM11.7624 33.6358C11.6699 33.6358 11.5788 33.613 11.4972 33.5694C11.4156 33.5258 11.346 33.4627 11.2946 33.3858C11.2432 33.3089 11.2115 33.2204 11.2025 33.1283C11.1934 33.0363 11.2072 32.9434 11.2427 32.8579L11.8873 31.3009C11.9155 31.2326 11.9569 31.1706 12.0091 31.1183C12.0613 31.0661 12.1233 31.0246 12.1915 30.9963C12.2597 30.968 12.3328 30.9534 12.4067 30.9533C12.4805 30.9533 12.5537 30.9678 12.6219 30.996C12.6902 31.0242 12.7522 31.0656 12.8045 31.1178C12.8567 31.17 12.8982 31.232 12.9265 31.3002C12.9548 31.3684 12.9694 31.4415 12.9695 31.5154C12.9695 31.5892 12.955 31.6624 12.9268 31.7306L12.2822 33.2876C12.2398 33.3906 12.1678 33.4787 12.0752 33.5407C11.9827 33.6027 11.8738 33.6358 11.7624 33.6358ZM2.93175 24.8108C2.80168 24.8105 2.67571 24.7652 2.57525 24.6826C2.47478 24.6 2.40602 24.4851 2.38063 24.3576C2.35525 24.23 2.37482 24.0976 2.43601 23.9828C2.4972 23.868 2.59625 23.778 2.71631 23.7279L4.27275 23.0828C4.341 23.0545 4.41416 23.0399 4.48805 23.0399C4.56193 23.0399 4.6351 23.0544 4.70337 23.0826C4.77164 23.1109 4.83367 23.1523 4.88593 23.2046C4.93819 23.2568 4.97965 23.3188 5.00794 23.3871C5.03623 23.4553 5.0508 23.5285 5.05082 23.6024C5.05084 23.6762 5.0363 23.7494 5.00804 23.8177C4.97979 23.886 4.93836 23.948 4.88613 24.0002C4.83389 24.0525 4.77188 24.094 4.70363 24.1222L3.14719 24.7674C3.07891 24.7959 3.00571 24.8106 2.93175 24.8108ZM4.48369 12.9701C4.40991 12.97 4.33688 12.9553 4.26881 12.9268L2.71181 12.2822C2.5765 12.2235 2.46966 12.114 2.41431 11.9773C2.35895 11.8405 2.35951 11.6876 2.41586 11.5513C2.47222 11.4149 2.57985 11.3062 2.71559 11.2485C2.85132 11.1908 3.0043 11.1887 3.14156 11.2427L4.69856 11.8873C4.81916 11.9369 4.91881 12.0267 4.98046 12.1416C5.04212 12.2565 5.06195 12.3892 5.03658 12.5171C5.0112 12.645 4.94218 12.7601 4.84134 12.8427C4.74049 12.9254 4.61407 12.9704 4.48369 12.9701ZM12.3981 5.05069C12.2867 5.05082 12.1779 5.01784 12.0853 4.95594C11.9928 4.89404 11.9207 4.80602 11.8783 4.70306L11.2331 3.14663C11.1811 3.00984 11.1844 2.85815 11.2423 2.72376C11.3003 2.58937 11.4084 2.48286 11.5436 2.42686C11.6788 2.37085 11.8305 2.36975 11.9665 2.4238C12.1026 2.47784 12.2122 2.58277 12.2721 2.71631L12.9173 4.27275C12.9525 4.35819 12.9662 4.451 12.9571 4.54299C12.948 4.63497 12.9165 4.72331 12.8651 4.80019C12.8138 4.87708 12.7444 4.94015 12.6629 4.98383C12.5815 5.02752 12.4905 5.05048 12.3981 5.05069Z" fill="#FBB03B"/>
<path id="Vector_3" d="M23.5924 5.04674C23.4998 5.04676 23.4087 5.02395 23.3271 4.98034C23.2455 4.93673 23.1759 4.87366 23.1245 4.79672C23.0731 4.71978 23.0415 4.63135 23.0324 4.53926C23.0234 4.44717 23.0372 4.35427 23.0726 4.2688L23.7173 2.7118C23.7455 2.64354 23.7869 2.58152 23.839 2.52926C23.8912 2.47699 23.9532 2.43553 24.0214 2.40722C24.0896 2.3789 24.1628 2.36431 24.2366 2.36426C24.3105 2.36421 24.3836 2.37871 24.4519 2.40692C24.5201 2.43514 24.5822 2.47653 24.6344 2.52872C24.6867 2.58091 24.7282 2.64288 24.7565 2.71109C24.7848 2.77931 24.7994 2.85243 24.7994 2.92629C24.7995 3.00015 24.785 3.07329 24.7568 3.14155L24.1121 4.69855C24.0698 4.80161 23.9978 4.88975 23.9053 4.95175C23.8127 5.01376 23.7038 5.04682 23.5924 5.04674ZM31.5124 12.9605C31.3823 12.9603 31.2563 12.915 31.1559 12.8324C31.0554 12.7498 30.9866 12.6349 30.9613 12.5074C30.9359 12.3798 30.9554 12.2474 31.0166 12.1326C31.0778 12.0178 31.1769 11.9278 31.2969 11.8777L32.8534 11.2325C32.9899 11.1821 33.1406 11.1865 33.2739 11.2448C33.4073 11.3031 33.5129 11.4107 33.5686 11.5451C33.6243 11.6796 33.6258 11.8303 33.5728 11.9659C33.5198 12.1014 33.4164 12.2111 33.2843 12.272L31.7278 12.9172C31.6595 12.9457 31.5863 12.9604 31.5124 12.9605ZM33.0728 24.8C32.999 24.7999 32.9259 24.7852 32.8579 24.7567L31.3009 24.1121C31.1656 24.0534 31.0587 23.9439 31.0034 23.8072C30.948 23.6705 30.9486 23.5175 31.0049 23.3812C31.0613 23.2449 31.1689 23.1361 31.3047 23.0784C31.4404 23.0207 31.5934 23.0186 31.7306 23.0726L33.2876 23.7172C33.4082 23.7668 33.5079 23.8567 33.5695 23.9715C33.6312 24.0864 33.651 24.2192 33.6256 24.347C33.6003 24.4749 33.5312 24.59 33.4304 24.6726C33.3296 24.7553 33.2031 24.8003 33.0728 24.8ZM24.2483 33.6313C24.1369 33.6314 24.028 33.5984 23.9355 33.5365C23.8429 33.4746 23.7709 33.3866 23.7285 33.2837L23.0833 31.7272C23.0329 31.5907 23.0373 31.44 23.0956 31.3067C23.1538 31.1733 23.2615 31.0677 23.3959 31.012C23.5303 30.9563 23.6811 30.9548 23.8166 31.0078C23.9521 31.0608 24.0619 31.1642 24.1228 31.2964L24.768 32.8528C24.8034 32.9383 24.8172 33.0312 24.8081 33.1233C24.7991 33.2154 24.7675 33.3039 24.7161 33.3809C24.6647 33.4579 24.5951 33.521 24.5135 33.5647C24.4319 33.6083 24.3408 33.6312 24.2483 33.6313ZM11.7624 33.6358C11.6699 33.6358 11.5788 33.613 11.4972 33.5694C11.4156 33.5258 11.346 33.4627 11.2946 33.3858C11.2432 33.3088 11.2115 33.2204 11.2025 33.1283C11.1934 33.0362 11.2073 32.9433 11.2427 32.8579L11.8873 31.3009C11.9155 31.2326 11.9569 31.1706 12.0091 31.1183C12.0613 31.0661 12.1233 31.0246 12.1915 30.9963C12.2597 30.968 12.3328 30.9534 12.4067 30.9533C12.4805 30.9533 12.5537 30.9678 12.6219 30.996C12.6902 31.0242 12.7522 31.0656 12.8045 31.1178C12.8567 31.17 12.8982 31.2319 12.9265 31.3002C12.9548 31.3684 12.9694 31.4415 12.9695 31.5154C12.9695 31.5892 12.955 31.6624 12.9268 31.7306L12.2822 33.2876C12.2398 33.3906 12.1678 33.4787 12.0752 33.5407C11.9827 33.6027 11.8738 33.6358 11.7624 33.6358ZM2.93175 24.8107C2.80168 24.8105 2.67571 24.7652 2.57525 24.6826C2.47478 24.6 2.40602 24.4851 2.38064 24.3575C2.35526 24.23 2.37482 24.0976 2.43602 23.9828C2.49721 23.868 2.59625 23.7779 2.71632 23.7279L4.27275 23.0827C4.34101 23.0544 4.41417 23.0399 4.48805 23.0399C4.56194 23.0398 4.6351 23.0544 4.70337 23.0826C4.77164 23.1109 4.83367 23.1523 4.88593 23.2045C4.93819 23.2568 4.97965 23.3188 5.00794 23.387C5.03623 23.4553 5.0508 23.5285 5.05082 23.6023C5.05084 23.6762 5.0363 23.7494 5.00805 23.8177C4.97979 23.8859 4.93836 23.948 4.88613 24.0002C4.8339 24.0525 4.77188 24.0939 4.70363 24.1222L3.14719 24.7674C3.07891 24.7958 3.00571 24.8106 2.93175 24.8107ZM4.48369 12.9701C4.40991 12.97 4.33689 12.9553 4.26882 12.9268L2.71182 12.2822C2.5765 12.2235 2.46967 12.114 2.41431 11.9773C2.35896 11.8405 2.35951 11.6875 2.41587 11.5512C2.47222 11.4149 2.57986 11.3062 2.71559 11.2485C2.85133 11.1908 3.0043 11.1887 3.14157 11.2427L4.69857 11.8873C4.81917 11.9368 4.91881 12.0267 4.98047 12.1416C5.04212 12.2565 5.06196 12.3892 5.03658 12.5171C5.0112 12.645 4.94219 12.7601 4.84134 12.8427C4.74049 12.9253 4.61407 12.9704 4.48369 12.9701ZM12.3981 5.05067C12.2867 5.0508 12.1779 5.01782 12.0853 4.95592C11.9928 4.89402 11.9207 4.806 11.8783 4.70305L11.2331 3.14661C11.1811 3.00982 11.1844 2.85813 11.2423 2.72374C11.3003 2.58935 11.4084 2.48285 11.5436 2.42684C11.6788 2.37084 11.8305 2.36974 11.9666 2.42379C12.1026 2.47783 12.2122 2.58276 12.2721 2.7163L12.9173 4.27274C12.9525 4.35818 12.9662 4.45098 12.9571 4.54297C12.948 4.63496 12.9165 4.72329 12.8651 4.80018C12.8138 4.87706 12.7444 4.94013 12.6629 4.98382C12.5815 5.02751 12.4905 5.05047 12.3981 5.05067Z" fill="#FBB03B"/>
<path id="Vector_4" d="M18 30.9375C25.1452 30.9375 30.9375 25.1452 30.9375 18C30.9375 10.8548 25.1452 5.0625 18 5.0625C10.8548 5.0625 5.0625 10.8548 5.0625 18C5.0625 25.1452 10.8548 30.9375 18 30.9375Z" fill="#FBB03B"/>
<path id="Vector_5" d="M27.9377 9.71774C28.4349 11.1123 28.6885 12.582 28.6875 14.0625C28.6875 21.2079 22.8954 27 15.75 27C11.7557 27 8.1855 25.1893 5.81232 22.3447C7.59769 27.3521 12.3795 30.9375 18 30.9375C25.1454 30.9375 30.9375 25.1454 30.9375 18C30.9415 14.9726 29.8795 12.0404 27.9377 9.71774Z" fill="#E29E35"/>
</g>
</svg>
