<svg width="40" height="40" viewBox="0 0 40 40" fill="none" xmlns="http://www.w3.org/2000/svg">
<g id="Group 48">
<g id="Ellipse 12" filter="url(#filter0_d_193_326)">
<circle cx="20" cy="20" r="16" fill="white"/>
</g>
<path id="Vector" d="M28 14.6574C27.3634 14.9432 26.6881 15.1306 25.9967 15.2133C26.7251 14.7718 27.2703 14.077 27.5305 13.2583C26.8459 13.67 26.0968 13.96 25.3157 14.1157C24.9893 13.763 24.5948 13.4819 24.1568 13.29C23.7188 13.0981 23.2465 12.9994 22.7693 13C20.8434 13 19.2815 14.5828 19.2815 16.5343C19.2815 16.8114 19.3125 17.081 19.3723 17.3398C16.4737 17.1925 13.9036 15.7855 12.1832 13.6466C11.873 14.186 11.71 14.7993 11.7109 15.4236C11.7109 16.6495 12.3271 17.7318 13.2624 18.3654C12.7085 18.3481 12.1668 18.1963 11.6828 17.9229L11.6825 17.9677C11.6825 19.6801 12.8852 21.1085 14.4805 21.4329C14.1811 21.5157 13.8721 21.5575 13.5618 21.5571C13.3365 21.5571 13.1183 21.5352 12.9055 21.4941C13.3493 22.8979 14.6371 23.9198 16.1636 23.9485C14.9281 24.9312 13.4022 25.4641 11.8316 25.4615C11.5506 25.4615 11.2723 25.4449 11 25.4119C12.5944 26.4507 14.4504 27.0021 16.346 27C22.7612 27 26.2695 21.6146 26.2695 16.9437C26.2695 16.7905 26.2661 16.6379 26.2594 16.4866C26.9425 15.9868 27.5319 15.3673 28 14.6574Z" fill="#152031"/>
</g>
<defs>
<filter id="filter0_d_193_326" x="0" y="0" width="40" height="40" filterUnits="userSpaceOnUse" color-interpolation-filters="sRGB">
<feFlood flood-opacity="0" result="BackgroundImageFix"/>
<feColorMatrix in="SourceAlpha" type="matrix" values="0 0 0 0 0 0 0 0 0 0 0 0 0 0 0 0 0 0 127 0" result="hardAlpha"/>
<feOffset/>
<feGaussianBlur stdDeviation="2"/>
<feComposite in2="hardAlpha" operator="out"/>
<feColorMatrix type="matrix" values="0 0 0 0 0 0 0 0 0 0 0 0 0 0 0 0 0 0 0.25 0"/>
<feBlend mode="normal" in2="BackgroundImageFix" result="effect1_dropShadow_193_326"/>
<feBlend mode="normal" in="SourceGraphic" in2="effect1_dropShadow_193_326" result="shape"/>
</filter>
</defs>
</svg>
