<svg width="35" height="35" viewBox="0 0 35 35" fill="none" xmlns="http://www.w3.org/2000/svg">
<g id="2023_02_14.14_18_05_2022 1">
<path id="Vector" d="M14.99 27.5201C14.99 27.1501 14.99 26.8301 14.99 26.5101C14.99 26.4301 14.92 26.3101 14.85 26.2701C13.21 25.1801 12.45 23.6401 12.49 21.6801C12.51 20.8001 12.49 19.9301 12.49 19.0501C12.49 16.4801 14.53 14.4701 17.1 14.5001C18.03 14.5101 18.96 14.5001 19.89 14.5001C20.34 14.5001 20.51 14.6601 20.51 15.1201C20.51 15.5901 20.51 16.0601 20.51 16.5501C20.6 16.5801 20.69 16.6101 20.78 16.6401C21.82 16.9901 22.51 17.9301 22.52 19.0301C22.52 20.0301 22.54 21.0301 22.52 22.0301C22.49 23.8001 21.73 25.2001 20.26 26.2001C20.07 26.3301 19.99 26.4501 20.01 26.6801C20.03 26.9501 20.01 27.2201 20.01 27.5401C20.3 27.5401 20.57 27.5401 20.85 27.5401C22.73 27.5401 24.02 28.8201 24.02 30.7001C24.02 31.2801 24.02 31.8701 24.02 32.4501C24.02 32.8201 23.82 33.0401 23.52 33.0401C23.22 33.0401 23.02 32.8201 23.02 32.4501C23.02 31.8301 23.02 31.2201 23.02 30.6001C23.02 29.3901 22.15 28.5401 20.94 28.5301C20.8 28.5301 20.67 28.5401 20.53 28.5301C19.91 28.4701 19.35 28.6101 18.8 28.9301C18.65 29.0201 18.4 28.9401 18.19 28.9301C18.19 28.9301 18.17 28.9201 18.16 28.9101C17.72 28.5701 17.28 28.5701 16.84 28.9101C16.63 29.0701 16.39 29.0701 16.17 28.9201C15.35 28.3501 14.44 28.4601 13.55 28.5901C12.66 28.7301 12.02 29.5501 12 30.4601C11.99 31.1101 12 31.7501 12 32.4001C12 32.8001 11.81 33.0201 11.5 33.0301C11.19 33.0301 10.99 32.8001 11 32.4101C11.01 31.6101 10.96 30.8001 11.07 30.0101C11.26 28.6001 12.52 27.5501 13.94 27.5301C14.28 27.5301 14.62 27.5301 15 27.5301L14.99 27.5201ZM13.49 21.6101C13.49 21.7701 13.49 21.9201 13.49 22.0801C13.52 24.1001 15.07 25.7801 17.12 26.0001C19.04 26.2101 20.94 24.8901 21.36 22.9701C21.5 22.3401 21.46 21.6701 21.49 21.0101C21.5 20.7301 20.58 20.0401 20.31 20.1101C20.3 20.1101 20.29 20.1101 20.28 20.1101C18.53 20.6701 16.76 20.5701 15 20.1401C14.67 20.0601 14.45 20.1301 14.17 20.2901C13.64 20.5901 13.29 20.9401 13.48 21.6001L13.49 21.6101ZM13.51 19.5601C13.75 19.4001 13.94 19.2301 14.16 19.1201C14.31 19.0501 14.5 19.0001 14.66 19.0301C15.46 19.1601 16.25 19.3701 17.05 19.4701C18.14 19.6001 19.21 19.4801 20.24 19.0701C20.46 18.9801 20.66 19.0001 20.85 19.1401C21.05 19.2801 21.25 19.4101 21.49 19.5701C21.49 19.3101 21.49 19.1101 21.49 18.9201C21.45 18.1701 20.85 17.5701 20.1 17.5101C19.61 17.4701 19.49 17.3501 19.49 16.8501C19.49 16.4101 19.49 15.9601 19.49 15.5101C18.67 15.5101 17.9 15.5101 17.13 15.5101C14.87 15.5101 13.28 17.2601 13.51 19.5701V19.5601ZM18.99 26.7901C17.97 27.0901 16.99 27.0801 15.98 26.7901C15.98 27.0101 16.01 27.1901 15.98 27.3601C15.92 27.6701 16.09 27.8001 16.33 27.8801C16.43 27.9101 16.55 27.9101 16.64 27.8801C16.82 27.8101 16.98 27.6701 17.17 27.6201C17.37 27.5701 17.59 27.5801 17.78 27.6201C17.93 27.6501 18.06 27.7601 18.2 27.8301C18.65 28.0601 18.98 27.8501 18.98 27.3501C18.98 27.1801 18.98 27.0201 18.98 26.8001L18.99 26.7901Z" fill="#152031"/>
<path id="Vector_2" d="M30.05 23.0099C30.37 23.0099 30.69 23.0099 31.01 23.0099C32.13 23.0099 33.02 23.8899 33.02 25.0099C33.02 25.6399 33.02 26.2599 33.02 26.8899C33.02 27.2799 32.83 27.5099 32.52 27.5099C32.21 27.5099 32.02 27.2799 32.02 26.8799C32.02 26.2699 32.02 25.6699 32.02 25.0599C32.02 24.4099 31.6 24.0399 30.96 23.9899C30.08 23.9099 29.29 24.0799 28.63 24.6899C28.55 24.7699 28.44 24.8199 28.35 24.8899C28.13 25.0499 27.91 25.0499 27.69 24.8899C27.59 24.8199 27.49 24.7499 27.38 24.6799C26.66 24.2066 25.87 23.9799 25.01 23.9999C24.43 24.0199 24.01 24.4299 24.01 25.0199C24.01 25.6499 24.01 26.2699 24.01 26.8999C24.01 27.2699 23.82 27.4999 23.52 27.5099C23.21 27.5099 23.01 27.2899 23.01 26.8999C23.01 26.2599 23.01 25.6299 23.01 24.9899C23.02 23.8899 23.9 23.0099 25.01 23.0099C25.33 23.0099 25.65 23.0099 25.98 23.0099C26.07 22.6699 26 22.4599 25.7 22.2399C24.58 21.4399 24.02 20.3299 24.01 18.9499C24.01 17.6599 24.01 16.3599 24.01 15.0699C24.01 14.0299 24.62 13.2699 25.64 13.0299C25.77 12.9999 25.9 12.9399 26 12.8599C27.46 11.8399 29.01 11.6599 30.6 12.4999C32.2 13.3499 33 14.7299 33.02 16.5499C33.04 18.1799 33.02 19.8099 33.02 21.4299C33.02 21.6899 32.93 21.8799 32.68 21.9699C32.47 22.0499 32.25 21.9999 32.12 21.8099C32.05 21.7099 32.03 21.5599 32.01 21.4299C31.95 21.0699 31.91 20.7199 31.85 20.3399C31.56 20.7799 31.33 21.1999 31.04 21.5699C30.84 21.8299 30.58 22.0699 30.3 22.2399C29.99 22.4299 29.96 22.6599 30.03 22.9899L30.05 23.0099ZM31.97 18.6499C31.97 17.6699 32.07 16.7599 31.95 15.8799C31.63 13.6099 28.88 12.0699 26.7 13.6199C26.61 13.6799 26.53 13.8299 26.53 13.9399C26.51 14.6199 26.52 15.2899 26.53 15.9699C26.53 16.5599 26.95 16.9699 27.53 16.9899C27.84 16.9999 28.16 16.9899 28.47 16.9899C29.74 16.9899 30.83 17.4299 31.73 18.3299C31.82 18.4199 31.88 18.5199 31.98 18.6399L31.97 18.6499ZM26.03 17.3399C25.88 17.4599 25.78 17.5999 25.65 17.6299C24.91 17.8099 24.98 18.3599 25.01 18.9099C25.01 18.9599 25.01 19.0099 25.01 19.0699C25.04 20.4599 26.06 21.6799 27.4 21.9499C28.8 22.2199 30.22 21.5399 30.74 20.2399C31.23 19.0199 31.18 19.0299 30.1 18.3999C29.43 18.0099 28.67 17.9799 27.91 18.0199C27.19 18.0599 26.54 17.9099 26.02 17.3499L26.03 17.3399ZM27.01 22.9599C27 23.5099 27.54 23.5999 27.87 23.7899C28.29 24.0299 28.52 23.4899 28.85 23.3399C28.96 23.2899 28.99 23.0799 29.04 22.9599H27H27.01ZM25.51 14.2199C25.51 14.2199 25.44 14.1799 25.4 14.1599C25.28 14.3599 25.07 14.5599 25.06 14.7699C25.02 15.4399 25.04 16.1199 25.04 16.8299C25.34 16.6399 25.5 16.3899 25.51 16.0799C25.53 15.4599 25.51 14.8399 25.51 14.2199Z" fill="#152031"/>
<path id="Vector_3" d="M17.49 11.99C14.87 11.99 12.25 11.99 9.63 11.99C9.12 11.99 8.98 11.84 8.98 11.35C8.98 10.6 8.98 9.84998 8.98 9.09998C8.98 8.66998 9.12 8.51998 9.54 8.48998C10.35 8.43998 10.97 7.78998 10.98 6.99998C10.98 6.18998 10.36 5.53998 9.53 5.48998C9.13 5.46998 8.97 5.30998 8.97 4.89998C8.97 4.11998 8.97 3.33998 8.97 2.54998C8.97 2.14998 9.14 1.97998 9.54 1.97998C14.84 1.97998 20.14 1.97998 25.44 1.97998C25.82 1.97998 26 2.14998 26 2.52998C26 3.32998 26 4.13998 26 4.93998C26 5.29998 25.83 5.46998 25.47 5.48998C24.63 5.53998 24.01 6.17998 24 6.97998C24 7.79998 24.62 8.43998 25.48 8.48998C25.84 8.50998 26 8.67998 26 9.04998C26 9.82998 26 10.61 26 11.4C26 11.84 25.84 12 25.4 12C22.76 12 20.12 12 17.48 12L17.49 11.99ZM24.99 9.44998C23.72 9.01998 23.02 8.16998 23 7.03998C22.98 5.84998 23.63 5.02998 24.98 4.50998V2.99998H9.98V4.51998C11.17 4.87998 11.91 5.63998 11.96 6.88998C12.01 8.24998 11.25 9.06998 9.99 9.45998V10.98H24.99V9.44998Z" fill="#152031"/>
<path id="Vector_4" d="M2.97001 17.5401C2.52001 17.3701 2.47001 17.2801 2.47001 16.7901C2.47001 15.0101 3.51001 13.4601 5.13001 12.8001C6.75001 12.1401 8.60001 12.5301 9.82001 13.8201C10.46 14.4901 10.89 15.3101 10.94 16.2401C10.99 17.3401 11.01 18.4501 10.92 19.5501C10.83 20.6901 10.22 21.5901 9.29001 22.2401C9.00001 22.4401 8.93001 22.6501 9.01001 23.0001C9.32001 23.0001 9.64001 23.0001 9.96001 23.0001C11.1 23.0001 11.98 23.8801 11.98 25.0301C11.98 25.6401 11.98 26.2401 11.98 26.8501C11.98 27.2801 11.81 27.5101 11.49 27.5101C11.16 27.5101 10.98 27.2801 10.98 26.8301C10.98 26.2501 10.98 25.6601 10.98 25.0801C10.98 24.4201 10.57 24.0101 9.90001 24.0101C9.80001 24.0101 9.69001 24.0101 9.59001 24.0101C9.18001 23.9801 8.87001 24.0501 8.55001 24.4101C7.71001 25.3401 5.90001 25.1701 5.16001 24.1701C5.10001 24.0901 4.97001 24.0301 4.86001 24.0201C4.57001 24.0001 4.28001 24.0101 3.98001 24.0201C3.38001 24.0201 2.96001 24.4501 2.96001 25.0501C2.96001 25.6701 2.96001 26.2801 2.96001 26.9001C2.96001 27.3001 2.77001 27.5201 2.46001 27.5201C2.15001 27.5201 1.96001 27.2901 1.96001 26.9001C1.96001 26.2701 1.96001 25.6501 1.96001 25.0201C1.96001 23.9001 2.85001 23.0201 3.98001 23.0201C4.30001 23.0201 4.62001 23.0201 4.94001 23.0201C5.00001 22.6901 4.96001 22.4701 4.67001 22.2601C3.54001 21.4701 2.99001 20.3601 2.97001 18.9801C2.97001 18.5001 2.97001 18.0201 2.97001 17.5501V17.5401ZM3.97001 17.7001C3.97001 18.1401 3.96001 18.6201 3.97001 19.0901C4.01001 20.4501 5.00001 21.6401 6.32001 21.9301C7.66001 22.2201 9.03001 21.5601 9.65001 20.3501C10.09 19.4901 9.95001 18.5601 9.97001 17.6501C9.97001 17.6201 9.95001 17.5901 9.94001 17.5701C9.54001 16.8201 8.91001 16.5901 8.11001 16.8701C7.54001 17.0701 6.98001 17.3201 6.39001 17.4301C5.61001 17.5801 4.81001 17.6101 3.97001 17.7001ZM3.47001 16.5301C3.59001 16.5501 3.67001 16.5701 3.75001 16.5801C3.80001 16.5801 3.85001 16.6001 3.90001 16.6001C5.35001 16.7501 6.71001 16.4001 8.03001 15.8401C8.08001 15.8201 8.14001 15.7701 8.16001 15.7201C8.40001 15.2501 8.63001 14.7701 8.87001 14.2901C7.83001 13.4801 6.71001 13.2401 5.51001 13.7401C4.28001 14.2401 3.63001 15.2001 3.47001 16.5401V16.5301ZM5.99001 22.9501C5.92001 23.5301 5.96001 23.6601 6.24001 23.8301C6.67001 24.0901 7.40001 24.0701 7.79001 23.7801C8.13001 23.5301 7.93001 23.2001 7.97001 22.9501H5.99001ZM9.58001 15.1301C9.45001 15.3901 9.36001 15.5701 9.27001 15.7501C9.49001 15.8601 9.67001 15.9601 9.93001 16.0901C9.81001 15.7501 9.71001 15.4801 9.58001 15.1201V15.1301Z" fill="#152031"/>
</g>
</svg>
