<svg width="32" height="32" viewBox="0 0 32 32" fill="none" xmlns="http://www.w3.org/2000/svg">
<g id="whatsapp">
<path id="Vector" d="M22.1334 18.6666C21.8667 18.5333 20.1334 17.7333 19.8667 17.6C19.6001 17.4666 19.3334 17.4666 19.0667 17.7333C18.8001 18 18.2667 18.8 18.0001 19.0666C17.8667 19.3333 17.6001 19.3333 17.3334 19.2C16.4001 18.8 15.4667 18.2666 14.6667 17.6C14.0001 16.9333 13.3334 16.1333 12.8001 15.3333C12.6667 15.0666 12.8001 14.8 12.9334 14.6666C13.0667 14.5333 13.2001 14.2666 13.4667 14.1333C13.6001 14 13.7334 13.7333 13.7334 13.6C13.8667 13.4666 13.8667 13.2 13.7334 13.0666C13.6001 12.9333 12.9334 11.3333 12.6667 10.6666C12.5334 9.7333 12.2667 9.7333 12.0001 9.7333H11.3334C11.0667 9.7333 10.6667 9.99997 10.5334 10.1333C9.73342 10.9333 9.33342 11.8666 9.33342 12.9333C9.46675 14.1333 9.86675 15.3333 10.6667 16.4C12.1334 18.5333 14.0001 20.2666 16.2667 21.3333C16.9334 21.6 17.4667 21.8666 18.1334 22C18.8001 22.2666 19.4667 22.2666 20.2667 22.1333C21.2001 22 22.0001 21.3333 22.5334 20.5333C22.8001 20 22.8001 19.4666 22.6667 18.9333L22.1334 18.6666ZM25.4667 6.5333C20.2667 1.3333 11.8667 1.3333 6.66675 6.5333C2.40008 10.8 1.60008 17.3333 4.53341 22.5333L2.66675 29.3333L9.73342 27.4666C11.7334 28.5333 13.8667 29.0666 16.0001 29.0666C23.3334 29.0666 29.2001 23.2 29.2001 15.8666C29.3334 12.4 27.8667 9.06663 25.4667 6.5333ZM21.8667 25.2C20.1334 26.2666 18.1334 26.9333 16.0001 26.9333C14.0001 26.9333 12.1334 26.4 10.4001 25.4666L10.0001 25.2L5.86675 26.2666L6.93341 22.2666L6.66675 21.8666C3.46675 16.5333 5.06675 9.86663 10.2667 6.5333C15.4667 3.19997 22.1334 4.9333 25.3334 9.99997C28.5334 15.2 27.0667 22 21.8667 25.2Z" fill="#152031"/>
</g>
</svg>
